<svg id="Camada_1" data-name="Camada 1" xmlns="http://www.w3.org/2000/svg" viewBox="0 0 273.39 52.95"><title>pizza</title><path d="M125.45,184.3l-16.1-41.22c6.9-3.31,26.08-3.86,34.21,1Zm6.63-25.71a4.36,4.36,0,1,0-4.4,4.42A4.28,4.28,0,0,0,132.08,158.59Zm-10.16-11.83c0-2-.81-3.41-3-3.57a3.58,3.58,0,0,0-3.66,3.39,3.28,3.28,0,0,0,3.37,3.29C120.82,150,121.91,149,121.92,146.76Zm6.28-3.06c-2-.32-2.4,1.14-2.49,2.6-.11,1.7,1.24,2.42,2.62,2.45a2.32,2.32,0,0,0,2.44-2.62C130.7,144.74,130.13,143.45,128.2,143.7Zm-4.92,28.06c-.11,1.33.48,2.26,1.77,2.31a2.14,2.14,0,0,0,2.37-2.11,2.08,2.08,0,0,0-2.21-2.26C123.92,169.61,123.24,170.46,123.28,171.76Zm15.38-25.29c-.08-1.54-1.17-1.84-2.42-1.85s-1.74.74-1.73,1.95a1.68,1.68,0,0,0,2.06,1.89C137.64,148.35,138.82,148.07,138.66,146.47Z" transform="translate(-11.13 -131.35)"/><path d="M131.62,179.12v-2.76h152.9v2.76Z" transform="translate(-11.13 -131.35)"/><path d="M150.44,138.94v-2.76H284v2.76Z" transform="translate(-11.13 -131.35)"/><path d="M227.75,172.57H222.7v-28.9c5.94.38,12-1,17.89,1.24a6.74,6.74,0,0,1,4.36,5.73c.44,3.17.13,6.2-2.89,8-1.66,1-1.9,1.91-1.2,3.58,1.41,3.36,2.67,6.78,4.11,10.46-1.58,0-3-.08-4.39,0-1,.08-1.33-.56-1.6-1.26-1.29-3.43-2.56-6.87-3.85-10.37h-7.38Zm0-16.18c2.9,0,5.6.1,8.28,0a3.92,3.92,0,0,0,3.61-4.08,4,4,0,0,0-3.51-4c-2.76-.14-5.52,0-8.38,0Z" transform="translate(-11.13 -131.35)"/><path d="M82,172.48c-6,.4-5.46.83-7.09-4.25-.66-2.06-1.66-4-2.31-6.09A1.41,1.41,0,0,0,71,161h-6v11.59H60V144.24c5.64.11,11.37-.71,17,.68a6.71,6.71,0,0,1,5.14,6.19c.37,3.19,0,6.46-3.22,8.1-2.09,1-1.48,2.07-.85,3.54C79.38,165.87,80.6,169,82,172.48Zm-17-15.6c3-.11,5.88.32,8.72-.41A3.79,3.79,0,0,0,76.81,153a3.52,3.52,0,0,0-2.12-3.84c-3.11-1.7-6.38-.6-9.69-.93Z" transform="translate(-11.13 -131.35)"/><path d="M119.73,176.4v2.76H12.1V176.4Z" transform="translate(-11.13 -131.35)"/><path d="M276.68,166.13H265.59c-3,8.27-1.67,6.53-6.55,6.26,3.17-9.54,6.32-19,9.49-28.62h6.21q4.83,14.35,9.69,28.79C279,172.93,279,172.93,276.68,166.13Zm-5.61-17.31c-1.45,4.53-2.7,8.45-4,12.51h8.08Z" transform="translate(-11.13 -131.35)"/><path d="M219.15,172.39c-5.25.81-5.25.81-7.61-6.33-3.25,0-6.55,0-9.84,0-1.12,0-1.76.33-2,1.42-.15.65-.33,1.3-.51,1.95-1,3.68-1,3.68-5.3,3l9.46-28.58h6.19Zm-13.27-23.32c-1.52,4.61-2.78,8.43-4,12.31h8.23Z" transform="translate(-11.13 -131.35)"/><path d="M149.88,143.73H169c1.29,3.26-.42,5.69-2.14,8.06-3.86,5.34-7.8,10.62-11.94,16.25h14.59v4.5H148.58c-1-2.61.25-4.57,1.62-6.46,4.2-5.82,8.46-11.61,12.91-17.7H150A8.57,8.57,0,0,1,149.88,143.73Z" transform="translate(-11.13 -131.35)"/><path d="M11.13,144.14c5,.32,9.95-.46,14.81.53,4.21.86,6.32,3.41,6.55,7.68.27,5-2.84,7.61-6.18,8.62s-6.57.27-10.1.61V172.4a17.09,17.09,0,0,1-5.08.23Zm5,12.75c2.61,0,5,.1,7.47,0a3,3,0,0,0,3.11-3c.14-1.83.37-3.64-1.84-4.72-2.85-1.39-5.73-.69-8.74-.8Z" transform="translate(-11.13 -131.35)"/><path d="M178.15,168.16h14.27v4.38H172c-1.57-4.35,1.64-6.81,3.61-9.66,3.32-4.81,6.82-9.49,10.48-14.57H172.71v-4.49h19.4c0,2.25.51,4.27-1.19,6.4-4.07,5.11-7.78,10.5-11.61,15.8A21,21,0,0,0,178.15,168.16Z" transform="translate(-11.13 -131.35)"/><path d="M42.1,160.33v8.23h13v3.93h-18V144.36h18v3.83H42.21v7.64H52.55v4.5Z" transform="translate(-11.13 -131.35)"/><path d="M103,144.27H107c-.19,7.75.65,15.46-.57,23.07-.76,4.7-6.49,6.34-11,5.7-6.15-.87-8.1-3.39-8.1-9.73V144.36h5.09q0,9.46,0,19c0,1.82.26,3.5,2,4.56s3.7,1.69,5.89.34a5.45,5.45,0,0,0,2.76-5c.06-5.42,0-10.84,0-16.26Z" transform="translate(-11.13 -131.35)"/><path d="M11.56,139a6,6,0,0,1,.16-2.78h91.51c.59.82.26,1.73.23,2.78Z" transform="translate(-11.13 -131.35)"/><path d="M108.86,139.58,107,134.69c13.14-4.8,26.15-4.32,39.26.8a13.61,13.61,0,0,1-2.27,5.26C132.48,135.56,120.74,136.42,108.86,139.58Z" transform="translate(-11.13 -131.35)"/><path d="M250.72,143.76h4.76v28.79h-4.76Z" transform="translate(-11.13 -131.35)"/></svg>