<svg id="Camada_1" data-name="Camada 1" xmlns="http://www.w3.org/2000/svg" viewBox="0 0 271.85 238.98"><defs><style>.cls-1{fill:#e7bd53;}.cls-2{fill:#edde7e;}.cls-3{fill:#c5521e;}.cls-4{fill:#f4e999;}.cls-5{fill:#d8a538;}.cls-6{fill:#bf912a;}.cls-7{fill:#e6bc56;}.cls-8{fill:#c47058;}.cls-9{fill:#dc9e8e;}.cls-10{fill:#644524;}.cls-11{fill:#fbf4ef;}.cls-12{fill:#ab5643;}</style></defs><title>bacon</title><path class="cls-1" d="M81.29,317.87s91-34.31,131.2-52.12,79.39-39.13,81.07-43.52-103.12-59.82-111-62.72-56-28.68-70.13-36.44S86.18,112.71,81.1,112.34,42,152.76,43.53,192.85,49.56,307.89,81.29,317.87Z" transform="translate(-21.74 -92.99)"/><path class="cls-2" d="M94.42,307.72s74.8-28.21,110.89-44.17,72.68-39,74.2-43-94-49.68-101-52.28-50.21-25.71-62.88-32.67S92.08,126.35,87.52,126s-18.74,33.89-17.39,69.84S74.49,289.9,94.42,307.72Z" transform="translate(-21.74 -92.99)"/><path class="cls-3" d="M79.81,116.15c3.58.86,1.61,6.5.91,8.62-1.29,3.87-2.63,8-6.31,10.19-2.68,1.6-5.18,2.58-6.61,5.59-1.53,3.21-2.28,7.17-3,10.63-1.46,6.92-.17,12.76.64,19.6.45,3.74-.55,6-2.67,9-1.95,2.77-3.48,5.55-3.59,9a26.67,26.67,0,0,0,1.37,8,30.5,30.5,0,0,1,1,10.8,70.5,70.5,0,0,0,1.65,20.77c1.53,7.15,2.5,13.76,1.8,21.08a37.72,37.72,0,0,0,0,10.29c.63,3.46,2,6.71,3,10.08,2.12,7.59,1.06,15.72,3.94,23.15,1.62,4.17,4.54,7.57,6.61,11.49A15.51,15.51,0,0,1,80,315.05c-.44,2.57,3,3.63,4.49,1.79,4.25-5.24,1.39-12.51-1.64-17.65-2.08-3.52-4.53-6.83-5.59-10.85s-1.1-8.28-1.52-12.4a34,34,0,0,0-.75-4.36,2.73,2.73,0,0,0,.81,0,2.94,2.94,0,0,0,2.22-1.73c1.08-2,.83-5.4-1.22-6.7A2.58,2.58,0,0,0,74,263a2.3,2.3,0,0,0-1,1.15l0,0a33.17,33.17,0,0,1-1.61-10.76c.19-3.67.81-7.28.74-11a65.27,65.27,0,0,0-1.53-11.89c-.72-3.52-1.55-7-2.06-10.59a59.07,59.07,0,0,1,0-12.75,30.88,30.88,0,0,0-.58-9.59c-.76-3.14-2.48-6.93-1.56-10.19,1-3.5,4.33-6,5.5-9.53a19.91,19.91,0,0,0,.39-9.18c-.52-3.5-1.49-6.93-1.33-10.5a51.36,51.36,0,0,1,2.41-12.08c1-3.27,2.15-3.7,4.87-5.28a15.78,15.78,0,0,0,4.26-3.59c2.58-3.15,4-7.19,5.18-11,1.93-6.24,1.69-16.11-7-16.46A3.19,3.19,0,0,0,79.81,116.15Z" transform="translate(-21.74 -92.99)"/><path class="cls-3" d="M68.38,190.89c.09,1.92,2.38,3,4,2.3a5.08,5.08,0,0,0,3.1-5.2,3.2,3.2,0,0,0-4.3-3.13C68.81,185.8,68.28,188.64,68.38,190.89Z" transform="translate(-21.74 -92.99)"/><path class="cls-3" d="M69.09,199.53a2.21,2.21,0,1,0,.38-3.11A2.24,2.24,0,0,0,69.09,199.53Z" transform="translate(-21.74 -92.99)"/><path class="cls-3" d="M78.26,273a1.84,1.84,0,0,0,2.91-2.26A1.84,1.84,0,0,0,78.26,273Z" transform="translate(-21.74 -92.99)"/><path class="cls-4" d="M96.6,300.91c-4.62.47-9.13-22.8-11.69-32s2.18-52.39-1.11-59.4-3.59-30.23-.61-42.8,11.08-27.87,14.93-28.85,35.59,8.69,46.3,18.42,64.61,35,78.76,42.44,32.38,17.76,33.65,23.11-32.6,22.87-42.39,25.41-39.07,11.63-49.35,16.6S114.89,299.07,96.6,300.91Z" transform="translate(-21.74 -92.99)"/><path class="cls-5" d="M52.5,330.5c-4.87-1.88-25.47-41.29-30-101.59S33.72,110,48,97.16s40.24,7.14,39.89,16.29-17.64,31.24-18.63,35.41-7.18,47.81-4.1,59.94,4.71,29.37,1.28,41.65c-1.65,2.07,8.34,35.93,12.38,46.22s6,15.61,4.64,22.72S65.69,335.56,52.5,330.5Z" transform="translate(-21.74 -92.99)"/><path class="cls-6" d="M68.41,148.19s-.37-.23-1-.66l-2.35-1.69c-.46-.35-1-.68-1.52-1.07s-1.13-.72-1.67-1.16-1.17-.8-1.8-1.16-1.23-.78-1.86-1.17-1.24-.78-1.89-1.1l-1.86-1.05c-.62-.3-1.21-.66-1.78-1s-1.12-.59-1.64-.87l-1.43-.75c-.43-.23-.81-.45-1.13-.61l-1-.59,1.15-.3a9.84,9.84,0,0,1,1.33-.19,9.68,9.68,0,0,1,1.73,0,12.57,12.57,0,0,1,2,.2,13.51,13.51,0,0,1,2.23.52,14.63,14.63,0,0,1,2.3.87c.76.35,1.49.78,2.24,1.19s1.41.95,2.06,1.48,1.22,1.13,1.79,1.68a16.39,16.39,0,0,1,1.46,1.76,12.1,12.1,0,0,1,1.1,1.73,10.57,10.57,0,0,1,.76,1.56,8.34,8.34,0,0,1,.44,1.26C68.34,147.77,68.41,148.19,68.41,148.19Z" transform="translate(-21.74 -92.99)"/><path class="cls-6" d="M65.36,205.06s-.34.06-.9.1-1.33.09-2.21.1c-.44,0-.91.05-1.4,0s-1,.05-1.51,0-1,0-1.58,0-1.08,0-1.61-.05-1.08-.06-1.62-.06-1.06,0-1.57-.08-1-.07-1.5-.11-1-.08-1.39-.14c-.87-.09-1.64-.22-2.2-.31l-.9-.2.65-.66a8.82,8.82,0,0,1,1.93-1.34,7.93,7.93,0,0,1,1.41-.64,8.55,8.55,0,0,1,1.65-.49,9.86,9.86,0,0,1,1.82-.27c.62,0,1.26,0,1.89,0s1.27.11,1.88.21,1.21.3,1.78.45a12.11,12.11,0,0,1,1.6.63,9.51,9.51,0,0,1,1.35.74,9.06,9.06,0,0,1,1.83,1.47A7.43,7.43,0,0,1,65.36,205.06Z" transform="translate(-21.74 -92.99)"/><path class="cls-6" d="M63,254.77s-.11.34-.35.9a9.85,9.85,0,0,1-1.3,2.12A9.34,9.34,0,0,1,60.24,259a13.72,13.72,0,0,1-1.38,1.21c-.53.35-1.06.74-1.64,1.08s-1.21.59-1.83.88-1.28.44-1.93.61a11.08,11.08,0,0,1-1.93.36,9.54,9.54,0,0,1-1.84.06,7.8,7.8,0,0,1-1.64-.16,9.25,9.25,0,0,1-2.4-.71l-.86-.44.86-.45c.53-.25,1.28-.61,2.14-1,.43-.18.88-.38,1.36-.56s1-.42,1.49-.58,1-.43,1.56-.61,1.07-.4,1.6-.61,1.09-.39,1.6-.62,1.07-.39,1.58-.59,1-.36,1.5-.58,1-.34,1.38-.52c.87-.33,1.64-.59,2.2-.78S63,254.77,63,254.77Z" transform="translate(-21.74 -92.99)"/><path class="cls-6" d="M61.77,324.88s.32-.29.87-.74c.28-.21.61-.48,1-.79s.79-.62,1.23-1,.9-.77,1.4-1.16,1-.89,1.51-1.3,1-.9,1.53-1.42,1-1,1.55-1.47,1-1,1.49-1.53L73.75,314c.42-.53.9-1,1.31-1.48s.82-.94,1.19-1.37c.77-.88,1.41-1.63,1.86-2.16l.78-.85.06,1.17a9.44,9.44,0,0,1-.08,1.32,9.65,9.65,0,0,1-.32,1.68,10.63,10.63,0,0,1-.64,1.93,13.14,13.14,0,0,1-1,2,15.11,15.11,0,0,1-1.37,2c-.51.66-1.1,1.26-1.67,1.88s-1.25,1.12-1.92,1.61-1.38.89-2,1.3a16.29,16.29,0,0,1-2.06.94,11.39,11.39,0,0,1-1.93.59,9.81,9.81,0,0,1-1.68.3,9.44,9.44,0,0,1-1.32.08C62.18,324.93,61.77,324.88,61.77,324.88Z" transform="translate(-21.74 -92.99)"/><path class="cls-7" d="M75.71,306.46c-3.23,7.69-9.84,19.5-21.06,14.74S34,283.88,36.51,275.8s19.21-15.39,24.56-10.49,18.14,33,14.64,41.15" transform="translate(-21.74 -92.99)"/><path class="cls-7" d="M63.13,169.54c-1.92,13.61-5.31,28.61-14.51,31.6s-19-8-18.43-26.69S42.88,140.89,52,143,65.24,154.54,63.13,169.54Z" transform="translate(-21.74 -92.99)"/><path class="cls-7" d="M77.86,125.9c-5.29,9-9.32,12-12.53,11s-19.39-3.1-17.81-14.64,9.17-24.51,18.82-23.36,12.89,9.16,14.76,13.4S79.63,122.9,77.86,125.9Z" transform="translate(-21.74 -92.99)"/><path class="cls-2" d="M138,236.89a4,4,0,0,0,2.41,4.07c2.62,1.19,4.87.45,7.29-.83,1.77-.93,5-2.25,6.36-3.74l.43-.18c.94.84,2.12,1.59,3.09,2.37a70.59,70.59,0,0,1,5.73,5c3.69,3.67,5.91,8.15,7.68,13,1.52,4.14,2.17,10.41,5.82,13.17a3.62,3.62,0,0,0,5-.74c3-4.93-.69-13.11-2.41-18.19-2.19-6.45-5.32-12.45-10.19-17.29-3.69-3.67-10.23-10.62-16-9.3-3.09.71-5.9,3.14-8.53,4.85C141.69,231.07,138.21,232.88,138,236.89Z" transform="translate(-21.74 -92.99)"/><path class="cls-2" d="M84.43,218.73c-3.61,3.59-2.5,8-.5,12.21,2.26,4.72,5.86,8.61,8.14,13.3a39.22,39.22,0,0,1,3.79,14.85c.26,4,4.12,5,7,3.68a102.17,102.17,0,0,0,14-.31c2-.12,3.42-2,3.79-3.82,1.67-8.4-.61-16.64-4.78-24a95.23,95.23,0,0,0-7.91-11.29,21.47,21.47,0,0,1-2.92-4.24c-.67-1.52-.46-3-.76-4.6A4.54,4.54,0,0,0,98.07,211C93.48,212.82,88,215.2,84.43,218.73ZM102.69,233c4.7,6.27,8.82,13.48,9.2,21.39-2.1.39-4.18.8-6.25,1.32a47.83,47.83,0,0,0-7.9-21.49c-1.84-2.74-5.65-6.11-6.73-9.47a8.84,8.84,0,0,1,.89-.74A33.61,33.61,0,0,1,95,222l.21-.11C96.93,226,100.5,230.06,102.69,233Z" transform="translate(-21.74 -92.99)"/><path class="cls-2" d="M134.86,184.33c-4-.39-5.86,3.82-3.92,6.9,2.09,3.3,4.35,6.5,6.51,9.74,2,3,3.67,6.64,6.74,8.71a3.36,3.36,0,0,0,2,.61c1.41,1.44,3.75,2.24,5.54,1.22a257.6,257.6,0,0,0,32-21.44c2.27-1.78,2.18-4.53.84-6.82-4.23-7.24-8.61-14.41-12.84-21.66-1.8-3.09-5.37-3.79-7.86-1C156.64,168.71,147.86,185.6,134.86,184.33Zm9.91,11.85q-1.35-2.28-2.84-4.52c10.67-3.13,17.55-11.85,24.76-20.47,2.56,4.57,5.1,9.15,7.68,13.72a258.41,258.41,0,0,1-26.23,17.2A61.07,61.07,0,0,0,144.77,196.18Z" transform="translate(-21.74 -92.99)"/><path class="cls-2" d="M101.26,148.34c-2.12,5.21-2.25,10.65-3,16.15-.82,6.46-3.74,10.37-8.76,14.4-2.37,1.9-2.57,5.93.09,7.74a38.78,38.78,0,0,0,7.87,4.17,4.68,4.68,0,0,0,6.24-2.92c4.59-1.4,8.32-6.71,10.44-10.52a35.33,35.33,0,0,0,3.14-8c.78-2.82,1.31-6,3.7-7.89a4.66,4.66,0,0,0-.09-7.33,64.5,64.5,0,0,0-13.5-8.47A4.83,4.83,0,0,0,101.26,148.34ZM104.78,178c-.93,1.4-2.1,2.66-3.14,4a4.77,4.77,0,0,0-.52-.22l-.3-.13a25.81,25.81,0,0,0,6.23-11.53c1-4.26.93-8.72,1.64-13,1,.58,2,1.18,3,1.81-1.7,3.2-2.38,6.83-3.27,10.6A25.66,25.66,0,0,1,104.78,178Z" transform="translate(-21.74 -92.99)"/><path class="cls-2" d="M105.08,286.82c-1.29,3.65,2.41,7.79,4.41,10.55a5,5,0,0,0,5.83,1.54,5,5,0,0,0,2.08-1.63c1.15-1.64,1.46-4.44-.07-6-.53-.55-1.22-1.18-1.89-1.85l1-.58c.21-.12,2.44-1.14,3.9-1.84l.22.23a16,16,0,0,0,2,2,19.68,19.68,0,0,0,4.65,3.56c2.7,1.46,5.79-2.06,4.57-4.64a26.52,26.52,0,0,0-7.39-9.14c-3.27-2.41-7.15-.36-10.31,1.18C111.17,281.54,106.25,283.5,105.08,286.82Z" transform="translate(-21.74 -92.99)"/><path class="cls-2" d="M220.53,195.45c-3.64,3.84-4.45,10-5.58,15a38.37,38.37,0,0,1-2.59,8.36c-1.15,2.34-3.21,3.8-4.53,5.94-3.24,5.23,2.67,9.94,6.23,13,4.25,3.66,9.92,7.71,15.77,7.19a2.83,2.83,0,0,0,2.53-2c9.27-3.57,10.25-17.41,9.56-25.63a12.45,12.45,0,0,1,.93-6.66c1-2.19,2.17-3.68,1.77-6.26-.77-5.11-8.54-8-12.78-9.76a5,5,0,0,0-4.74.47A4.49,4.49,0,0,0,220.53,195.45Zm10.74,26.4a28.93,28.93,0,0,1-.79,9.08c-.46,1.79-1.22,3.49-1.78,5.25-2.57-2.18-5.66-4-8.11-6.08-.8-.7-1.6-1.4-2.36-2.13.85-1.23,1.61-2.5,1.8-2.83a43.3,43.3,0,0,0,4.33-12.33c.68-3,1.59-5.83,2.49-8.7a60.82,60.82,0,0,0,5.38,3,21.56,21.56,0,0,0-1.31,4.73C230.37,215.2,231,218.46,231.27,221.85Z" transform="translate(-21.74 -92.99)"/><path class="cls-1" d="M151.43,235.55a2.68,2.68,0,0,0,2.22,2.2c1.38.38,3.26-.08,4.75.11a11.54,11.54,0,0,1,4.59,1.41,13.72,13.72,0,0,1,5.66,7.53c.94,2.6,1.09,5.53,2.13,8.07a.66.66,0,0,0,0,.14c.44,2.35,2.47,4,3.58,6.06,1.19,2.23.67,4.48.81,6.89.11,1.81,2.59,1.81,3.25.4a11.18,11.18,0,0,0,.52-8.4,14.89,14.89,0,0,0-4.22-6.25c.68-5.2-1.73-11.53-4.84-15.32-3.92-4.76-10.24-6.63-16.25-5.72A2.6,2.6,0,0,0,151.43,235.55Z" transform="translate(-21.74 -92.99)"/><path class="cls-1" d="M159.6,197.88c-3.64,2-7.53,3.63-11,5.81-.63.39-3.05,2.22-1.62,3.23,2.85,2,7.12-1.39,9.76-2.68,4.6-2.25,9.15-4.63,13.61-7.14,5.06-2.85,15.93-8.06,12.6-15.67-.89-2-3.48-1.37-3.94.54-.5,2.06-.57,3.71-2.15,5.33a24.15,24.15,0,0,1-5.07,3.54C167.74,193.26,163.7,195.63,159.6,197.88Z" transform="translate(-21.74 -92.99)"/><path class="cls-1" d="M234.84,217.52c.56,4,1.06,7.94-.33,11.88s-4.22,5.68-6.77,8.65a1.58,1.58,0,0,0,1.07,2.49c6.75.07,10.66-8.17,11.52-13.9.55-3.71-.13-7.37-.55-11A18.07,18.07,0,0,1,240,209c.5-1.91,1.76-3.23,2.08-5.18a2,2,0,0,0-2.2-2.18C233.44,203,234.16,212.66,234.84,217.52Z" transform="translate(-21.74 -92.99)"/><path class="cls-1" d="M110.22,167.74c-1.81,6.66-8.13,10.49-11.51,16-.88,1.45.38,3.51,2.15,2.76,4.8-2,9-7.65,11.74-11.93a20.27,20.27,0,0,0,2.83-5.89c.83-3.28.12-5.9,2.26-8.81a2.13,2.13,0,0,0-2-3.34C109.92,157.19,111.32,163.72,110.22,167.74Z" transform="translate(-21.74 -92.99)"/><path class="cls-1" d="M94.87,218.27c-.53,7.16,7.46,11.24,11.22,16.28a45.66,45.66,0,0,1,5.27,10c1.49,3.61,1.65,7.13,2.63,10.77a2,2,0,0,0,3.77.47c2.92-5.71-1.76-14.94-4.43-20a35,35,0,0,0-6.59-8.71c-3.18-3.1-5.94-6.46-9-9.64C96.86,216.55,95,216.75,94.87,218.27Z" transform="translate(-21.74 -92.99)"/><path class="cls-8" d="M242.91,202.92s-6.62,6.22-5.25,13.38c2.52,13.23-5.83,23.45-8.1,25s-18-11.67-18.32-13.66,6.68-6.45,8.7-11.73,1-17.08,6.51-21.4C226.45,194.49,236.6,196.72,242.91,202.92Z" transform="translate(-21.74 -92.99)"/><path class="cls-8" d="M178.86,269.11a21.45,21.45,0,0,0-4.61-12.73s-1.3-12.59-6.9-17.37a66.92,66.92,0,0,0-13.13-8.31S133.7,243.24,133.67,244c0,0,14.73,6.81,17.16,9.87s4.42,16.08,9.24,21.47C160.07,275.35,174.28,271.44,178.86,269.11Z" transform="translate(-21.74 -92.99)"/><path class="cls-8" d="M118,256.11s-15.73,6.71-17.72,5.78-1.69-14.75-4.87-18.7-10.61-13.49-9.78-19.08c0,0,11.08-9.88,12.76-10,0,0,.41,8.58,4.82,13.05a59.08,59.08,0,0,1,11.41,16.32A42.25,42.25,0,0,1,118,256.11Z" transform="translate(-21.74 -92.99)"/><path class="cls-8" d="M145.57,208.38S134,190,133.18,187.88c0,0,16.65-6.2,19.58-9s13.11-15.48,14.47-15.79,17,16.89,16.69,20.12-10,10.56-13.37,11.57S149.35,208.15,145.57,208.38Z" transform="translate(-21.74 -92.99)"/><path class="cls-8" d="M100.57,187s-7.27-3-7.69-4.64c0,0,7.86-11.32,8.81-16.76s-.66-11,3.06-15.74c0,0,12.47,6.6,13.5,8,0,0-4.93,3.6-4.86,7.5S111.42,176.81,100.57,187Z" transform="translate(-21.74 -92.99)"/><path class="cls-8" d="M116.9,304.19s-3.31-9.88-8.68-15.82c0,0,9.59-8.22,13.62-8.15s10.64,15.28,11.71,17.37C133.55,297.59,119.71,303.09,116.9,304.19Z" transform="translate(-21.74 -92.99)"/><path class="cls-9" d="M122.61,293.48a36.67,36.67,0,0,1-8.5,4c.33.68.64,1.34.91,2,.32-.1.62-.21.93-.32l15.63-5.69c-.75-1.53-1.64-3.3-2.61-5C126.77,290,124.84,292,122.61,293.48Z" transform="translate(-21.74 -92.99)"/><path class="cls-9" d="M98.14,252.47c.09.56.16,1.12.24,1.68,3.64-1,7.4-1.52,11.08-2.34a40.31,40.31,0,0,0,7.32-2.27,38.71,38.71,0,0,0-1.93-5.54c-2.42,1.23-4.72,2.82-7,4.28C104.88,250.18,101.55,252,98.14,252.47Z" transform="translate(-21.74 -92.99)"/><path class="cls-9" d="M91.72,238.32c.27.38.54.76.81,1.12a95.49,95.49,0,0,0,13.38-9.29c-.81-1-1.64-1.86-2.47-2.72A41.4,41.4,0,0,1,91.72,238.32Z" transform="translate(-21.74 -92.99)"/><path class="cls-9" d="M154.84,264.6c.32,1,.66,2,1,2.92a117.36,117.36,0,0,1,21.49-5.77,20.72,20.72,0,0,0-1.65-3.3,17.13,17.13,0,0,1-4.78,1.85C165.55,261.72,160,262.65,154.84,264.6Z" transform="translate(-21.74 -92.99)"/><path class="cls-9" d="M147.9,249.47c-.52.37-1.07.73-1.63,1.06a19.57,19.57,0,0,1,4.56,3.35,6.63,6.63,0,0,1,.63,1,77.57,77.57,0,0,0,12-5,26.74,26.74,0,0,0,7.62-5.51,15.44,15.44,0,0,0-3.75-5.38c-1-.83-2-1.61-3-2.35C158.51,240.43,153.59,245.48,147.9,249.47Z" transform="translate(-21.74 -92.99)"/><path class="cls-9" d="M152.77,178.83h0a28.44,28.44,0,0,1-6.31,3.57l0,0a23,23,0,0,0,3.11,4.5,76.11,76.11,0,0,1,9.11,14.62c2.1-1.28,4.17-2.56,6-3.66A70.89,70.89,0,0,0,152.77,178.83Z" transform="translate(-21.74 -92.99)"/><path class="cls-9" d="M177.79,190.27c.88-.7,1.74-1.43,2.52-2.16q-9.23-9.9-17.57-20.57L160.61,170A246.33,246.33,0,0,0,177.79,190.27Z" transform="translate(-21.74 -92.99)"/><path class="cls-9" d="M102.07,171.16a11.61,11.61,0,0,1-1.93-1.13c-.66,1.44-1.47,2.95-2.29,4.41a17.92,17.92,0,0,0,2.2,1.79c2,1.33,4.17,2.26,6.06,3.69.2.16.41.33.61.51a37.51,37.51,0,0,0,4.56-7A24.46,24.46,0,0,1,102.07,171.16Z" transform="translate(-21.74 -92.99)"/><path class="cls-9" d="M102.16,158c.69.18,1.39.34,2.08.51a64.89,64.89,0,0,1,10.24,3.45,12.33,12.33,0,0,1,1.27-1.7,72.87,72.87,0,0,1-12.18-8.51A15.32,15.32,0,0,0,102.16,158Z" transform="translate(-21.74 -92.99)"/><path class="cls-9" d="M215.9,221.74c-.71.77-1.42,1.49-2.06,2.16a49.9,49.9,0,0,1,6.37,3.88c3.55,2.53,6.83,5.58,10.89,7.16a13.51,13.51,0,0,0,3,.77,30.27,30.27,0,0,0,1.83-3.65,36.43,36.43,0,0,1-10.55-4.81A96.11,96.11,0,0,0,215.9,221.74Z" transform="translate(-21.74 -92.99)"/><path class="cls-9" d="M221.34,208.63c-.25,1.87-.48,3.65-.81,5.17,4.62,2.87,8.91,6.37,14.12,7.84a13.51,13.51,0,0,0,3.46.55,27.33,27.33,0,0,0-.45-5.89,9.73,9.73,0,0,1-.18-1.76A32.89,32.89,0,0,1,221.34,208.63Z" transform="translate(-21.74 -92.99)"/><path class="cls-1" d="M88.71,292.81a4.26,4.26,0,0,0-1.31,2.64v.09a3.5,3.5,0,0,0-.58,1.54,3.59,3.59,0,0,0,.69,2.5l.06.07.21.3a3.68,3.68,0,0,0,.48.49,4.43,4.43,0,0,0,2.52,1.26,5.45,5.45,0,0,0,2.5-.33,5,5,0,0,0,1.42-.78,5.25,5.25,0,0,0,2-3.47,6,6,0,0,0,0-1.46,6.48,6.48,0,0,0-.19-.76,4.19,4.19,0,0,0-.85-1.73,5.62,5.62,0,0,0-1.93-1.45,4.61,4.61,0,0,0-2.91-.13A4.41,4.41,0,0,0,88.71,292.81Z" transform="translate(-21.74 -92.99)"/><path class="cls-1" d="M83.72,254.43l.12-.21-.14.23c-.08.14-.16.28-.24.44l0,.08.13-.23a4.67,4.67,0,0,0-.38.89,3.32,3.32,0,0,0-.31,1.43,2.43,2.43,0,0,0,.21,1.18,3.25,3.25,0,0,0,1,1.32,4.12,4.12,0,0,0,2,.88H87a2.74,2.74,0,0,0,1.3-.48,1.83,1.83,0,0,0,.74-.58,2.65,2.65,0,0,0,.78-1.14,3.51,3.51,0,0,0,.28-1.91,6.64,6.64,0,0,0-.29-1.13,3.49,3.49,0,0,0-1.43-1.72,3.31,3.31,0,0,0-1.54-.62,2.48,2.48,0,0,0-1.24.12A3.12,3.12,0,0,0,83.72,254.43Z" transform="translate(-21.74 -92.99)"/><path class="cls-1" d="M134.54,268.72a3.41,3.41,0,0,0-.26,1.2v0a3.11,3.11,0,0,0-.26,1.56,3.85,3.85,0,0,0,.84,2.55,4.79,4.79,0,0,0,1.87,1.41,4.61,4.61,0,0,0,2.35.27,5.06,5.06,0,0,0,3.27-1.93,5,5,0,0,0,1-3.62,5.3,5.3,0,0,0-2-3.39l-1-.56a3.34,3.34,0,0,0-1.67-.28,4.24,4.24,0,0,0-2.72.9A5.44,5.44,0,0,0,134.54,268.72Z" transform="translate(-21.74 -92.99)"/><path class="cls-1" d="M114.9,208.15l.13-.5a7.64,7.64,0,0,0-.39,1.53l-.09.11a4.23,4.23,0,0,0-.83,3.11,5,5,0,0,0,2,3.18,5.09,5.09,0,0,0,5,.6,6.13,6.13,0,0,0,1.78-10.43,5,5,0,0,0-4.93-.59,8.9,8.9,0,0,0-1.12.66A4.06,4.06,0,0,0,114.9,208.15Z" transform="translate(-21.74 -92.99)"/><path class="cls-1" d="M123.41,168.35a5.47,5.47,0,0,0-1.06,6.08h0a4.82,4.82,0,0,0,1.69,2.86,4.1,4.1,0,0,0,1.1.68h0a5.28,5.28,0,0,0,8.39-3.6,6.83,6.83,0,0,0-.8-4.25,7.35,7.35,0,0,0-2.23-2.38A5.47,5.47,0,0,0,123.41,168.35Z" transform="translate(-21.74 -92.99)"/><path class="cls-1" d="M192,200.21l-.65,1.16a4,4,0,0,0-.33,1.73,2.33,2.33,0,0,0-.11.28.67.67,0,0,1-.1.21,3.83,3.83,0,0,0-.31,1.85,4.92,4.92,0,0,0,.4,2,5.52,5.52,0,0,0,1.94,2.38,6.21,6.21,0,0,0,4.32,1.08,6.52,6.52,0,0,0,5.51-5.72,5.86,5.86,0,0,0-.05-1.87,5.6,5.6,0,0,0-1.14-2.7l-1.07-1a3.13,3.13,0,0,0-1-.6l0,0a5.47,5.47,0,0,0-.87-.44,6.1,6.1,0,0,0-1.52-.35,7,7,0,0,0-2.83.39l-1.19.69Z" transform="translate(-21.74 -92.99)"/><path class="cls-1" d="M184.82,244.35a5.63,5.63,0,0,0-1.07,2.64,5.83,5.83,0,0,0,.39,2.86,4.69,4.69,0,0,0,1.13,1.7c.19.21.39.42.59.62a2.39,2.39,0,0,0,.25.32,5.59,5.59,0,0,0,2.34,1.76,4.27,4.27,0,0,0,2.11.35,4.18,4.18,0,0,0,2.11-.38,5.64,5.64,0,0,0,2.35-1.83,7.14,7.14,0,0,0,.4-.71,2.76,2.76,0,0,0,.54-1.35,5.46,5.46,0,0,0,.17-2.25,6.64,6.64,0,0,0-.23-.93c-.07-.26-.14-.63-.25-.92a6.3,6.3,0,0,0-.49-.85,8,8,0,0,0-.51-.85,7.85,7.85,0,0,0-.7-.71,4.52,4.52,0,0,0-2-1.34,6.82,6.82,0,0,0-1.85-.42,7,7,0,0,0-2.89.39A6,6,0,0,0,184.82,244.35Z" transform="translate(-21.74 -92.99)"/><path class="cls-1" d="M251.75,216.77,251,218a4.27,4.27,0,0,0-.35,2.11,6.24,6.24,0,0,0,.35,2,4.51,4.51,0,0,0,.33,1.88,5.06,5.06,0,0,0,1.66,2.16,6,6,0,0,0,2.78,1.21,6.11,6.11,0,0,0,5.86-2.47,6.69,6.69,0,0,0,1.26-3.08,6.54,6.54,0,0,0-1.23-4.65,6.76,6.76,0,0,0-6.19-2.67,4.2,4.2,0,0,0-2.06.76A4.24,4.24,0,0,0,251.75,216.77Z" transform="translate(-21.74 -92.99)"/><path class="cls-1" d="M82.47,188.56a4.9,4.9,0,0,0-.84,3.25,4.39,4.39,0,0,0,1,2.38,4.32,4.32,0,0,0,3.47,1.64,3.25,3.25,0,0,0,1.65-.29,4.36,4.36,0,0,0,1.83-1.43l.06-.1a3.36,3.36,0,0,0,.7-1.55,5.17,5.17,0,0,0,.12-1.84,4.45,4.45,0,0,0-8-2.06Z" transform="translate(-21.74 -92.99)"/><path class="cls-10" d="M199.19,204c.89,1.71.57,3.26-1.84,2.5-1.94,3-4.86-.32-3.47-2.23C192,200.44,196.91,199.57,199.19,204Z" transform="translate(-21.74 -92.99)"/><path class="cls-10" d="M259.62,220.15c.88,1.71.56,3.26-1.84,2.5-1.95,3-4.87-.32-3.48-2.23C252.41,216.62,257.34,215.75,259.62,220.15Z" transform="translate(-21.74 -92.99)"/><path class="cls-10" d="M129.43,175.91c-1.16,1.07-2.4,1.87-3.08.1-4.64.15-4.16-3.52-1.93-4.43C126.83,167.72,131.84,173.71,129.43,175.91Z" transform="translate(-21.74 -92.99)"/><path class="cls-10" d="M192,250.24c-1.17,1.06-2.4,1.87-3.09.1-4.63.14-4.15-3.52-1.92-4.44C189.36,242,194.36,248,192,250.24Z" transform="translate(-21.74 -92.99)"/><path class="cls-10" d="M121.13,213.84c-1.17,1.07-2.4,1.88-3.09.1-4.63.15-4.15-3.52-1.92-4.43C118.53,205.65,123.53,211.64,121.13,213.84Z" transform="translate(-21.74 -92.99)"/><path class="cls-1" d="M156,207.32l.12-.5a8.08,8.08,0,0,0-.39,1.52l-.09.11a4.22,4.22,0,0,0-.82,3.11,5,5,0,0,0,2,3.18,5.12,5.12,0,0,0,5,.61,6.14,6.14,0,0,0,1.78-10.44,5,5,0,0,0-4.94-.59,9.54,9.54,0,0,0-1.11.66A4.05,4.05,0,0,0,156,207.32Z" transform="translate(-21.74 -92.99)"/><path class="cls-10" d="M162.19,213c-1.16,1.07-2.4,1.87-3.08.1-4.63.15-4.16-3.52-1.93-4.44C159.6,204.81,164.6,210.8,162.19,213Z" transform="translate(-21.74 -92.99)"/><path class="cls-10" d="M140.11,271.56c1,2-2,3-3,1.22-3.41-.15-3-4.09-1.17-4C136.56,266.42,141.82,270.06,140.11,271.56Z" transform="translate(-21.74 -92.99)"/><path class="cls-10" d="M87.65,257.34c1,2-2,3-3,1.22-3.41-.14-3-4.09-1.16-4C84.1,252.2,89.36,255.84,87.65,257.34Z" transform="translate(-21.74 -92.99)"/><path class="cls-10" d="M92.9,297.35c1,2-2,3-3,1.22-3.41-.14-3-4.08-1.16-4C89.35,292.21,94.61,295.85,92.9,297.35Z" transform="translate(-21.74 -92.99)"/><path class="cls-10" d="M86,191.42c1,2-2,3-3.05,1.21-3.4-.14-3-4.08-1.16-4C82.45,186.27,87.72,189.92,86,191.42Z" transform="translate(-21.74 -92.99)"/><path class="cls-1" d="M198.05,237.22a14.11,14.11,0,0,1,2.28,2.29c.67,1,1,2.24,1.72,3.17a1.38,1.38,0,0,0,2.35-.33c1.42-3.11-2.78-10.46-6.69-8.73C195.91,234.41,197.08,236.3,198.05,237.22Z" transform="translate(-21.74 -92.99)"/><path class="cls-1" d="M180.13,214.91a1.84,1.84,0,0,0,2.88-1.7,30,30,0,0,1-.41-4.24c.12-1.64.94-3,.48-4.66a2,2,0,0,0-2.1-1.21C176.23,204.2,176.67,212.62,180.13,214.91Z" transform="translate(-21.74 -92.99)"/><path class="cls-1" d="M206.73,189.11c.07,1.13,1.07,1.78,1.81,2.46,2,1.88,1.08,4.66,1.93,7a1.42,1.42,0,0,0,2.44.3,9,9,0,0,0,.86-7.65c-.71-2.1-3-5-5.51-4.11A2.08,2.08,0,0,0,206.73,189.11Z" transform="translate(-21.74 -92.99)"/><path class="cls-1" d="M240.39,238.09a5.32,5.32,0,0,0,.67,3.43c.47.68,1.37,1.29,2.16.69,1.15-.87,1.15-2.59,1.56-3.86.5-1.53,1.51-2.63,2.14-4.07,1-2.18-1.72-3.76-3.47-2.61S240.54,235.91,240.39,238.09Z" transform="translate(-21.74 -92.99)"/><path class="cls-1" d="M140.33,156c1.83,1.44,1.94,3.3,2.31,5.43a1.75,1.75,0,0,0,3.11.8c2.66-3.22.64-8.23-2.19-10.58C140.89,149.47,137.59,153.86,140.33,156Z" transform="translate(-21.74 -92.99)"/><path class="cls-1" d="M126.08,237c-.08,4.42.68,10.4,4.73,13a.78.78,0,0,0,.92-1.25c-2.46-2.26-2.21-5.38-2.19-8.44,0-1.74.6-3.7-1-4.83a1.08,1.08,0,0,0-1-.13l-.33.18A1.79,1.79,0,0,0,126.08,237Z" transform="translate(-21.74 -92.99)"/><path class="cls-1" d="M89.11,279a3.05,3.05,0,0,0,1.27,3,1.74,1.74,0,0,0,2.46-.45,22.16,22.16,0,0,1,4.09,1.39c1.86.84,3.42,2.14,5.36,2.78a.8.8,0,0,0,1-1c-1.78-4.36-7.84-6.47-12.1-7.27A1.88,1.88,0,0,0,89.11,279Z" transform="translate(-21.74 -92.99)"/><path class="cls-1" d="M79.28,157.27c1.11,1.32,2.9,1.54,4.3,2.46s2.28,2.54,3.54,3.78a1.56,1.56,0,0,0,2.74-.76c.6-4.25-6.23-10.8-10.31-7.7A1.6,1.6,0,0,0,79.28,157.27Z" transform="translate(-21.74 -92.99)"/><path class="cls-11" d="M131.79,249.94l-3.54,2.76s-8-7.89-4.9-17.9l4.31.91S125.36,243.06,131.79,249.94Z" transform="translate(-21.74 -92.99)"/><path class="cls-11" d="M102,287.79a26.17,26.17,0,0,0-11.56-5.61l-.3-4.33a46.84,46.84,0,0,1,13.11,7.34Z" transform="translate(-21.74 -92.99)"/><path class="cls-11" d="M86.22,165.25,89,163.09s-3.19-6.85-9.54-7.82l-1,3.38S84.28,160.26,86.22,165.25Z" transform="translate(-21.74 -92.99)"/><path class="cls-11" d="M201.34,243l2.82-.44s-1.25-7.85-7.39-9.47l-1.63,2S201,237.75,201.34,243Z" transform="translate(-21.74 -92.99)"/><path class="cls-11" d="M142.19,163.7l3.86-.71s-1.58-9.15-6.72-13.24l-3.08,2.4S141.46,155,142.19,163.7Z" transform="translate(-21.74 -92.99)"/><path class="cls-11" d="M179.2,214.58s-7.68-9-.43-13.39l3.22,1s-4.64,2.63-.47,11.91Z" transform="translate(-21.74 -92.99)"/><path class="cls-11" d="M209.27,198.72s1.73-6.91-5.33-11.63l3.63-.85s5,3.49,4,12.14Z" transform="translate(-21.74 -92.99)"/><path class="cls-11" d="M241.09,242.86s-3.17-8.87,3.38-12.43l3.09,1.26s-5,2.2-4.21,10.72Z" transform="translate(-21.74 -92.99)"/><path class="cls-2" d="M144.71,229.11c-12.44,4.3-16.31-19.15-8.86-21.75S152.56,226.4,144.71,229.11Z" transform="translate(-21.74 -92.99)"/><path class="cls-2" d="M97.31,208.51c5.57,3.38,9-15.25,2.62-17.39S92,205.29,97.31,208.51Z" transform="translate(-21.74 -92.99)"/><path class="cls-2" d="M119.34,278c6-.57,3.76-15.77-4.5-15.44S112.46,278.68,119.34,278Z" transform="translate(-21.74 -92.99)"/><path class="cls-2" d="M126.2,197.26c3.66-.2,3.7-6.83.13-7S122.54,197.46,126.2,197.26Z" transform="translate(-21.74 -92.99)"/><path class="cls-2" d="M191.13,229.89a5.88,5.88,0,0,1-9.48-6.55C184,217.47,193,228.23,191.13,229.89Z" transform="translate(-21.74 -92.99)"/><path class="cls-2" d="M97.87,142.55c-5.62,1.65-10.19-8.88-4.5-10.67S105.35,140.34,97.87,142.55Z" transform="translate(-21.74 -92.99)"/><path class="cls-1" d="M112.34,266.81c.08.93.2,2.27,1.11,2.8a1.41,1.41,0,0,0,1.66,0c1-.81.83-2.12.73-3.25a1.78,1.78,0,0,0-2-1.52A1.81,1.81,0,0,0,112.34,266.81Z" transform="translate(-21.74 -92.99)"/><path class="cls-1" d="M70.49,216.3a5,5,0,0,0-.55,3.34,9.54,9.54,0,0,0,.7,2.73,1.17,1.17,0,0,0,2.15,0c.24-.88.48-1.72.68-2.62a5.47,5.47,0,0,0,.15-3.05A1.83,1.83,0,0,0,70.49,216.3Z" transform="translate(-21.74 -92.99)"/><path class="cls-1" d="M74,194c-1.18,1.26-1,3.52-.63,5.07a8.23,8.23,0,0,0,.93,2.25A6.82,6.82,0,0,0,76,203.16c1,.86,2.06-.42,1.79-1.39a13.93,13.93,0,0,1-.36-3.53c0-1.32.34-2.5,0-3.8C77,192.83,74.93,193.07,74,194Z" transform="translate(-21.74 -92.99)"/><path class="cls-1" d="M73.28,166.62a6.24,6.24,0,0,0,.58,2.82,1.24,1.24,0,0,0,2.26,0c.13-.32.19-.66.32-1s.27-.66.38-1a4.75,4.75,0,0,0,.46-2.67,1.72,1.72,0,0,0-2.72-1.11A3.46,3.46,0,0,0,73.28,166.62Z" transform="translate(-21.74 -92.99)"/><path class="cls-1" d="M141.39,224.38a6.89,6.89,0,0,0,.71,2.21c.11.24.15.28.11.15s0-.1.2.31a1.78,1.78,0,0,0,.72.52,1.47,1.47,0,0,0,1.42-.14,1.75,1.75,0,0,0,.64-.78c.08-.44.12-.53.1-.29a3.18,3.18,0,0,0,.14-.61c.09-.46.1-.93.16-1.39a2.17,2.17,0,0,0-1-2.08,1.7,1.7,0,0,0-2.17,0A2.15,2.15,0,0,0,141.39,224.38Z" transform="translate(-21.74 -92.99)"/><path class="cls-1" d="M91.65,134.77a3.5,3.5,0,0,0,0,1.73h0a2.22,2.22,0,0,0,.09.37c.07.26.17.5.24.75a1.59,1.59,0,0,0,1.66,1A1.64,1.64,0,0,0,95,137.23l.08-.16,0-.1a2.83,2.83,0,0,0,.2-.28,4.61,4.61,0,0,0,.38-.65c-.11.21-.1.2,0,0a2.51,2.51,0,0,1,.25-.32c-.3.3-.2.2.28-.29a7.52,7.52,0,0,0,.52-1,2.07,2.07,0,0,0-.49-2.25,2.12,2.12,0,0,0-2.25-.45A4,4,0,0,0,91.65,134.77Z" transform="translate(-21.74 -92.99)"/><path class="cls-1" d="M75.49,143.75a10.14,10.14,0,0,0-.9,3.1,5.08,5.08,0,0,0,.18,3,1.54,1.54,0,0,0,2,.83c1.86-1,3-3.77,3.26-5.81a2.37,2.37,0,0,0-1.76-2.55A2.4,2.4,0,0,0,75.49,143.75Z" transform="translate(-21.74 -92.99)"/><path class="cls-1" d="M225.66,245.12l0,.16a4.15,4.15,0,0,0-.11.48,5.93,5.93,0,0,0,0,1.19,3.81,3.81,0,0,0,0,.59v.35l.06.23h0l.09.33a1.81,1.81,0,0,1-.09-.31,2,2,0,0,0,1,1.65,2,2,0,0,0,2.21-.15l.28-.3a4,4,0,0,0,1.27-2.41,3.68,3.68,0,0,0-.76-2.92,2.25,2.25,0,0,0-2.36-.77A2.31,2.31,0,0,0,225.66,245.12Z" transform="translate(-21.74 -92.99)"/><path class="cls-1" d="M225.66,248.14h0Z" transform="translate(-21.74 -92.99)"/><path class="cls-12" d="M173.12,250.34s-17,9.34-19.92,9.16l-.66-1.94s15.35-5.57,19.83-9.84Z" transform="translate(-21.74 -92.99)"/><path class="cls-12" d="M151.68,205.7s-9.14-16.39-11.73-20.39l3.52-1.52s10,18.88,11.27,20.14Z" transform="translate(-21.74 -92.99)"/><path class="cls-12" d="M176.55,191.22s-16.61-17.49-17.13-19.87l-1.49,1.72s14.81,18.09,16.31,19.76C174.24,192.83,176.16,191.51,176.55,191.22Z" transform="translate(-21.74 -92.99)"/><path class="cls-12" d="M240.75,205.45s-12.64-8.3-16.41-8.5a13.22,13.22,0,0,0-1.23,2.69s12.71,5.13,16.22,8.05C239.33,207.69,240.2,206.18,240.75,205.45Z" transform="translate(-21.74 -92.99)"/><path class="cls-12" d="M113.22,167.59s-9.3-2.83-11.32-3.57c0,0,.13-1.85.16-3,0,0,9.78,4.14,11.33,4.39C113.39,165.38,113.34,166.93,113.22,167.59Z" transform="translate(-21.74 -92.99)"/><path class="cls-12" d="M105.91,181.41S98,177.09,97,175.89l-.88,1.46,9,5Z" transform="translate(-21.74 -92.99)"/><path class="cls-12" d="M97.3,247.84s11-5.36,15.24-8.38c0,0-1.65-2.82-2.76-4.35,0,0-13.47,7-14.86,7.43a15.08,15.08,0,0,1,1.51,2.6A12.16,12.16,0,0,1,97.3,247.84Z" transform="translate(-21.74 -92.99)"/><path class="cls-12" d="M90.93,237.19S98.3,231,102,225.7a10.22,10.22,0,0,1-1.45-2.61,142,142,0,0,1-10.37,13S90.69,236.86,90.93,237.19Z" transform="translate(-21.74 -92.99)"/><path class="cls-12" d="M113,295.34s10-5.94,14.38-9.63l-1.15-1.78s-10.82,6.73-14.93,8.51C111.28,292.44,112.46,294.35,113,295.34Z" transform="translate(-21.74 -92.99)"/><path class="cls-7" d="M36.36,283.13s-9.26-26.88-10.06-51,2.54-47.91,6.05-50.92,21.46-22.83,26.39-20.59,3.78,20.24,1.11,26.09S39,198.09,39.52,202.58s9.51,3.82,17.1,13.29,5.47,27.84-2.62,34.2-13.73,9.27-12.85,12.3c.42,1.44,5.3-1.49,13.16,8.59C57.3,274.8,38.59,282.23,36.36,283.13Z" transform="translate(-21.74 -92.99)"/></svg>