<svg id="Camada_1" data-name="Camada 1" xmlns="http://www.w3.org/2000/svg" viewBox="0 0 258.5 224.41"><defs><style>.cls-1{fill:#e7bd53;}.cls-2{fill:#edde7e;}.cls-3{fill:#c5521e;}.cls-4{fill:#f4e999;}.cls-5{fill:#d8a538;}.cls-6{fill:#8b6c22;}.cls-7{fill:#bc3218;}.cls-8{fill:#c64b3a;}.cls-9{fill:#e6bfc5;}.cls-10{fill:#bf912a;}.cls-11{fill:#e6bc56;}</style></defs><title>calabresa </title><path class="cls-1" d="M90.7,283.91s81.72-41.83,117.61-62.81S278.68,176,279.8,171.68,176.68,126.45,169,124.56s-55.59-21-69.68-26.77-25.73-7-30.54-6.75S36.38,133.1,42,170.57,59.87,277.9,90.7,283.91Z" transform="translate(-21.31 -75.05)"/><path class="cls-2" d="M102,273s67.22-34.4,99.39-53.2,64.09-44.31,65.09-48.17S173,135,166.09,133.25s-49.84-18.81-62.47-24S80.55,103,76.24,103.19s-14,33.8-8.93,67.39S81.36,258.37,102,273Z" transform="translate(-21.31 -75.05)"/><path class="cls-3" d="M71.75,92.78a4.87,4.87,0,0,0-.68.2,2.81,2.81,0,0,0-1.61,3,6.82,6.82,0,0,1,.17,1.25,10.45,10.45,0,0,0-1.53-1.61c-1.71-1.47-4.31.39-4,2.44.39,2.4,1.23,4.59,1.1,7.06a22.59,22.59,0,0,1-1.86,7.27c-2.32,5.72-5.57,11.06-6,17.37-.34,5.41-.14,11-.21,16.41a43.13,43.13,0,0,0,.43,8.46c-.59,3.95,1.89,8.65,2.84,12.25,1.52,5.82-.27,11.7,1.27,17.5,1.41,5.3,3.82,10,4.42,15.5s.22,11.36.41,17c.39,11.43,4.9,20.72,10.07,30.68,2.91,5.59,5.42,11.38,7.84,17.2a87,87,0,0,1,3.31,9c.81,2.79.8,6.13,2.76,8.36a1.7,1.7,0,0,0,2.88-.45c2.09-4.2-1-11.47-2.56-15.58-1.83-4.95-3.91-9.87-6.14-14.68a2.66,2.66,0,0,0,1.58,0,2.58,2.58,0,0,0,1.15-.7,2.5,2.5,0,0,0,.75-1.57,4.3,4.3,0,0,0-.3-1.7,3.39,3.39,0,0,0-.46-.72,2.81,2.81,0,0,0-1.53-1.63,2.5,2.5,0,0,0-1.48-.15,2.78,2.78,0,0,0-1.25.56,2,2,0,0,0-.66.83,1.22,1.22,0,0,0-.1.24c-2.22-4.41-4.65-8.73-6.6-13.28a46.34,46.34,0,0,1-3.68-17.69c-.11-5.38.18-10.77-.34-16.14s-2.57-10.15-4.22-15.35a22.46,22.46,0,0,1-.81-7.23l0,.07a3,3,0,0,0,2.83,1.08A2.92,2.92,0,0,0,72,176.22a6,6,0,0,0,.2-2.94,4.77,4.77,0,0,0-1.67-2.94,2.85,2.85,0,0,0-3.65.3,20.87,20.87,0,0,0-.45-3.58c-.51-2.3-1.27-4.53-2-6.78,3.11-1.56,5.07-6.59,4.57-9.63a11.34,11.34,0,0,0-2.66-5.17c-1-1.27-2-2.7-3.07-3.94.48-5.66-.45-11.39,1.45-16.84,1.66-4.77,5.68-11.55,6.76-17.85,2.67-3.19,4.44-8.07,3.46-11.78C74.59,93.73,73.31,92.36,71.75,92.78Z" transform="translate(-21.31 -75.05)"/><path class="cls-3" d="M69.93,138.7a2.71,2.71,0,0,0-1.44,0,2.65,2.65,0,0,0-1.45.56,2.57,2.57,0,0,0-.94,2.46.5.5,0,0,0,0,.13A3.78,3.78,0,0,0,67,144.6a2.43,2.43,0,0,0,.83.67s0,0,0,0a2.52,2.52,0,0,0,3.93-.09,4.43,4.43,0,0,0-.35-5.59A3,3,0,0,0,69.93,138.7Z" transform="translate(-21.31 -75.05)"/><path class="cls-3" d="M94.46,265.75a2.16,2.16,0,0,0-2.3,1.91,2,2,0,0,0,1.75,2.12,2,2,0,0,0,.49,0,1.66,1.66,0,0,0,.61-.08,1.87,1.87,0,0,0,1.35-1.61,2.38,2.38,0,0,0-.45-1.51A2.08,2.08,0,0,0,94.46,265.75Z" transform="translate(-21.31 -75.05)"/><path class="cls-4" d="M103.28,266.37c-4.3.93-11-20.43-14.36-28.76s-3.5-49.4-7.33-55.63-6.57-28-5.11-40.1,7.46-27.33,11-28.66,34.32,4.39,45.41,12.39,64.34,26,78.41,31.49,32.27,13.24,34,18.13-28.18,24.91-37.1,28.33-35.44,15.05-44.56,20.81S120.24,262.71,103.28,266.37Z" transform="translate(-21.31 -75.05)"/><path class="cls-1" d="M100.6,169.62c-11.17.41-26.42,9.65-24.7,22.58.24,1.81,2.56,1.72,3.26.33,2.65-5.26,4.89-10.26,9.92-13.71a23.37,23.37,0,0,1,17.4-3.3c12.53,2.26,21.43,13,25,24.71,1.85,6.11,2.35,12.77-.3,18.72a37.51,37.51,0,0,1-12,14.41,28.71,28.71,0,0,1-17.1,5.86c-6.76,0-11.56-2.87-17.08-6.33-.87-.55-2.26.29-1.69,1.36,5.13,9.74,19.64,11.31,29.06,8.3,10.84-3.46,21.33-13.15,24.9-24.08,3.61-11.08-.52-23.95-7-33.18C123.59,175.68,112.51,169.18,100.6,169.62Z" transform="translate(-21.31 -75.05)"/><path class="cls-1" d="M128.26,114.23c-8.58,17.35-1.91,42.4,17.16,49.24,18.72,6.71,37.69-4.83,44.84-22.38,1.37-3.38-3.92-5.41-5.3-2-6,14.85-22.16,25-38,18.95-7.35-2.8-12.56-8.86-15.09-16.22-3.08-8.94-1.13-17.71-.35-26.81A1.68,1.68,0,0,0,128.26,114.23Z" transform="translate(-21.31 -75.05)"/><path class="cls-1" d="M192.6,179.1c-16.93,10.63-26.14,36.52-14.58,54.24,1.07,1.63,4.14.32,3.56-1.59-2.35-7.84-4.23-15.25-2.74-23.48a37,37,0,0,1,13.89-22.5c6.81-5.21,15.34-7.69,23.68-4.93a44.54,44.54,0,0,1,12.42,6.95c3.19,2.38,7.3,4.81,8.81,8.62.82,2.07,3.47,1.55,4.33-.12,2.21-4.31-3.3-7.89-6.11-10.19A66.47,66.47,0,0,0,222,176.91C212.26,172.33,201.66,173.41,192.6,179.1Z" transform="translate(-21.31 -75.05)"/><path class="cls-1" d="M138.44,238a13.32,13.32,0,0,0-6.77,8.88,41.68,41.68,0,0,0-.72,6c-.19,2-1.07,4,0,5.86a1.07,1.07,0,0,0,1.35.52c2.49-.8,2.62-3.68,2.92-6,.54-4.12.8-8,4.61-10.43,7.07-4.59,15.26-.14,21.73,3.32,2.64,1.41,5.16-3.15,2.55-4.66C156.42,237.15,146.89,233.43,138.44,238Z" transform="translate(-21.31 -75.05)"/><path class="cls-1" d="M111.19,107.11c-5.42,2.54-12.84,7.9-19.16,5.75-3-1-5.58-3.47-7.49-5.88-2.06-2.59-2.9-5.63-4.56-8.4-.88-1.47-3.47-1.49-3.6.58-.43,7.4,6.56,15.76,13,18.59,7.72,3.37,18.29-1.49,24.64-6C116.63,110,114,105.8,111.19,107.11Z" transform="translate(-21.31 -75.05)"/><path class="cls-5" d="M65,298.8c-4.78-1.24-28.27-36.05-38.89-92.16S24.05,93.84,36.07,80.3s38.52,2.43,39.16,11.06S62,122.54,61.49,126.56s-1.68,45.63,2.5,56.7,7.53,27.06,5.61,39c-1.33,2.12,11.63,32.84,16.51,42.07s7.26,14,6.76,20.82S77.93,302.16,65,298.8Z" transform="translate(-21.31 -75.05)"/><path class="cls-6" d="M143.81,178s6.61-.1,7.28-1.16-6.32-4.78-6.32-4.78S143.56,176.62,143.81,178Z" transform="translate(-21.31 -75.05)"/><path class="cls-6" d="M115.21,258.63s6.61-.1,7.28-1.16-6.32-4.78-6.32-4.78S115,257.22,115.21,258.63Z" transform="translate(-21.31 -75.05)"/><path class="cls-6" d="M146.2,212.33s2.54-3.76,3.59-4.15,7.63,7.13,7.19,8.28l-1,2.75S146.91,213.92,146.2,212.33Z" transform="translate(-21.31 -75.05)"/><path class="cls-6" d="M185.3,171.29s2.77,2.37,3.44,1.32,1.73-9.33,1.7-9.61-3.9-.44-4.75,1.08S185.3,171.29,185.3,171.29Z" transform="translate(-21.31 -75.05)"/><path class="cls-6" d="M122.48,160.93s-4.23.75-4.12-1.57,2.33-8.85,3.64-9.53,4.13,1.58,4.13,1.58S123.76,160.82,122.48,160.93Z" transform="translate(-21.31 -75.05)"/><path class="cls-6" d="M114.72,140s-6.1.12-7-1,2.83-11.54,4.12-10.78S114.72,140,114.72,140Z" transform="translate(-21.31 -75.05)"/><path class="cls-6" d="M102.59,263.67s-5.47,2.68-6.75,2S93.55,254,95,254.19,102.59,263.67,102.59,263.67Z" transform="translate(-21.31 -75.05)"/><path class="cls-6" d="M81.2,154.08s4.8.52,5.18-1.17-1.5-8.46-1.5-8.46-2.44-1.2-2.87,0S81.2,154.08,81.2,154.08Z" transform="translate(-21.31 -75.05)"/><path class="cls-6" d="M74.2,126.32s2.51,2.38,3.28,2.42,5-6.84,4.6-7.22a12,12,0,0,0-2.59-1S75.11,123.94,74.2,126.32Z" transform="translate(-21.31 -75.05)"/><path class="cls-6" d="M232,176.28s-1.67-5.25-1.63-6.74,2.52-1.07,2.52-1.07l1.65,6.67Z" transform="translate(-21.31 -75.05)"/><path class="cls-6" d="M254.48,178.75s-2.37-1.36-2.07-2.83,4.68-4,4.68-4l2.11,3.43S255.63,177.81,254.48,178.75Z" transform="translate(-21.31 -75.05)"/><path class="cls-6" d="M209.37,155.78s3.09,2.24,4.13,1.58,4-7.67,4-7.67l-5.05-1.93S209.53,154,209.37,155.78Z" transform="translate(-21.31 -75.05)"/><path class="cls-6" d="M171.7,233.65c1.18.89-1,2.76-1,2.76l-3.69-3S170.27,232.58,171.7,233.65Z" transform="translate(-21.31 -75.05)"/><path class="cls-7" d="M182.43,235.62S166.3,211.35,188,187.57s49.39,2.15,56.15,12.32Z" transform="translate(-21.31 -75.05)"/><path class="cls-8" d="M191.08,227.32a5.57,5.57,0,0,1-8.05-3c-2.62-7.43-4.52-20.72,7.44-33.82,14.81-16.21,33-4.54,42.06,4.8a5.58,5.58,0,0,1-1.2,8.71Z" transform="translate(-21.31 -75.05)"/><path class="cls-9" d="M196.46,209.47c-2.13-4.42,7.15-12.51,12.37-5.52S199.1,215,196.46,209.47Z" transform="translate(-21.31 -75.05)"/><path class="cls-9" d="M206.91,185.6c.57-4.25,8.32-3.13,9.62,2.37S206.33,189.85,206.91,185.6Z" transform="translate(-21.31 -75.05)"/><path class="cls-9" d="M194.16,196.56c-2.27-4-10.52,1.41-7.72,8.52S197.46,202.38,194.16,196.56Z" transform="translate(-21.31 -75.05)"/><path class="cls-9" d="M183.2,223.59c.43-3.25,3.38-1.33,3.88,1.49S182.78,226.85,183.2,223.59Z" transform="translate(-21.31 -75.05)"/><path class="cls-9" d="M223.33,197.66c-1.41-6.78,8.78-6.91,9.91-1.14S224.17,201.66,223.33,197.66Z" transform="translate(-21.31 -75.05)"/><path class="cls-7" d="M131.43,110s-15.68,34.12,15.38,49.16c24.77,12,44.36-15.64,43.18-26.22C190,133,144.43,114.59,131.43,110Z" transform="translate(-21.31 -75.05)"/><path class="cls-8" d="M141.29,116.93a6.58,6.58,0,0,0-8.76,4.62c-2.19,9.43-2.89,26,15.37,34.86,16.92,8.19,31-5.32,35.4-15.64a6.59,6.59,0,0,0-3.61-8.7C170.9,128.54,152.53,121.19,141.29,116.93Z" transform="translate(-21.31 -75.05)"/><path class="cls-9" d="M156.32,149.45c-.35-7.79,13.74-5.66,14.2-.68S156.6,155.6,156.32,149.45Z" transform="translate(-21.31 -75.05)"/><path class="cls-9" d="M136.47,125.8c1.23-5.77,14.86-2.47,11.91,4.55S135.13,132.12,136.47,125.8Z" transform="translate(-21.31 -75.05)"/><path class="cls-9" d="M164.11,133.08c-.07-2.49,12.59-7.91,14.09.81S164.24,138.75,164.11,133.08Z" transform="translate(-21.31 -75.05)"/><path class="cls-9" d="M156.61,128.08c2,.71,1.23-5.94-1.28-5.59S153.13,126.85,156.61,128.08Z" transform="translate(-21.31 -75.05)"/><path class="cls-9" d="M138.9,144.81c1.29-2.7,6.35-.78,6,2.28S137.55,147.66,138.9,144.81Z" transform="translate(-21.31 -75.05)"/><path class="cls-7" d="M132.66,262.15s-1.62-16.44,8.44-22.06,22.63,5.62,22.63,5.62S140.82,257.88,132.66,262.15Z" transform="translate(-21.31 -75.05)"/><path class="cls-8" d="M136.82,258.58a1.56,1.56,0,0,1-2.29-1.41c.05-4.22,1-12.53,7.17-16,5.87-3.28,12.76.27,16.43,2.75a2,2,0,0,1-.19,3.46C153,250,142.79,255.43,136.82,258.58Z" transform="translate(-21.31 -75.05)"/><path class="cls-9" d="M137.12,252.24c-1.5-1.07.62-11.59,5.44-9.75S140.35,254.54,137.12,252.24Z" transform="translate(-21.31 -75.05)"/><path class="cls-9" d="M149.76,245.24c2.34,1.16,2.63-2.41-.09-3.18S147.42,244.09,149.76,245.24Z" transform="translate(-21.31 -75.05)"/><path class="cls-7" d="M71.86,215.88c-6.38-17.7,4.31-37.49,23.76-43.41s37.13,17.72,40,30.18-8.9,33.25-27,36.84S79,235.8,71.86,215.88Z" transform="translate(-21.31 -75.05)"/><path class="cls-8" d="M74.39,214.28c-5.59-15.52,3.78-32.88,20.84-38.08s32.57,15.55,35.08,26.48-7.8,29.17-23.66,32.31S80.68,231.76,74.39,214.28Z" transform="translate(-21.31 -75.05)"/><path class="cls-9" d="M120.58,216.38c4,1.93,8.55-8,3.12-8.15S115.54,214,120.58,216.38Z" transform="translate(-21.31 -75.05)"/><path class="cls-9" d="M117.25,198.88c3.25-5.08-7.26-14.07-10.52-6.81S113.7,204.44,117.25,198.88Z" transform="translate(-21.31 -75.05)"/><path class="cls-9" d="M85.6,195.52c2.31-4.77,9.65-2.83,8.94,3.42S83.3,200.29,85.6,195.52Z" transform="translate(-21.31 -75.05)"/><path class="cls-9" d="M105.21,219.8c.15-8-16.23-8.77-17.49.14S105,229.05,105.21,219.8Z" transform="translate(-21.31 -75.05)"/><path class="cls-9" d="M112.31,212c-1.16,2.9-6.9.62-5.39-3.77S114.22,207.26,112.31,212Z" transform="translate(-21.31 -75.05)"/><path class="cls-7" d="M77.47,91.65s-1.91,18.67,15.09,25.17c11.93,4.56,24.06-12,24.06-12S89.92,93.27,77.47,91.65Z" transform="translate(-21.31 -75.05)"/><path class="cls-8" d="M87.36,97a3.92,3.92,0,0,0-4.89,4.56A16.38,16.38,0,0,0,92.92,114c5,1.89,10-1.27,13.3-4.3a3.92,3.92,0,0,0-1.18-6.54A175.89,175.89,0,0,0,87.36,97Z" transform="translate(-21.31 -75.05)"/><path class="cls-9" d="M104.54,107.14c-1.34-2.84,3.58-5.56,5.09-2.3S106.29,110.83,104.54,107.14Z" transform="translate(-21.31 -75.05)"/><path class="cls-9" d="M95.13,110.09c4.17,0,4.17-5.07-.44-5.72S91.06,110.08,95.13,110.09Z" transform="translate(-21.31 -75.05)"/><path class="cls-9" d="M81.87,100.39c-.94-2.44,4.07-4.58,5.06-1.66S82.89,103,81.87,100.39Z" transform="translate(-21.31 -75.05)"/><path class="cls-10" d="M60.66,126s-.39-.17-1-.5l-2.42-1.3c-.47-.28-1-.52-1.55-.83s-1.14-.54-1.69-.89-1.18-.62-1.82-.88-1.23-.6-1.85-.89-1.25-.6-1.88-.84-1.25-.53-1.85-.8-1.2-.49-1.76-.72-1.12-.46-1.63-.67l-1.41-.57-1.13-.49-1-.47,1-.42A9.62,9.62,0,0,1,42,115.4a9.36,9.36,0,0,1,1.63-.24,10.28,10.28,0,0,1,1.94,0,12.82,12.82,0,0,1,2.17.23,13.5,13.5,0,0,1,2.25.57c.76.25,1.5.58,2.24.88s1.43.75,2.1,1.18,1.27.94,1.86,1.4a14.91,14.91,0,0,1,1.55,1.52,11.49,11.49,0,0,1,1.21,1.52,9.65,9.65,0,0,1,.86,1.4,8.62,8.62,0,0,1,.53,1.16C60.55,125.63,60.66,126,60.66,126Z" transform="translate(-21.31 -75.05)"/><path class="cls-10" d="M63.81,179.72a26.77,26.77,0,0,1-2.91.59c-.41,0-.85.15-1.31.19s-.93.16-1.41.17-1,.09-1.48.17-1,.08-1.51.13-1,.05-1.51.11-1,.06-1.49.07a13.67,13.67,0,0,1-1.42,0c-.45,0-.89,0-1.31,0-.83,0-1.58-.06-2.11-.11l-.88-.11.53-.71a7.93,7.93,0,0,1,1.66-1.51,7,7,0,0,1,1.26-.77,8.38,8.38,0,0,1,1.49-.65,10.4,10.4,0,0,1,1.68-.46c.59-.1,1.19-.17,1.78-.24s1.21,0,1.8,0,1.17.15,1.72.24a10.75,10.75,0,0,1,1.58.44,8.31,8.31,0,0,1,1.35.58,8.41,8.41,0,0,1,1.86,1.22C63.59,179.48,63.81,179.72,63.81,179.72Z" transform="translate(-21.31 -75.05)"/><path class="cls-10" d="M66.83,226.63a8,8,0,0,1-.21.89,9.16,9.16,0,0,1-1,2.16,9.05,9.05,0,0,1-.89,1.29,12.59,12.59,0,0,1-1.16,1.3c-.46.39-.92.81-1.43,1.2s-1.07.69-1.62,1-1.17.55-1.76.78a9.87,9.87,0,0,1-1.79.53,8.78,8.78,0,0,1-1.73.24,7.49,7.49,0,0,1-1.57,0,8.19,8.19,0,0,1-2.33-.45l-.86-.35.75-.54c.48-.3,1.14-.73,1.9-1.17.38-.22.78-.46,1.21-.69s.86-.51,1.32-.72.91-.51,1.39-.74,1-.49,1.44-.74,1-.47,1.42-.74,1-.47,1.42-.71.94-.44,1.35-.68.87-.41,1.25-.62c.8-.38,1.5-.71,2-.93S66.83,226.63,66.83,226.63Z" transform="translate(-21.31 -75.05)"/><path class="cls-10" d="M73.12,292.55s.27-.32.73-.8l1.86-1.95c.39-.37.75-.83,1.18-1.25s.79-.95,1.26-1.38.87-1,1.27-1.5.86-1,1.29-1.54.86-1,1.23-1.58.78-1.06,1.18-1.57.74-1,1.08-1.51l1-1.4.86-1.22c.27-.37.52-.7.7-1l.67-.88.2,1.1a9,9,0,0,1,.08,1.26,9.43,9.43,0,0,1-.1,1.62,10.66,10.66,0,0,1-.37,1.89,12.3,12.3,0,0,1-.71,2,13.25,13.25,0,0,1-1.07,2c-.41.67-.9,1.3-1.37,1.95s-1.07,1.19-1.65,1.72-1.21,1-1.79,1.43a13.92,13.92,0,0,1-1.86,1.1,12.38,12.38,0,0,1-1.76.75,10.74,10.74,0,0,1-1.56.44,10.53,10.53,0,0,1-1.24.19C73.52,292.56,73.12,292.55,73.12,292.55Z" transform="translate(-21.31 -75.05)"/><path class="cls-2" d="M176.73,187.47c-7.69,10.13-16.85,11-19.14,6.2s2.27-18,11.22-24.27S184.69,177,176.73,187.47Z" transform="translate(-21.31 -75.05)"/><path class="cls-2" d="M139.45,176.89c-5.82,11-13.07,3.62-14-1.07s4.52-19.91,10.52-17S141.73,172.58,139.45,176.89Z" transform="translate(-21.31 -75.05)"/><path class="cls-2" d="M150,231.82c-4.25,2.17-13.15-11.06-12.17-15.48s10.45,0,11.82,4.11S154.85,229.33,150,231.82Z" transform="translate(-21.31 -75.05)"/><path class="cls-11" d="M85.86,272.72c-2.21,7.56-8.77,20.41-19.81,17.13S42.74,257,44.22,249.16s16.4-16.47,21.94-12.44,20.51,29,18.1,37.07" transform="translate(-21.31 -75.05)"/><path class="cls-11" d="M67.16,104.11c-4,9-7.47,12.27-10.59,11.68S38,114.93,38.31,103.94,44.32,80,53.5,80s13.06,7.23,15.27,11S68.5,101.1,67.16,104.11Z" transform="translate(-21.31 -75.05)"/><path class="cls-11" d="M44.79,124.56c-7.64-.88-16,10.42-17.16,24.92h0c-1.93,7.1-1.83,51.07,7.31,69.59a26.74,26.74,0,0,0,1.34,3.26c4.89,9.83,14.58,10.77,20.57,9.31s10.35-13.41,9.9-21.82c-.37-6.89-3.44-18.23-7.5-22.73a6.19,6.19,0,0,0-2.53-1.63h0a13.94,13.94,0,0,0-11.31.11h0c-.76.2-1.52.44-2.24.7-3.15.44-.32-3.86,4.57-6.8,8.31-3.77,9.91-18.21,10.27-31.18C58.4,134,53.6,125.58,44.79,124.56Z" transform="translate(-21.31 -75.05)"/><path class="cls-1" d="M137.88,188.35a2,2,0,0,0-1.6,1.31c-.6,1.75.58,2.94,1.4,4.35.66,1.16,1.15,2.83,2.26,3.62a1.68,1.68,0,0,0,2.33-.35c.93-1.56.4-3.63-.23-5.22C141.3,190.19,140.16,188.18,137.88,188.35Z" transform="translate(-21.31 -75.05)"/><path class="cls-1" d="M122.57,174.91c0,.11,0,.22,0,.34a2.1,2.1,0,1,0,3.33-1.5l-.28-.19A1.92,1.92,0,0,0,122.57,174.91Z" transform="translate(-21.31 -75.05)"/><path class="cls-1" d="M168.3,202.22a6.33,6.33,0,0,0-1,5.19,1.8,1.8,0,0,0,3.43.34,17.48,17.48,0,0,0,1.33-4.09C172.35,201.57,169.5,200.64,168.3,202.22Z" transform="translate(-21.31 -75.05)"/><path class="cls-1" d="M160,169.33a3.15,3.15,0,0,0-.92,0,1.38,1.38,0,0,0-.85,2.21,3.64,3.64,0,0,0,.7.6,1.6,1.6,0,0,0,1.55.17,1.64,1.64,0,0,0,.82-.86,1.58,1.58,0,0,0,0-1.19A1.6,1.6,0,0,0,160,169.33Z" transform="translate(-21.31 -75.05)"/><path class="cls-1" d="M125.58,243.66a2.17,2.17,0,0,0-1.68,1.41,2,2,0,1,0,3.82,1.46,2.18,2.18,0,0,0-.31-2.17A2,2,0,0,0,125.58,243.66Z" transform="translate(-21.31 -75.05)"/><path class="cls-1" d="M80.51,127.79c-1.82,1.78-2,5-1.82,7.37a1.57,1.57,0,0,0,2.78.67,13,13,0,0,0,1.59-3.19A6.41,6.41,0,0,0,83.6,129C83.25,127.75,81.66,126.68,80.51,127.79Z" transform="translate(-21.31 -75.05)"/><path class="cls-1" d="M70,133.73a1.6,1.6,0,0,0,3,1.15A1.6,1.6,0,0,0,70,133.73Z" transform="translate(-21.31 -75.05)"/><path class="cls-1" d="M191.23,146.19a2,2,0,0,0-2.32,1.22l-.09.2a3.58,3.58,0,0,1-.38.55,1.88,1.88,0,0,0-.08,2.08,1.9,1.9,0,0,0,1.89.88,3,3,0,0,0,2.53-2.8A2,2,0,0,0,191.23,146.19Z" transform="translate(-21.31 -75.05)"/><path class="cls-1" d="M200.58,170.53c-2.24.91-.7,4.32,1.53,3.42a12.38,12.38,0,0,1,5.12-.77c1.56,0,3.29.46,4.73-.31a1.47,1.47,0,0,0,.54-2.21C210.15,167.13,203.63,169.31,200.58,170.53Z" transform="translate(-21.31 -75.05)"/><path class="cls-1" d="M216.72,170.55a.9.9,0,0,0,1.69.64A.9.9,0,0,0,216.72,170.55Z" transform="translate(-21.31 -75.05)"/></svg>