<svg id="Camada_1" data-name="Camada 1" xmlns="http://www.w3.org/2000/svg" viewBox="0 0 286.94 252.72"><defs><style>.cls-1{fill:#e7bd53;}.cls-2{fill:#edde7e;}.cls-3{fill:#c5521e;}.cls-4{fill:#f4e999;}.cls-5{fill:#d8a538;}.cls-6{fill:#e6bc56;}.cls-7{fill:#bf912a;}.cls-8{fill:#f5e7e6;}.cls-9{fill:#fff;}.cls-10{fill:#dca338;}.cls-11{fill:#c3ac7d;}.cls-12{fill:#e5cbca;}.cls-13{fill:#da9e6c;}.cls-14{fill:#6e3e1b;}.cls-15{fill:#cd7626;}.cls-16{fill:#d6873b;}.cls-17{fill:#ce8f6d;}</style></defs><title>camarão</title><path class="cls-1" d="M89.67,305.69a1.24,1.24,0,1,0-2.14,1.25c.37.56.8,1.13,1.54,1.13a1.07,1.07,0,0,0,1-.77A1.78,1.78,0,0,0,89.67,305.69Z" transform="translate(-7.1 -97.62)"/><path class="cls-1" d="M64.77,336.46s97.88-31.62,141.33-48.39S292,250.77,294,246.21s-105.94-68.49-114.1-72-57.73-33.17-72.27-42.09-27.22-12.3-32.57-12.94-43.36,40.72-43.82,83.17S31.75,324.29,64.77,336.46Z" transform="translate(-7.1 -97.62)"/><path class="cls-2" d="M79.17,326.4s80.5-26,119.45-41,78.82-37.52,80.62-41.61-96.78-57.31-104.1-60.42-51.75-29.74-64.78-37.74S86,134.58,81.16,134s-18.65,35.68-19.07,73.74S59,306.54,79.17,326.4Z" transform="translate(-7.1 -97.62)"/><path class="cls-3" d="M83,121.74c-1-1.71-3.52-4-5.43-2.12-9.62,9.46-17.13,25.42-22.09,37.9a92.81,92.81,0,0,0-5.84,21.77c-1,7.56-.49,14.78.35,22.32.87,7.85-.07,14.57-1.77,22.23A109,109,0,0,0,45.53,247c0,7.64,1.72,15,2.14,22.52.41,7.26-3,14.1-2,21.42,1,7.74,6.56,13.57,9,20.81A90.77,90.77,0,0,1,57.4,323.1c.6,3.1,1.24,6.23-.24,9.19-2,4,2.16,8.88,6.35,6.35,6.61-4,5.32-12.35,4.13-18.79-1.57-8.52-3.94-16.82-5.38-25.34a2.35,2.35,0,0,0,1.89-.16,2.28,2.28,0,0,0,1-2.43l0-.08A7.29,7.29,0,0,0,64,286.25a2.42,2.42,0,0,0-3-.85c-.95-9.57-1.39-19.18-1.86-28.78a181.17,181.17,0,0,1-.3-21c.46-7.23,1.23-14.44,1.39-21.68.21-9.55-1.48-19-.94-28.59a86.66,86.66,0,0,1,3.41-19.44,2,2,0,0,0,1.68-3,4,4,0,0,0-.43-.56l-.1-.08a120.13,120.13,0,0,1,17.4-32.72C83.28,126.93,84.84,125,83,121.74Z" transform="translate(-7.1 -97.62)"/><path class="cls-4" d="M81.82,319.31c-4.91.26-8.48-24.56-10.72-34.38s5-55.26,1.86-62.83S70.7,190,74.49,176.83s13.14-28.89,17.26-29.73,37.17,11,48,21.83,66.5,40.32,81.08,48.88,33.32,20.43,34.39,26.15-35.62,22.5-46.11,24.69-41.89,10.29-53,15S101.24,318.3,81.82,319.31Z" transform="translate(-7.1 -97.62)"/><path class="cls-5" d="M33.7,348.33c-5.06-2.23-24.81-44.94-26.49-108.9s17.9-125.12,33.62-137.95,42.17,9.6,41.32,19.25-20.24,32.12-21.5,36.48-10,50.16-7.38,63.15,3.47,31.28-.78,44.08c-1.86,2.1,7,38.4,10.72,49.49s5.52,16.79,3.75,24.24S47.38,354.36,33.7,348.33Z" transform="translate(-7.1 -97.62)"/><path class="cls-6" d="M75.07,119.22c-1.57-4.09-4.15-11.38-11.89-14.13a26.76,26.76,0,0,0-8.34-1.81c-15.46-1.13-20.58,31.91-29.24,48.95s-14.86,55.18-16.51,72.1,5.78,47.87,13.21,48.88S38,266.42,40.19,253.74s-5.51-35.6-7.34-42a10.39,10.39,0,0,0,3.35-.34c9.88-2.69,14.23-18.37,16.95-32.65,1.65-8.68,1.22-15.65-1.08-20.62a.06.06,0,0,0,0,0c-1.82-6.68-17.27-12.43-12.71-15.34s17.79,1.65,17.79,1.65c3.34,1.21,7.76-1.79,13.81-11C73,130.3,76.83,123.8,75.07,119.22Z" transform="translate(-7.1 -97.62)"/><path class="cls-7" d="M59.83,156.46s-.34-.22-.87-.63-1.26-1-2.07-1.66l-1.3-1.07c-.43-.4-1-.72-1.41-1.13a15.45,15.45,0,0,0-1.51-1.11,16.66,16.66,0,0,0-1.56-1.08c-.53-.34-1.06-.7-1.62-1l-1.64-.92c-.55-.27-1.08-.57-1.6-.85s-1-.53-1.49-.81c-.94-.48-1.74-1-2.31-1.33l-.89-.61,1-.27a12.37,12.37,0,0,1,2.77-.28,10,10,0,0,1,1.85.12,9.72,9.72,0,0,1,2.06.4,11.14,11.14,0,0,1,2.13.77c.71.33,1.4.73,2.09,1.13s1.28,1,1.86,1.48a21.43,21.43,0,0,1,1.53,1.69,13.68,13.68,0,0,1,1.17,1.75,12.31,12.31,0,0,1,.82,1.68,12.9,12.9,0,0,1,.8,2.66C59.8,156.06,59.83,156.46,59.83,156.46Z" transform="translate(-7.1 -97.62)"/><path class="cls-7" d="M52.28,215.06s-.34,0-.89.06-1.3.06-2.15.06c-.42,0-.88,0-1.34,0s-1,.07-1.44,0-1,0-1.51.05-1,0-1.55,0-1,0-1.57,0-1,0-1.55,0a15,15,0,0,1-1.51,0c-.48,0-1,0-1.4-.09a16.89,16.89,0,0,1-2.19-.32l-.88-.23.65-.64a11.09,11.09,0,0,1,1.86-1.32,8.67,8.67,0,0,1,1.33-.66,8.31,8.31,0,0,1,1.57-.56,8.91,8.91,0,0,1,1.75-.38c.6-.08,1.23-.12,1.86-.16s1.26,0,1.89.12,1.22.25,1.8.38a10.56,10.56,0,0,1,1.61.62,7.52,7.52,0,0,1,1.35.75,8.38,8.38,0,0,1,1.76,1.51A7.16,7.16,0,0,1,52.28,215.06Z" transform="translate(-7.1 -97.62)"/><path class="cls-7" d="M48.64,268.83a8.2,8.2,0,0,1-.43.91,10.33,10.33,0,0,1-1.5,2.13,10.2,10.2,0,0,1-1.23,1.23A13.35,13.35,0,0,1,44,274.29c-.58.34-1.16.71-1.79,1s-1.3.56-2,.83-1.37.41-2.06.55a12.19,12.19,0,0,1-2,.29,11.4,11.4,0,0,1-1.94,0,9.14,9.14,0,0,1-1.72-.24,9.76,9.76,0,0,1-2.49-.82l-.89-.49L30,275c.58-.22,1.39-.54,2.31-.85.47-.17,1-.35,1.48-.51s1.06-.38,1.62-.52,1.11-.39,1.69-.56,1.15-.37,1.73-.56,1.17-.36,1.73-.58,1.15-.37,1.7-.56,1.11-.34,1.61-.55,1-.33,1.48-.5c.93-.32,1.75-.57,2.34-.75S48.64,268.83,48.64,268.83Z" transform="translate(-7.1 -97.62)"/><path class="cls-7" d="M43.78,342.87s.36-.29,1-.71c.31-.2.67-.47,1.08-.77s.88-.6,1.37-1,1-.76,1.55-1.14,1.08-.89,1.67-1.28,1.16-.9,1.71-1.42,1.15-1,1.72-1.48,1.15-1,1.66-1.56L57.09,332c.47-.54,1-1,1.46-1.52l1.31-1.4,2-2.21.85-.87,0,1.22a13.12,13.12,0,0,1-.63,3.13,11,11,0,0,1-.78,2,15.57,15.57,0,0,1-1.16,2.09,16.29,16.29,0,0,1-1.55,2c-.58.66-1.23,1.26-1.86,1.89s-1.37,1.12-2.1,1.6-1.49.88-2.22,1.27a15.56,15.56,0,0,1-2.21.9,12.66,12.66,0,0,1-2.06.55,10.26,10.26,0,0,1-1.78.25A8.22,8.22,0,0,1,45,343C44.21,342.93,43.78,342.87,43.78,342.87Z" transform="translate(-7.1 -97.62)"/><path class="cls-6" d="M61.43,323.21c-3.81,8-13.37,21-25,15.4s-19.9-40.5-16.86-48.91,21.09-15.28,26.49-9.83,17.49,35.78,13.38,44.24" transform="translate(-7.1 -97.62)"/><path class="cls-1" d="M187.08,213.46c-5.52-2.15-12.64-5.42-18.48-2.94-2.89,1.22-4.1,3.94-6.82,5.25a14.23,14.23,0,0,0-6.29,5.75c-1.48,2.62-2.44,6.3-1.69,9.33-4.93,7.29.07,19.43,9.16,19.43,10.08,9.63,27.27-1.25,22.61-13.73a9.39,9.39,0,0,0-6.9-5.69c-2.15-.51-5.68-.81-2.95-3.84,2.38-2.64,5.38,1.35,8,2.07a9,9,0,0,0,8.06-1.25C198,222.83,192.73,215.65,187.08,213.46Zm-11,27.62c-2.95,3.51-9.13.54-12.26-.63a5.07,5.07,0,0,0-2.31-.32,2.4,2.4,0,0,1-.55-.48c-1.84-2.22,0-5.8-.39-8.34a2.61,2.61,0,0,0-.06-.27c.66-2.15,1.23-4.28,3.1-5.94a10.36,10.36,0,0,1,3.31-1.75c-2.07,4.07-2.12,9.1,1,12.82a10.37,10.37,0,0,0,5.35,3.29C174.79,239.87,177.53,239.32,176.06,241.08Z" transform="translate(-7.1 -97.62)"/><path class="cls-8" d="M172.37,233.76s10.26-.15,9.78,7.61-11.35,14-17.66,6.43c0,0-13.36-1.85-8.74-15.12,0,0-2.84-15.25,10.33-15.32,5.66-9.2,14.77-4.85,16.59-2.5,10.21.14,9.58,7.35,8.67,10.17s-9.61,4.48-13.32-1.46c0,0-2.15,2.5-5.05,1.6a3.86,3.86,0,0,1-2,4.52S173.22,230.11,172.37,233.76Z" transform="translate(-7.1 -97.62)"/><path class="cls-9" d="M177.71,240.65a5.22,5.22,0,0,0-.62-4.18c-1.88-2.67-5.05-1.87-7.24-.2a5.75,5.75,0,0,0-3,3.54,7.59,7.59,0,0,0,0,2.72,3.74,3.74,0,0,0,.62,1.56c.11.15.23.28.35.42a5.17,5.17,0,0,0,.83.93c2.47,2.14,5.79.94,7.52-1.46l.27-.38A5.45,5.45,0,0,0,177.71,240.65Z" transform="translate(-7.1 -97.62)"/><path class="cls-9" d="M174.45,213.6l-.16.08h0a3.94,3.94,0,0,0-2.91,2.75,4.66,4.66,0,0,0-.8,2.73A4.7,4.7,0,0,0,171,221a4.69,4.69,0,0,0-1.74-.88,6.48,6.48,0,0,0-6-.07,4.33,4.33,0,0,0-1.06.73,4.13,4.13,0,0,0-2.09,2.8c-.58,2.92,2.32,4.59,4.79,4.83a6.63,6.63,0,0,0,.88.21,7.35,7.35,0,0,0-.77.32c-1.88.89-4.22,2.37-4.94,4.45-1,3,1.55,5.41,4.49,5.13a8.43,8.43,0,0,0,5.47-3,4.3,4.3,0,0,0,1.12-4.09h0a3.65,3.65,0,0,0-2.35-2.92l-.23-.06c2.12-.61,4-2.26,3.88-4.67a4.27,4.27,0,0,0-.24-1.12,4.09,4.09,0,0,0,2.53,1.07,4.48,4.48,0,0,0,1.76-.19,5.93,5.93,0,0,0,3.94-5.72A4.45,4.45,0,0,0,174.45,213.6Z" transform="translate(-7.1 -97.62)"/><path class="cls-10" d="M164.58,248.33s-.14-.11-.37-.33a3.58,3.58,0,0,1-.75-1,4.18,4.18,0,0,1-.33-.8,5.38,5.38,0,0,1-.21-.94c0-.33-.06-.68,0-1s.09-.71.14-1.06.19-.69.32-1a5,5,0,0,1,.48-.92,4.52,4.52,0,0,1,.59-.76,3.47,3.47,0,0,1,.65-.58,3.67,3.67,0,0,1,1.14-.61l.48-.12-.14.47c-.09.29-.21.68-.35,1.11l-.21.68c-.08.24-.13.49-.22.73s-.13.51-.21.77-.13.52-.2.78a7.43,7.43,0,0,0-.17.79,7.2,7.2,0,0,0-.16.78c0,.26-.11.51-.13.76s-.08.48-.1.71c-.06.45-.11.85-.14,1.15S164.58,248.33,164.58,248.33Z" transform="translate(-7.1 -97.62)"/><path class="cls-10" d="M155.7,232.65a2.08,2.08,0,0,1,0-.41,2.54,2.54,0,0,1,.34-1,2.31,2.31,0,0,1,.4-.56,3.2,3.2,0,0,1,.57-.53,7.21,7.21,0,0,1,.72-.43c.26-.11.54-.19.81-.28a6.27,6.27,0,0,1,.86-.09,3.29,3.29,0,0,1,.83.07,2.91,2.91,0,0,1,.74.23,2.56,2.56,0,0,1,.61.35,2.77,2.77,0,0,1,.72.77l.18.37-.4.07-.89.15a4.59,4.59,0,0,1-.51.1,5.12,5.12,0,0,1-.54.1l-.54.12c-.18,0-.36.07-.55.1a4.71,4.71,0,0,0-.54.12,4.46,4.46,0,0,0-.55.11c-.17.07-.37.07-.54.13s-.35.07-.51.13Z" transform="translate(-7.1 -97.62)"/><path class="cls-10" d="M165.75,217a2.47,2.47,0,0,1,1.23-.29,2.43,2.43,0,0,1,.59,0,2.83,2.83,0,0,1,.62.16c.21.1.42.19.63.31a5.56,5.56,0,0,1,.57.42,6.15,6.15,0,0,1,.49.53,2.72,2.72,0,0,1,.37.58,2.82,2.82,0,0,1,.23.61,2.09,2.09,0,0,1,.1.59,2.48,2.48,0,0,1-.08.91l-.14.35-.32-.17c-.19-.11-.45-.26-.71-.43a3.3,3.3,0,0,1-.39-.26,2.92,2.92,0,0,1-.4-.29,3.89,3.89,0,0,1-.39-.32c-.11-.12-.24-.22-.37-.34s-.23-.24-.36-.35-.23-.25-.34-.37-.21-.26-.33-.37-.2-.26-.3-.37C166.06,217.47,165.75,217,165.75,217Z" transform="translate(-7.1 -97.62)"/><path class="cls-10" d="M181.94,214.37a2.43,2.43,0,0,1,.91.47,1.94,1.94,0,0,1,.32.32,2.22,2.22,0,0,1,.29.42,5.36,5.36,0,0,1,.2.53,5.92,5.92,0,0,1,.06.62,3.5,3.5,0,0,1-.12.66,1.67,1.67,0,0,1-.29.58,1.54,1.54,0,0,1-.43.45,1.45,1.45,0,0,1-.49.26,1.29,1.29,0,0,1-.84,0,1.49,1.49,0,0,1-.3-.16,1.2,1.2,0,0,0,.1-.3,2.2,2.2,0,0,0,.06-.58l0-.29a.89.89,0,0,1,0-.27.67.67,0,0,1,0-.24,1.76,1.76,0,0,0,0-.23,1.27,1.27,0,0,0,0-.28q0-.15.06-.33c0-.11.06-.24.07-.36a3,3,0,0,1,.09-.38A4.18,4.18,0,0,1,181.94,214.37Z" transform="translate(-7.1 -97.62)"/><path class="cls-11" d="M180.15,238a2.76,2.76,0,0,1,.34.5A4.79,4.79,0,0,1,181,240a4.61,4.61,0,0,1,.1,1.08,5.86,5.86,0,0,1-.11,1.23,10.82,10.82,0,0,1-.39,1.27,9.79,9.79,0,0,1-.69,1.22,8.33,8.33,0,0,1-.93,1,5.38,5.38,0,0,1-1.08.78,5.06,5.06,0,0,1-1.12.51,4.94,4.94,0,0,1-1.07.24,4.28,4.28,0,0,1-1.61-.06l-.59-.17s.2-.11.51-.31.74-.46,1.2-.78l.71-.55.72-.62c.24-.22.46-.48.7-.71a7.73,7.73,0,0,0,.62-.77,6.38,6.38,0,0,0,.55-.84,6.69,6.69,0,0,0,.47-.87c.12-.31.28-.59.38-.89s.21-.57.29-.85c.15-.54.27-1,.34-1.38Z" transform="translate(-7.1 -97.62)"/><path class="cls-12" d="M177.6,224.62a2.74,2.74,0,0,1,0-.74,1.86,1.86,0,0,1,0-.33c0-.12,0-.24.08-.36l.12-.36.15-.36.19-.35a2.2,2.2,0,0,1,.21-.32,2.09,2.09,0,0,1,.22-.28,2.72,2.72,0,0,1,.24-.24,2.45,2.45,0,0,1,.41-.33l.19-.11,0,.22a3.09,3.09,0,0,1,0,.53,2,2,0,0,1,0,.33,2.25,2.25,0,0,1-.09.35,2.17,2.17,0,0,1-.12.36l-.16.36-.19.34-.22.32a2.15,2.15,0,0,1-.23.28,3.47,3.47,0,0,1-.82.69Z" transform="translate(-7.1 -97.62)"/><path class="cls-12" d="M172.9,226a4.35,4.35,0,0,1-.58-.55c-.07-.09-.16-.17-.23-.27s-.17-.2-.24-.31l-.24-.33-.22-.35-.21-.36a2.09,2.09,0,0,1-.19-.36,2.81,2.81,0,0,1-.17-.35c0-.11-.09-.23-.13-.34a3.73,3.73,0,0,1-.16-.54l-.05-.23.23.06a2.21,2.21,0,0,1,.53.27,2,2,0,0,1,.31.22,2.09,2.09,0,0,1,.31.29,1.93,1.93,0,0,1,.29.34l.26.38.21.41.16.42a3.11,3.11,0,0,1,.11.41,2.65,2.65,0,0,1,.05.38A2.46,2.46,0,0,1,172.9,226Z" transform="translate(-7.1 -97.62)"/><path class="cls-12" d="M171.9,230.46l-1-.67-.44-.3c-.16-.11-.34-.19-.5-.31s-.35-.21-.54-.3-.38-.2-.56-.3-.38-.19-.58-.27l-.56-.25-.55-.21-.5-.18-.8-.28-.31-.12.31-.13a3.73,3.73,0,0,1,.88-.18,4,4,0,0,1,.6,0,4.07,4.07,0,0,1,.67.08,6.5,6.5,0,0,1,.69.19c.23.08.46.19.69.29s.43.25.63.39.38.3.56.45.32.33.46.49a2.89,2.89,0,0,1,.34.49A3.32,3.32,0,0,1,171.9,230.46Z" transform="translate(-7.1 -97.62)"/><path class="cls-13" d="M172.68,234.27l-.33,0a4.77,4.77,0,0,0-.81.1c-.16,0-.32.08-.5.12s-.34.13-.52.18a3.59,3.59,0,0,0-.53.24,4.54,4.54,0,0,0-.53.3,5.36,5.36,0,0,0-.49.34l-.45.38c-.12.14-.27.26-.38.39s-.24.27-.33.4a4.89,4.89,0,0,0-.45.67l-.17.29-.07-.33a2.28,2.28,0,0,1,0-.92,2.42,2.42,0,0,1,.2-.59,2.9,2.9,0,0,1,.35-.61,3.29,3.29,0,0,1,.5-.56,7.31,7.31,0,0,1,.62-.48,5.66,5.66,0,0,1,.7-.34,5.12,5.12,0,0,1,.72-.19,3.4,3.4,0,0,1,.7-.05,3,3,0,0,1,.62.09,2.14,2.14,0,0,1,.84.35A2.7,2.7,0,0,1,172.68,234.27Z" transform="translate(-7.1 -97.62)"/><path class="cls-1" d="M76.27,246.36c5.48,2.25,12.54,5.64,18.43,3.27,2.9-1.17,4.16-3.86,6.91-5.12a14.17,14.17,0,0,0,6.39-5.64c1.53-2.6,2.55-6.26,1.86-9.3,5.06-7.2.28-19.43-8.81-19.59-10.48-8.11-27.29.76-22.85,13.32A9.35,9.35,0,0,0,85,229.11c2.14.56,5.67.92,2.88,3.9-2.43,2.6-5.35-1.45-8-2.22a9,9,0,0,0-8.08,1.11C65.53,236.79,70.66,244.06,76.27,246.36ZM87.79,219c3-3.47,9.13-.39,12.24.84a5,5,0,0,0,2.3.37,2.17,2.17,0,0,1,.54.48c1.81,2.26-.11,5.8.24,8.35l.06.27c-.7,2.14-1.31,4.26-3.21,5.89a10.3,10.3,0,0,1-3.34,1.68c2.15-4,2.28-9.05-.79-12.84a10.54,10.54,0,0,0-5.3-3.38C89,220.18,86.29,220.67,87.79,219Z" transform="translate(-7.1 -97.62)"/><path class="cls-8" d="M91.35,226.33s-10.27,0-9.65-7.78,11.6-13.8,17.77-6.12c0,0,13.33,2.09,8.47,15.28,0,0,2.56,15.3-10.6,15.13-5.82,9.1-14.86,4.58-16.63,2.2-10.21-.32-9.45-7.52-8.5-10.32s9.7-4.31,13.3,1.69c0,0,2.2-2.46,5.08-1.5a3.86,3.86,0,0,1,2.06-4.49S90.42,230,91.35,226.33Z" transform="translate(-7.1 -97.62)"/><path class="cls-9" d="M107.82,220.73a5.71,5.71,0,0,0-5.6-3.36,7.83,7.83,0,0,0-2.29.41,5.22,5.22,0,0,0-2-4.68c-3.46-2.7-10-1.52-10.25,3a5.31,5.31,0,0,0-.73,3,6.14,6.14,0,0,0,8.25,5.19,4,4,0,0,0,.7,2,5,5,0,0,0,2.64,2.86,5.48,5.48,0,0,0-1.68.61A6,6,0,0,0,94,234.12a4.73,4.73,0,0,0-.59,2.36,5.36,5.36,0,0,0-4.85-1,5.57,5.57,0,0,0-5.09,3.87,6.07,6.07,0,0,0,2,6.58c2.23,1.84,5.54,2.1,7.6-.17a8.23,8.23,0,0,0,2-5.36l.4.33a6.2,6.2,0,0,0,8-.8,7.07,7.07,0,0,0,.91-1.19,3.68,3.68,0,0,0,1.29-2.24,4.09,4.09,0,0,0,.36-.84,4,4,0,0,0-1.23-4.33,4.17,4.17,0,0,0-1.17-.67,5.59,5.59,0,0,0-1.52-1,6.87,6.87,0,0,0,4.23-2.43A6.69,6.69,0,0,0,107.82,220.73Z" transform="translate(-7.1 -97.62)"/><path class="cls-9" d="M83,237.34a4,4,0,0,0-2.11-2.91,4.51,4.51,0,0,0-3.36-.22,5.23,5.23,0,0,0-3.75,6.28,4.41,4.41,0,0,0,2.11,2.66,2.9,2.9,0,0,0,4.93,0c.18-.18.39-.34.57-.52A4.94,4.94,0,0,0,82.57,241a.16.16,0,0,0,0-.07A5.13,5.13,0,0,0,83,237.34Z" transform="translate(-7.1 -97.62)"/><path class="cls-10" d="M99.39,211.9a3.6,3.6,0,0,1,.37.33,4.1,4.1,0,0,1,.73,1.06,3.8,3.8,0,0,1,.31.8,6.64,6.64,0,0,1,.2.95c0,.33,0,.68,0,1a10,10,0,0,1-.15,1.06c-.11.34-.2.69-.34,1a5.27,5.27,0,0,1-.49.91,4.15,4.15,0,0,1-.61.75,3.45,3.45,0,0,1-.66.57,3.92,3.92,0,0,1-1.15.59l-.49.11.15-.47.38-1.1c.07-.22.14-.45.22-.68s.14-.49.23-.72.14-.51.22-.77a6.77,6.77,0,0,0,.22-.77c.06-.27.14-.53.18-.79s.12-.52.18-.78.12-.51.14-.75.09-.49.11-.71c.07-.45.12-.85.16-1.15S99.39,211.9,99.39,211.9Z" transform="translate(-7.1 -97.62)"/><path class="cls-10" d="M108,227.74a3.73,3.73,0,0,1,0,.4,2.76,2.76,0,0,1-.36,1,2.64,2.64,0,0,1-.42.56,3.16,3.16,0,0,1-.58.51,3.84,3.84,0,0,1-1.54.68,8.33,8.33,0,0,1-.86.08,3.17,3.17,0,0,1-.82-.08,2.8,2.8,0,0,1-.74-.25,2.51,2.51,0,0,1-.6-.36,2.38,2.38,0,0,1-.71-.79l-.17-.37.4-.06.89-.14.51-.09a30.53,30.53,0,0,0,1.08-.19,31.92,31.92,0,0,0,1.1-.21,3.33,3.33,0,0,0,.55-.1c.17-.06.37-.05.54-.11s.35-.07.51-.12Z" transform="translate(-7.1 -97.62)"/><path class="cls-10" d="M97.66,243.2a2.54,2.54,0,0,1-1.23.28,3,3,0,0,1-.59-.06,4,4,0,0,1-.63-.18c-.2-.1-.41-.2-.61-.32s-.38-.28-.57-.43-.33-.35-.47-.54a2.39,2.39,0,0,1-.36-.59,2.35,2.35,0,0,1-.22-.61,2.06,2.06,0,0,1-.09-.59,2.24,2.24,0,0,1,.1-.91l.13-.35.33.18c.18.11.44.26.69.44a3.51,3.51,0,0,1,.4.27,3.68,3.68,0,0,1,.39.3,3.79,3.79,0,0,1,.38.32c.11.12.24.23.36.34s.23.25.36.36a4.09,4.09,0,0,0,.33.38c.12.1.21.27.32.38s.2.26.3.38A10.92,10.92,0,0,1,97.66,243.2Z" transform="translate(-7.1 -97.62)"/><path class="cls-10" d="M81.42,245.55a2.68,2.68,0,0,1-.9-.49,2.46,2.46,0,0,1-.31-.33,1.81,1.81,0,0,1-.28-.42c-.07-.17-.13-.35-.19-.54a4,4,0,0,1,0-.61,2.94,2.94,0,0,1,.13-.67,1.73,1.73,0,0,1,.3-.57,1.64,1.64,0,0,1,.43-.44,1.6,1.6,0,0,1,.5-.26,1.22,1.22,0,0,1,.85,0,1.06,1.06,0,0,1,.29.16,1,1,0,0,0-.1.29,2.22,2.22,0,0,0-.07.59l0,.29a1.22,1.22,0,0,1,0,.26,1.09,1.09,0,0,1,0,.25.81.81,0,0,0,0,.22,2.36,2.36,0,0,0,0,.28c0,.11-.05.22-.06.33a2.61,2.61,0,0,1-.08.36c0,.12-.07.25-.1.38A4.25,4.25,0,0,1,81.42,245.55Z" transform="translate(-7.1 -97.62)"/><path class="cls-11" d="M83.64,222a2.85,2.85,0,0,1-.33-.51,4.6,4.6,0,0,1-.52-1.51,5.37,5.37,0,0,1-.08-1.09,5.78,5.78,0,0,1,.14-1.22,8.92,8.92,0,0,1,.41-1.27,8.59,8.59,0,0,1,.71-1.2,10.26,10.26,0,0,1,.94-1,5.69,5.69,0,0,1,1.1-.76,5,5,0,0,1,1.13-.49,4.94,4.94,0,0,1,1.08-.22,4.42,4.42,0,0,1,1.61.08c.38.11.58.19.58.19s-.2.1-.52.3-.74.45-1.21.76l-.72.53-.73.61c-.24.22-.46.47-.71.7a6.76,6.76,0,0,0-.64.76,5.75,5.75,0,0,0-.56.83,8.23,8.23,0,0,0-.49.86c-.12.3-.29.59-.39.88s-.22.57-.3.84a13.56,13.56,0,0,0-.37,1.39Z" transform="translate(-7.1 -97.62)"/><path class="cls-12" d="M86,235.38a2.94,2.94,0,0,1,0,.73,1.88,1.88,0,0,1,0,.33c0,.12-.05.24-.09.36l-.12.36-.16.36-.19.34a1.81,1.81,0,0,1-.22.32,3.11,3.11,0,0,1-.23.28l-.24.23a2,2,0,0,1-.42.32l-.19.11,0-.22a3.25,3.25,0,0,1,0-.53,1.91,1.91,0,0,1,.06-.33,1.5,1.5,0,0,1,.09-.35,1.74,1.74,0,0,1,.13-.36l.16-.36.2-.33.22-.32c.07-.1.16-.19.23-.28l.24-.23A2.71,2.71,0,0,1,86,235.38Z" transform="translate(-7.1 -97.62)"/><path class="cls-12" d="M90.67,234.06a5.08,5.08,0,0,1,.57.57,3.45,3.45,0,0,1,.23.28c.07.1.16.19.23.31l.23.33.22.36.21.36a2.42,2.42,0,0,1,.18.36c.06.12.11.24.16.36a2.19,2.19,0,0,1,.12.33,3.81,3.81,0,0,1,.16.55l0,.23-.23-.07a2.37,2.37,0,0,1-.52-.27,2.06,2.06,0,0,1-.31-.23,2,2,0,0,1-.3-.29,2.45,2.45,0,0,1-.29-.35l-.25-.38-.21-.42-.15-.42a3.48,3.48,0,0,1-.1-.41,2.65,2.65,0,0,1,0-.38A2.89,2.89,0,0,1,90.67,234.06Z" transform="translate(-7.1 -97.62)"/><path class="cls-12" d="M91.76,229.63l.95.69.44.31c.15.11.33.2.49.32s.35.22.54.31a6,6,0,0,0,.55.31c.19.09.38.2.57.28l.56.26.55.22.5.19.78.29.32.13-.32.12a4.16,4.16,0,0,1-1.48.16,3.17,3.17,0,0,1-.67-.09,4.83,4.83,0,0,1-.69-.2c-.23-.09-.45-.2-.68-.3s-.43-.26-.62-.4-.38-.31-.56-.46a6.57,6.57,0,0,1-.44-.5,3.41,3.41,0,0,1-.34-.5A3.09,3.09,0,0,1,91.76,229.63Z" transform="translate(-7.1 -97.62)"/><path class="cls-12" d="M91,225.81h.33a5.84,5.84,0,0,0,.81-.09,3.22,3.22,0,0,0,.5-.11c.17,0,.35-.12.53-.17a4.16,4.16,0,0,0,.54-.23c.18-.08.35-.19.53-.29a3.91,3.91,0,0,0,.49-.34c.16-.11.31-.24.46-.36s.28-.26.39-.39.24-.26.34-.39a5.87,5.87,0,0,0,.46-.66l.17-.29.07.34a2.3,2.3,0,0,1-.06.91,3,3,0,0,1-.21.59,3.41,3.41,0,0,1-.36.6,3.33,3.33,0,0,1-.51.55,4.91,4.91,0,0,1-.63.47,6.29,6.29,0,0,1-.7.32,4.91,4.91,0,0,1-.73.19,4.19,4.19,0,0,1-.7,0,3,3,0,0,1-.62-.09,2.31,2.31,0,0,1-.83-.37Z" transform="translate(-7.1 -97.62)"/><path class="cls-1" d="M151.83,171c-2.48-4.16-5.42-9.86-10.43-11.2-2.48-.67-4.62.47-7-.06a11.63,11.63,0,0,0-7,.54,11.11,11.11,0,0,0-5.79,5.16c-6.85,2.22-9.74,12.56-3.89,17.14,2,12.21,18.21,12.93,21.49,2.54a7.67,7.67,0,0,0-1.58-7.14c-1.13-1.42-3.25-3.39,0-4,2.86-.5,2.78,3.58,4.13,5.39a7.34,7.34,0,0,0,5.82,3.25C154.13,182.53,154.36,175.25,151.83,171Zm-21,12.24c-3.67.78-6.15-4.24-7.58-6.57a4,4,0,0,0-1.33-1.37,2.13,2.13,0,0,1-.11-.59c-.07-2.36,2.93-3.73,3.95-5.57,0-.07.06-.14.1-.2,1.5-1.06,2.95-2.15,5-2.27a8.41,8.41,0,0,1,3,.54A9.44,9.44,0,0,0,128,176a8.54,8.54,0,0,0,1.8,4.81C130.6,181.81,132.64,182.85,130.81,183.23Z" transform="translate(-7.1 -97.62)"/><path class="cls-8" d="M132.12,176.66s6.69,5.08,2.47,9.83-14.37,3.31-14.62-4.75c0,0-7.68-7.92,2-14.15,0,0,5.85-11.26,14.37-4.66,8.28-3.09,12,4.31,11.95,6.74,6.51,5.23,2.47,9.56.47,10.92s-8.46-2-7.86-7.65a4.18,4.18,0,0,1-4-1.51,3.17,3.17,0,0,1-3.56,1.92S134.51,174.74,132.12,176.66Z" transform="translate(-7.1 -97.62)"/><path class="cls-9" d="M150,171.64a3.71,3.71,0,0,0-3.38-1.54,3.64,3.64,0,0,0-1.89.78,7,7,0,0,0,.49-.89s.07-.06.1-.1a3.79,3.79,0,0,0,.26-4.59,4.38,4.38,0,0,0-2.51-1.73,3.94,3.94,0,0,0-2.71,0,5.23,5.23,0,0,0-2.79,2.83A5,5,0,0,0,134.3,163a6.57,6.57,0,0,0-4.2-.14,3.8,3.8,0,0,0-2.58,4.26,4.48,4.48,0,0,0-.08,1.27,6.65,6.65,0,0,0-2.22.08,3.83,3.83,0,0,0-2.39,0,4.44,4.44,0,0,0-2.53,6.2,4.25,4.25,0,0,0,1.18,1.82,6,6,0,0,0,2.24,1.23,4.51,4.51,0,0,0-1,1.18,4,4,0,0,0-.55,2,4.63,4.63,0,0,0,2.29,4.74c1.84,1,4,.36,5.76-.58a4.89,4.89,0,0,0,1.21-.95,4.35,4.35,0,0,0,1.63-4.81,4.6,4.6,0,0,0-2.81-2.93,4.31,4.31,0,0,0,1.15-2.61,4,4,0,0,0-.12-1.2,5.71,5.71,0,0,0,5.92-2.91,4.06,4.06,0,0,0,1.22,2.17,3.94,3.94,0,0,0,4.48.67,3.44,3.44,0,0,0-.57,2.05,3.92,3.92,0,0,0,2.18,3.27,4.15,4.15,0,0,0,4-.2C150.44,176.61,151.33,173.47,150,171.64Z" transform="translate(-7.1 -97.62)"/><path class="cls-10" d="M119.76,182.13a3.19,3.19,0,0,1-.07-.4,3,3,0,0,1,0-1,3,3,0,0,1,.19-.68,3.83,3.83,0,0,1,.34-.71,6.22,6.22,0,0,1,.49-.69c.19-.22.41-.41.62-.62a8.31,8.31,0,0,1,.72-.49,4.07,4.07,0,0,1,.77-.35,3.1,3.1,0,0,1,.77-.19,2.41,2.41,0,0,1,.7,0,2.78,2.78,0,0,1,1,.18l.38.17-.33.23-.79.53c-.15.11-.31.23-.48.34s-.32.25-.5.36l-.52.39a4.91,4.91,0,0,0-.53.4c-.17.14-.35.27-.5.42a4.18,4.18,0,0,0-.5.43c-.14.15-.33.27-.46.42s-.3.27-.43.41-.5.49-.66.67Z" transform="translate(-7.1 -97.62)"/><path class="cls-10" d="M121.94,167.55a2.12,2.12,0,0,1,.22-.25,2,2,0,0,1,.72-.46,1.79,1.79,0,0,1,.54-.16,2.25,2.25,0,0,1,.64-.05,5.54,5.54,0,0,1,.67.08c.23.06.44.15.66.23a5.06,5.06,0,0,1,.6.37,2.44,2.44,0,0,1,.5.46,3,3,0,0,1,.58,1.06,2.08,2.08,0,0,1,.07.86l-.07.33-.29-.16-.65-.35-.38-.19c-.13-.07-.27-.12-.39-.2s-.28-.13-.41-.21a3,3,0,0,0-.4-.2,3.23,3.23,0,0,0-.42-.2,3.17,3.17,0,0,0-.41-.21c-.14,0-.27-.14-.4-.19s-.27-.13-.4-.17Z" transform="translate(-7.1 -97.62)"/><path class="cls-10" d="M136.3,162.53a2,2,0,0,1,.94.43,1.75,1.75,0,0,1,.35.32,2.29,2.29,0,0,1,.32.43,4,4,0,0,1,.25.51,5.15,5.15,0,0,1,.16.56c0,.2,0,.39.05.58a2.62,2.62,0,0,1-.06.57,1.78,1.78,0,0,1-.16.51,1.42,1.42,0,0,1-.23.42,2,2,0,0,1-.51.55l-.26.16-.13-.27c-.07-.17-.16-.39-.24-.63s-.09-.25-.12-.37a2.85,2.85,0,0,1-.11-.39c0-.13-.07-.27-.09-.4s-.05-.27-.07-.4,0-.28-.06-.41a2.73,2.73,0,0,0,0-.41c0-.13,0-.28,0-.41s0-.27,0-.39C136.26,163,136.3,162.53,136.3,162.53Z" transform="translate(-7.1 -97.62)"/><path class="cls-10" d="M148.06,169a2,2,0,0,1,.35.76,1.45,1.45,0,0,1,0,.37,1.47,1.47,0,0,1,0,.41,4.29,4.29,0,0,1-.13.44,3.87,3.87,0,0,1-.27.43,2.8,2.8,0,0,1-.41.37,1.63,1.63,0,0,1-.48.23,1.26,1.26,0,0,1-.5.07,1,1,0,0,1-.46-.08,1,1,0,0,1-.55-.41.92.92,0,0,1-.11-.24.88.88,0,0,0,.21-.15,1.38,1.38,0,0,0,.33-.35l.13-.2.11-.19s.07-.12.11-.16a.79.79,0,0,0,.12-.15l.16-.16.2-.18a2.2,2.2,0,0,1,.23-.2c.07-.07.17-.13.25-.2A3.85,3.85,0,0,1,148.06,169Z" transform="translate(-7.1 -97.62)"/><path class="cls-11" d="M135,183.29a3,3,0,0,1,0,.49,4.26,4.26,0,0,1-.41,1.25,4.77,4.77,0,0,1-.49.75,4.26,4.26,0,0,1-.69.73,7.38,7.38,0,0,1-.89.62,8,8,0,0,1-1,.44,7.44,7.44,0,0,1-1.13.2,4.39,4.39,0,0,1-1.09,0,4.8,4.8,0,0,1-1.79-.62,3.49,3.49,0,0,1-1-.85c-.19-.25-.29-.41-.29-.41a3.55,3.55,0,0,0,.49.06c.29,0,.71.08,1.16.1h.73l.78,0c.27,0,.54-.08.81-.11a5.62,5.62,0,0,0,.79-.18,5.1,5.1,0,0,0,.78-.26,5.4,5.4,0,0,0,.74-.33c.23-.13.48-.24.69-.38l.61-.4c.38-.27.7-.53.92-.72Z" transform="translate(-7.1 -97.62)"/><path class="cls-12" d="M140.1,173.4a2.34,2.34,0,0,1,.36-.48,1.84,1.84,0,0,1,.2-.19,2.33,2.33,0,0,1,.23-.19l.26-.17.28-.16.29-.13.3-.1.29-.07a1.24,1.24,0,0,1,.27,0,2,2,0,0,1,.43,0l.18,0-.09.16a2.81,2.81,0,0,1-.27.34,1.84,1.84,0,0,1-.2.19,1.41,1.41,0,0,1-.23.18l-.26.17-.28.15-.3.13-.3.09a1.53,1.53,0,0,1-.29.07l-.27,0A2.4,2.4,0,0,1,140.1,173.4Z" transform="translate(-7.1 -97.62)"/><path class="cls-12" d="M136.37,171.94a3.26,3.26,0,0,1-.1-.65c0-.09,0-.19,0-.29s0-.21,0-.32v-.34l0-.33,0-.34c0-.11,0-.22.06-.33a1.55,1.55,0,0,1,.07-.31,2.29,2.29,0,0,1,.08-.28,3.49,3.49,0,0,1,.17-.43l.09-.18.11.16a1.64,1.64,0,0,1,.21.44,1.32,1.32,0,0,1,.09.3,1.86,1.86,0,0,1,.06.34,2.17,2.17,0,0,1,0,.36l0,.38-.07.37-.11.35a2.37,2.37,0,0,1-.14.32,1.73,1.73,0,0,1-.15.27A2.19,2.19,0,0,1,136.37,171.94Z" transform="translate(-7.1 -97.62)"/><path class="cls-12" d="M133.48,174.3l-.28-.92-.14-.42c0-.14-.12-.29-.17-.45s-.12-.31-.19-.47-.14-.31-.21-.47a5,5,0,0,0-.24-.46l-.24-.45-.24-.41-.24-.37-.37-.58-.14-.24.27.08a3,3,0,0,1,.65.33,2.46,2.46,0,0,1,.39.29,2.87,2.87,0,0,1,.39.39,3.19,3.19,0,0,1,.35.47c.11.17.2.35.3.53s.16.38.22.57.09.39.13.58a5.16,5.16,0,0,1,.05.54,3.68,3.68,0,0,1,0,.49A2.7,2.7,0,0,1,133.48,174.3Z" transform="translate(-7.1 -97.62)"/><path class="cls-12" d="M132.07,177.15l-.23-.16a3.7,3.7,0,0,0-.57-.34,3.34,3.34,0,0,0-.38-.17c-.13-.07-.29-.09-.43-.15a3.23,3.23,0,0,0-.47-.11,3.7,3.7,0,0,0-.48-.08,4.1,4.1,0,0,0-.49,0h-.48c-.15,0-.31,0-.45.06l-.41.09c-.25.07-.47.15-.63.21l-.25.1.12-.25a2,2,0,0,1,.49-.57,1.68,1.68,0,0,1,.43-.28,2.11,2.11,0,0,1,.53-.22,2.89,2.89,0,0,1,.6-.1,3.42,3.42,0,0,1,.64,0,6.19,6.19,0,0,1,.62.13,4.87,4.87,0,0,1,.57.24,3.28,3.28,0,0,1,.47.33,2,2,0,0,1,.36.36,1.88,1.88,0,0,1,.36.65A2.21,2.21,0,0,1,132.07,177.15Z" transform="translate(-7.1 -97.62)"/><path class="cls-1" d="M127.5,308.79c3.08-3.7,7.44-8.32,7.05-13.46-.19-2.53-2-4.17-2.27-6.61s.59-5.2-1-7-6-2.87-8.54-3.08c-4.33-5.68-15-5-17.32,2-6,6.42-6.1,21.29,4.7,20.94a7.6,7.6,0,0,0,6.17-3.83c1-1.52,2.09-4.16,3.72-1.27,1.41,2.52-2.44,3.79-3.68,5.64a7.3,7.3,0,0,0-1.12,6.52C117.46,314.74,124.34,312.56,127.5,308.79Zm-18.38-15.64c-1.94-3.18,1.94-7.16,3.65-9.26a4.19,4.19,0,0,0,.85-1.7,2.08,2.08,0,0,1,.51-.3c2.19-.84,4.46,1.52,6.51,1.86l.23,0c1.48,1.06,3,2.06,3.77,3.92a8.45,8.45,0,0,1,.48,3A9.34,9.34,0,0,0,115,288.17a8.41,8.41,0,0,0-3.91,3.26C110.38,292.48,110.08,294.73,109.12,293.15Z" transform="translate(-7.1 -97.62)"/><path class="cls-8" d="M115.7,292.21s-2.55,7.93-8.39,5.55-7.82-12.36-.37-15.25c0,0,4.89-9.8,13.9-2.8,0,0,12.46,1.77,9.1,11.91,5.61,6.74-.1,12.62-2.38,13.41-2.75,7.81-8.13,5.46-10.06,4s-1-8.55,4.57-9.87a4.14,4.14,0,0,1,.08-4.29,3.15,3.15,0,0,1-3-2.7S118.28,293.81,115.7,292.21Z" transform="translate(-7.1 -97.62)"/><path class="cls-9" d="M128.25,284.36a3.36,3.36,0,0,0-1.38-1.28c-2.53-1.25-4.52.66-5.78,2.66a8.44,8.44,0,0,0-1.38-4,3.54,3.54,0,0,0-2.75-1.5c-1.73-.81-4.43.54-4.57,2.5a11.18,11.18,0,0,0,.21,3.44l-.15-.16c-.13-.23-.49-.95-.13-.21a3.82,3.82,0,0,0-1.72-1.95,3.56,3.56,0,0,0-2.68-.17,3.82,3.82,0,0,0-1.84,1.59,3.33,3.33,0,0,0-1.37,3.92,2.68,2.68,0,0,0,.2,1.4,21.48,21.48,0,0,0,1.32,2.16,3.5,3.5,0,0,0,4.49,1.14,3.91,3.91,0,0,0,.75-.53,3.07,3.07,0,0,0,1.51-.56,3.43,3.43,0,0,0,1.4-3.18,3.23,3.23,0,0,0,3.05.62,3.44,3.44,0,0,0,2.33-.83,4,4,0,0,0,4.11,4.41h0a4.57,4.57,0,0,0,3.57-1.41c1.35-1.27,2.67-3.38,2.44-5.3A3.77,3.77,0,0,0,128.25,284.36Z" transform="translate(-7.1 -97.62)"/><path class="cls-9" d="M129.21,294.77a4,4,0,0,0-4.47-.37,4.17,4.17,0,0,0-2.27,3.94,4.35,4.35,0,0,0,.19,1A4.43,4.43,0,0,0,124,302a3.7,3.7,0,0,0,4.52.31l0,0a2.64,2.64,0,0,0,.74-.63,5.7,5.7,0,0,0,1.45-3.3A4.2,4.2,0,0,0,129.21,294.77Z" transform="translate(-7.1 -97.62)"/><path class="cls-9" d="M125.55,304.51a3.23,3.23,0,0,0-.45-.84,3.18,3.18,0,0,0-2.14-1.84c-2.25-.65-4.33,1.54-4.21,3.69a3.51,3.51,0,0,0,3.78,3.28A3.33,3.33,0,0,0,125.55,304.51Z" transform="translate(-7.1 -97.62)"/><path class="cls-10" d="M106.51,282.44s.12-.08.35-.2a2.9,2.9,0,0,1,1-.3,2.58,2.58,0,0,1,.69-.05,4.21,4.21,0,0,1,.78.08c.26.07.54.13.81.23s.52.25.78.38.48.33.7.51a3.69,3.69,0,0,1,.58.61,2.93,2.93,0,0,1,.43.65,2.61,2.61,0,0,1,.28.65,2.71,2.71,0,0,1,.17,1l0,.41-.33-.23-.75-.56-.47-.34c-.16-.12-.35-.23-.51-.36a6.18,6.18,0,0,1-.53-.36,6.37,6.37,0,0,0-.55-.35,4.76,4.76,0,0,0-.57-.34,6.32,6.32,0,0,0-.56-.33c-.19-.07-.36-.21-.54-.29s-.36-.19-.52-.26l-.85-.41A3.37,3.37,0,0,1,106.51,282.44Z" transform="translate(-7.1 -97.62)"/><path class="cls-10" d="M120.87,279.68a1.87,1.87,0,0,1,.31.12,2,2,0,0,1,.67.52,2.36,2.36,0,0,1,.33.46,3,3,0,0,1,.25.57,3.51,3.51,0,0,1,.14.66,5.45,5.45,0,0,1,0,.7c0,.23-.08.46-.15.68a3,3,0,0,1-.64,1.13,2.17,2.17,0,0,1-.43.38,1.92,1.92,0,0,1-.78.35l-.33,0,0-.32c0-.19.07-.45.12-.72s0-.28,0-.42,0-.3.06-.44,0-.3.06-.44,0-.3.06-.45a3.44,3.44,0,0,0,0-.45c0-.16,0-.31.06-.46s0-.3,0-.44,0-.29,0-.42Z" transform="translate(-7.1 -97.62)"/><path class="cls-10" d="M130.3,291.46a2,2,0,0,1-.09,1,2.09,2.09,0,0,1-.19.44,2.39,2.39,0,0,1-.29.44c-.13.13-.25.27-.4.4a5.66,5.66,0,0,1-.47.34l-.53.23a2.1,2.1,0,0,1-.55.13,1.89,1.89,0,0,1-.53,0,1.49,1.49,0,0,1-.47-.07,2.18,2.18,0,0,1-.68-.3l-.24-.19.22-.21a6.65,6.65,0,0,1,.51-.43,3.65,3.65,0,0,1,.31-.24,2.35,2.35,0,0,1,.32-.23,1.73,1.73,0,0,1,.34-.21c.13-.06.24-.14.36-.2s.25-.12.36-.19l.38-.16c.11-.07.26-.1.37-.16s.25-.09.36-.14C129.86,291.58,130.3,291.46,130.3,291.46Z" transform="translate(-7.1 -97.62)"/><path class="cls-10" d="M128.13,304.6a2,2,0,0,1-.6.57,1.38,1.38,0,0,1-.32.17,1.68,1.68,0,0,1-.4.11,3.49,3.49,0,0,1-.46,0,2,2,0,0,1-1-.37,1.85,1.85,0,0,1-.37-.37,1.6,1.6,0,0,1-.23-.45,1.18,1.18,0,0,1-.07-.45,1,1,0,0,1,.2-.65.86.86,0,0,1,.19-.19,1.07,1.07,0,0,0,.21.15,1.71,1.71,0,0,0,.43.2l.23.05a.71.71,0,0,1,.22.05.41.41,0,0,1,.19.05l.17.06.21.09a1.36,1.36,0,0,0,.24.13c.08,0,.17.11.26.15a1.45,1.45,0,0,1,.26.17A3.33,3.33,0,0,1,128.13,304.6Z" transform="translate(-7.1 -97.62)"/><path class="cls-11" d="M110.45,297.1a2.45,2.45,0,0,1-.47.13,3.6,3.6,0,0,1-1.3,0,4.09,4.09,0,0,1-.86-.2,4.9,4.9,0,0,1-.91-.41A6.47,6.47,0,0,1,106,296a7.58,7.58,0,0,1-.76-.84,8.79,8.79,0,0,1-.56-1,4.6,4.6,0,0,1-.32-1,3.86,3.86,0,0,1-.1-1,3.55,3.55,0,0,1,.09-.88,3.62,3.62,0,0,1,.46-1.22c.18-.27.29-.41.29-.41s0,.18.1.47.17.69.29,1.13l.24.68.29.72c.11.24.25.47.37.72a5.52,5.52,0,0,0,.43.68,5.23,5.23,0,0,0,.5.64,6.19,6.19,0,0,0,.55.59c.2.17.38.37.58.51l.58.45c.38.26.72.48,1,.62Z" transform="translate(-7.1 -97.62)"/><path class="cls-12" d="M121.38,298.6a2.44,2.44,0,0,1,.57.18l.24.12a1.75,1.75,0,0,1,.25.16l.25.18.24.21.22.23c.07.08.13.17.19.25a2.13,2.13,0,0,1,.16.25,1.34,1.34,0,0,1,.12.24,2.06,2.06,0,0,1,.15.4l0,.17-.17,0a1.42,1.42,0,0,1-.41-.14,1.34,1.34,0,0,1-.24-.12,1.28,1.28,0,0,1-.25-.15l-.25-.19-.23-.22-.22-.23-.19-.25c-.06-.08-.1-.17-.15-.25s-.09-.17-.13-.24A2.44,2.44,0,0,1,121.38,298.6Z" transform="translate(-7.1 -97.62)"/><path class="cls-12" d="M121.52,294.62a3.84,3.84,0,0,1,.57-.3l.27-.1c.1,0,.2-.09.3-.11l.32-.1.33-.08.33-.07a1.92,1.92,0,0,1,.32-.05l.32,0h.29a3.29,3.29,0,0,1,.46,0l.19,0-.11.16a2.7,2.7,0,0,1-.34.34l-.25.18a2.85,2.85,0,0,1-.3.16,2,2,0,0,1-.34.14l-.36.1-.37.06h-.37l-.34,0a2.27,2.27,0,0,1-.3-.06A2.08,2.08,0,0,1,121.52,294.62Z" transform="translate(-7.1 -97.62)"/><path class="cls-12" d="M118.36,292.7l.76-.57.35-.27c.12-.08.23-.2.37-.3s.25-.21.37-.33.25-.24.37-.36a4.17,4.17,0,0,0,.36-.37l.34-.37.3-.37.28-.34.41-.53.18-.22V289a2.69,2.69,0,0,1-.09.72,3,3,0,0,1-.14.46,3.8,3.8,0,0,1-.24.5,3.64,3.64,0,0,1-.32.48c-.13.16-.27.3-.4.45s-.31.27-.47.39a4.42,4.42,0,0,1-.49.31,2.7,2.7,0,0,1-.49.23,3.1,3.1,0,0,1-.47.14A2.69,2.69,0,0,1,118.36,292.7Z" transform="translate(-7.1 -97.62)"/><path class="cls-12" d="M115.22,292.32l.08-.27a4.43,4.43,0,0,0,.13-.64c0-.13,0-.27,0-.42s0-.29,0-.45a4,4,0,0,0-.06-.47,2.7,2.7,0,0,0-.09-.48,2.54,2.54,0,0,0-.14-.47c-.05-.15-.11-.29-.17-.44s-.13-.28-.2-.4-.14-.25-.22-.35a3.82,3.82,0,0,0-.4-.52l-.18-.21.28,0a1.91,1.91,0,0,1,.69.28,1.82,1.82,0,0,1,.4.3,2.25,2.25,0,0,1,.38.43,2.28,2.28,0,0,1,.3.53,5.29,5.29,0,0,1,.21.6c0,.21.07.41.08.62a4.08,4.08,0,0,1,0,.61,2.34,2.34,0,0,1-.15.55,1.88,1.88,0,0,1-.22.45,2,2,0,0,1-.49.56A2,2,0,0,1,115.22,292.32Z" transform="translate(-7.1 -97.62)"/><path class="cls-1" d="M242.27,235.24h0C242.24,235.17,242.25,235.18,242.27,235.24Z" transform="translate(-7.1 -97.62)"/><path class="cls-1" d="M242.52,235.73l0,.05C242.57,235.85,242.58,235.86,242.52,235.73Z" transform="translate(-7.1 -97.62)"/><path class="cls-1" d="M262.37,224.37c-1.17-1.13-2.73-1.16-3.92-2.2a7.41,7.41,0,0,0-4-1.85,7.16,7.16,0,0,0-4.83,1.11c-4.52-.88-9.33,4-7.46,8.38a8.83,8.83,0,0,0-.18,3.69s0,0,0,0a1.48,1.48,0,0,0-1.87-.9c-1.43.61-1.71,2.35-1.35,3.72a3.47,3.47,0,0,0,1,1.7,2.24,2.24,0,0,0,2.17.48,1.45,1.45,0,0,0,1-1.46,2.72,2.72,0,0,0-.3-1.22c-.06-.12-.21-.43-.27-.54l0-.06s0,0,0-.05l-.07-.23-.07-.34c0-.14,0-.28,0-.42,1.28,5.06,7.26,7.55,11.28,3.73a4.91,4.91,0,0,0,1.32-4.48c-.19-1.14-.77-2.9,1.24-2.21,1.76.6.46,2.86.65,4.29a4.72,4.72,0,0,0,2.26,3.61c3.67,1.95,6.05-2.05,5.94-5.22S264.76,226.67,262.37,224.37Zm-12.46,4.94a5.36,5.36,0,0,0-.48,3.25c.11.8.93,2-.21,1.66-2.3-.69-2.14-4.27-2.22-6a2.66,2.66,0,0,0-.31-1.17,1.11,1.11,0,0,1,.11-.37c.69-1.34,2.79-1.18,3.93-1.89l.12-.09a6.16,6.16,0,0,1,3.49.28,5.37,5.37,0,0,1,1.52,1.23A6,6,0,0,0,249.91,229.31Z" transform="translate(-7.1 -97.62)"/><path class="cls-8" d="M252,231s2.17,4.9-1.65,6.26-9.07-2.58-6.72-7.17c0,0-1.85-6.8,5.48-7.3,0,0,6.75-4.49,9.48,1.83a5.41,5.41,0,0,1,4.6,7.46c2,4.93-1.56,6.11-3.1,6.25s-4.13-3.7-2-6.7a2.68,2.68,0,0,1-1.8-2.1,2,2,0,0,1-2.58,0S253.9,230.61,252,231Z" transform="translate(-7.1 -97.62)"/><path class="cls-9" d="M256.64,223.45a2.65,2.65,0,0,0-2.3-1.12,2.73,2.73,0,0,0-2.13,1.42,2.3,2.3,0,0,0-.34,1.16c-.1,0-.19-.1-.3-.14l-.27-.08a2.75,2.75,0,0,0-2.08-.86,2.65,2.65,0,0,0-2.34,2,2.78,2.78,0,0,0,.31,2.21,3.8,3.8,0,0,0-.74.18,3.31,3.31,0,0,0-2.15,3.27,3.56,3.56,0,0,0,1,2.14,4.4,4.4,0,0,0,2.62,1.46,4.09,4.09,0,0,0,3.82-1.23,3.09,3.09,0,0,0,.57-3,3,3,0,0,0-.43-.79,2.64,2.64,0,0,0,1.78-1.58,2.6,2.6,0,0,0,.4.1,3.11,3.11,0,0,0,1.39-.09,2.61,2.61,0,0,0,1.48-1.31,3.6,3.6,0,0,0,.27-1.72A3.21,3.21,0,0,0,256.64,223.45Z" transform="translate(-7.1 -97.62)"/><path class="cls-9" d="M262.53,227.77a2.37,2.37,0,0,0-1.83-1.85,2.88,2.88,0,0,0-1.78.23,2.45,2.45,0,0,0-.68,4.62,2.36,2.36,0,0,0,1.91.1v0a3.77,3.77,0,0,0,1.41-.68A2.4,2.4,0,0,0,262.53,227.77Z" transform="translate(-7.1 -97.62)"/><path class="cls-9" d="M263.16,232.9a2.39,2.39,0,0,0-2.46-1.9,2.23,2.23,0,0,0-.86.19h-.06a2.32,2.32,0,0,0-1.15,3.47,2.53,2.53,0,0,0,3,.94A2.39,2.39,0,0,0,263.16,232.9Z" transform="translate(-7.1 -97.62)"/><path class="cls-10" d="M243.38,230.19a1.74,1.74,0,0,1,.08-.24,2,2,0,0,1,.34-.58,3.22,3.22,0,0,1,.32-.32,2.5,2.5,0,0,1,.41-.29,4.47,4.47,0,0,1,.49-.24c.17-.06.35-.1.53-.15a5.29,5.29,0,0,1,.56-.05,2.41,2.41,0,0,1,.54,0,2,2,0,0,1,.49.13,1.72,1.72,0,0,1,.41.19,1.84,1.84,0,0,1,.52.42l.16.21-.25,0-.61.06-.37,0c-.13,0-.26,0-.4,0l-.41.06c-.14,0-.27,0-.41.06s-.28,0-.42.08l-.41.08c-.12.05-.27.06-.39.1l-.36.1-.58.16Z" transform="translate(-7.1 -97.62)"/><path class="cls-10" d="M249.1,222.71l.19-.07a1.31,1.31,0,0,1,.55,0,1.17,1.17,0,0,1,.35.08,1.53,1.53,0,0,1,.37.17c.12.08.24.16.35.25s.2.22.3.34a3,3,0,0,1,.22.39,1.33,1.33,0,0,1,.14.41,1.46,1.46,0,0,1,0,.41,1.37,1.37,0,0,1,0,.36,1.3,1.3,0,0,1-.23.5l-.14.17-.11-.18-.26-.4-.15-.22-.16-.24a2,2,0,0,1-.16-.24l-.17-.24a1.77,1.77,0,0,0-.17-.24,1.67,1.67,0,0,0-.16-.24,2,2,0,0,1-.17-.23l-.17-.22Z" transform="translate(-7.1 -97.62)"/><path class="cls-10" d="M258.68,224.33a1.39,1.39,0,0,1,.39.53,1.42,1.42,0,0,1,.1.29,1.32,1.32,0,0,1,0,.34c0,.12,0,.24,0,.36s-.06.25-.09.37-.09.23-.15.34a2,2,0,0,1-.21.3,1,1,0,0,1-.24.23,1.28,1.28,0,0,1-.26.17,1.52,1.52,0,0,1-.46.15h-.2l0-.2c0-.11,0-.26.06-.42a1.11,1.11,0,0,1,.05-.25,1.14,1.14,0,0,1,.06-.25.78.78,0,0,1,.07-.25c0-.08,0-.16.08-.25l.1-.24.11-.24a1.63,1.63,0,0,1,.11-.23,1.67,1.67,0,0,1,.12-.23A5.24,5.24,0,0,1,258.68,224.33Z" transform="translate(-7.1 -97.62)"/><path class="cls-10" d="M263.26,231.58a1.36,1.36,0,0,1,0,.53.68.68,0,0,1-.09.22,1,1,0,0,1-.14.22,2.08,2.08,0,0,1-.21.21l-.29.16-.34.08a1,1,0,0,1-.34,0,.64.64,0,0,1-.3-.11.84.84,0,0,1-.23-.18.63.63,0,0,1-.18-.4.5.5,0,0,1,0-.18.49.49,0,0,0,.16,0,1.27,1.27,0,0,0,.3-.09l.13-.08.12-.07.11-.06.11,0,.14-.05a.86.86,0,0,0,.17,0,.65.65,0,0,1,.19,0l.2,0A2.22,2.22,0,0,1,263.26,231.58Z" transform="translate(-7.1 -97.62)"/><path class="cls-11" d="M251.55,235.55a1.63,1.63,0,0,1-.17.27,2.64,2.64,0,0,1-.61.57,2.94,2.94,0,0,1-.5.27,2.36,2.36,0,0,1-.62.19,3.83,3.83,0,0,1-.69.08,5.87,5.87,0,0,1-.72-.08,5.08,5.08,0,0,1-.69-.23,3.53,3.53,0,0,1-.6-.36,3.39,3.39,0,0,1-.48-.44,3.29,3.29,0,0,1-.33-.46,2.33,2.33,0,0,1-.3-.79c0-.2,0-.32,0-.32a2,2,0,0,0,.25.18c.16.12.38.26.63.42l.4.23.45.22.48.19a4.1,4.1,0,0,0,.5.14,4.34,4.34,0,0,0,.52.09,3,3,0,0,0,.52.05c.16,0,.34,0,.5,0l.46,0a6.36,6.36,0,0,0,.74-.12Z" transform="translate(-7.1 -97.62)"/><path class="cls-12" d="M257.45,231.59a1.71,1.71,0,0,1,.35-.16l.17,0,.18,0,.2,0h.21l.2,0,.2,0,.18.05a.76.76,0,0,1,.16.06,1.42,1.42,0,0,1,.25.13l.09.07-.1.06a1.35,1.35,0,0,1-.26.11l-.16,0-.19,0h-.41l-.2,0-.2,0-.18-.05-.16-.07A1.31,1.31,0,0,1,257.45,231.59Z" transform="translate(-7.1 -97.62)"/><path class="cls-12" d="M255.81,229.62a2.69,2.69,0,0,1,.15-.39.89.89,0,0,1,.08-.17,1.62,1.62,0,0,1,.1-.18l.11-.18.12-.18.13-.18c0-.06.09-.11.13-.16a1,1,0,0,1,.14-.15l.13-.13a2.91,2.91,0,0,1,.23-.2l.1-.06,0,.12a1.9,1.9,0,0,1,0,.31,1.62,1.62,0,0,1,0,.19.9.9,0,0,1-.08.21,2,2,0,0,1-.1.21l-.13.2-.15.19-.17.16-.18.14a1,1,0,0,1-.17.1A1.41,1.41,0,0,1,255.81,229.62Z" transform="translate(-7.1 -97.62)"/><path class="cls-12" d="M253.46,230.05l.13-.6,0-.28c0-.09,0-.2.05-.3s0-.21,0-.33a3.11,3.11,0,0,0,0-.33,1.82,1.82,0,0,0,0-.33v-.63l0-.28,0-.43v-.18l.13.13a1.63,1.63,0,0,1,.27.38,1.57,1.57,0,0,1,.13.29,2.68,2.68,0,0,1,.14.71c0,.12,0,.25,0,.39s0,.25-.06.38-.07.25-.1.36a2.37,2.37,0,0,1-.14.32,1.78,1.78,0,0,1-.17.27A1.68,1.68,0,0,1,253.46,230.05Z" transform="translate(-7.1 -97.62)"/><path class="cls-12" d="M251.8,231.21l-.08-.16a4,4,0,0,0-.21-.37l-.16-.21c-.06-.08-.14-.14-.2-.22a1.5,1.5,0,0,0-.23-.2,2.31,2.31,0,0,0-.24-.2c-.09,0-.18-.12-.27-.16l-.27-.14-.27-.1-.26-.08a3,3,0,0,0-.42-.08l-.17,0,.15-.1a1,1,0,0,1,.45-.17,1.12,1.12,0,0,1,.32,0,1.64,1.64,0,0,1,.37.05,1.77,1.77,0,0,1,.37.12l.35.2a2.73,2.73,0,0,1,.31.27,1.83,1.83,0,0,1,.24.31,1.41,1.41,0,0,1,.17.32,1.36,1.36,0,0,1,.08.32,1.25,1.25,0,0,1,0,.47C251.81,231.15,251.8,231.21,251.8,231.21Z" transform="translate(-7.1 -97.62)"/><path class="cls-1" d="M230.53,248.57a6.61,6.61,0,0,0-4,4.44c-.62,1.92.63,5.36-1.95,5.76-3,.46-1.72-1.83-1.17-3.35a6.89,6.89,0,0,0-.73-6.52c-5.78-7.86-19.11-2.26-17.49,8.36-3.65,5.58,1.79,13.51,8.24,13.42a10.08,10.08,0,0,0,6.41,2.71,10.37,10.37,0,0,0,6-1.56c1.9-1.14,4.05-.8,6-2.07,3.87-2.59,4.72-8.27,5.62-12.52S236.08,246.79,230.53,248.57ZM216,255.27a7.61,7.61,0,0,0-.13,4.6,8.43,8.43,0,0,0,7.45,5.78,7.8,7.8,0,0,1-2.4,1.33c-1.77.48-3.3,0-4.89-.49l-.14-.14c-1.4-1.27-4.33-1.56-5-3.59a1.68,1.68,0,0,1-.07-.53,3.62,3.62,0,0,0,.73-1.54c.54-2.39,1.19-7.37,4.53-7.77C217.76,252.72,216.32,254.19,216,255.27Z" transform="translate(-7.1 -97.62)"/><path class="cls-8" d="M219.1,258.12s4.21-6.24-.74-9.06-13.15,1.35-11,8.26c0,0-4.23,8.94,5.77,11.43,0,0,8.21,7.86,13.53-.19,7.92.22,8.91-7.12,8.19-9.18,4-6.31-.66-8.82-2.75-9.4s-6.61,4.1-4.45,8.76a3.77,3.77,0,0,0-3,2.46,2.82,2.82,0,0,0-3.57-.6S221.68,259.06,219.1,258.12Z" transform="translate(-7.1 -97.62)"/><path class="cls-9" d="M217.22,251.9a6.83,6.83,0,0,0-4.54-.23,3.06,3.06,0,0,0-2.07,1,3.43,3.43,0,0,0,.9,5.26l.11,0a7.14,7.14,0,0,0,4.27,1.5,3.87,3.87,0,0,0,3.67-3.16A4.06,4.06,0,0,0,217.22,251.9Z" transform="translate(-7.1 -97.62)"/><path class="cls-9" d="M219.13,262.84a3,3,0,0,0-2.23-2.26,5.69,5.69,0,0,0-4.46.62,3,3,0,0,0-1.54.59,3,3,0,0,0-1.25,2,2.78,2.78,0,0,0-.07,2,2.24,2.24,0,0,0,2.93,1.33,6.76,6.76,0,0,0,5.44-1.29A3,3,0,0,0,219.13,262.84Z" transform="translate(-7.1 -97.62)"/><path class="cls-9" d="M223.89,263.16a3.75,3.75,0,0,0-4.44,1.47,5.57,5.57,0,0,0-.88,1.9,3.36,3.36,0,0,0-.16.33,3.1,3.1,0,0,0,0,1.81,2.52,2.52,0,0,0,.91,1.35l.19.13a3.51,3.51,0,0,0,4.21.34,4,4,0,0,0,1.71-3.47A3.15,3.15,0,0,0,223.89,263.16Z" transform="translate(-7.1 -97.62)"/><path class="cls-9" d="M234.09,261.85a3.3,3.3,0,0,0-1.78-2.63,4.1,4.1,0,0,0-2.1-.44l-.37.05a3.19,3.19,0,0,0-2.88,1,3.05,3.05,0,0,0-.64,2.67,3.79,3.79,0,0,0,.92,2.69,3.63,3.63,0,0,0,4.07,1.08,3.58,3.58,0,0,0,2.11-2.38A2.6,2.6,0,0,0,234.09,261.85Z" transform="translate(-7.1 -97.62)"/><path class="cls-9" d="M234,251.82a3.56,3.56,0,0,0-3.18-.46,3.6,3.6,0,0,0-2.06,1.92,3.09,3.09,0,0,0,1.16,4.06,2.62,2.62,0,0,0,.9.28,3.16,3.16,0,0,0,2.31.13,3.44,3.44,0,0,0,2.3-2.49A3.31,3.31,0,0,0,234,251.82Z" transform="translate(-7.1 -97.62)"/><path class="cls-10" d="M207,257.05a1.89,1.89,0,0,0,.05.36,2.77,2.77,0,0,0,.34.88,2.71,2.71,0,0,0,.36.52,3.88,3.88,0,0,0,.49.51c.19.14.39.3.61.44s.47.23.71.34a7,7,0,0,0,.75.21,3.27,3.27,0,0,0,.76.08,3.2,3.2,0,0,0,.7-.06,3.39,3.39,0,0,0,.61-.16,2.67,2.67,0,0,0,.84-.46l.27-.25-.35-.1-.82-.23-.5-.14c-.18-.05-.36-.12-.54-.16a5.05,5.05,0,0,0-.55-.18c-.19,0-.38-.13-.56-.19a5.42,5.42,0,0,1-.56-.22,5,5,0,0,1-.54-.21c-.16-.09-.36-.14-.51-.23s-.34-.14-.48-.22l-.76-.37Z" transform="translate(-7.1 -97.62)"/><path class="cls-10" d="M213.1,268.79a2.08,2.08,0,0,0,.25.15,1.91,1.91,0,0,0,.74.18,2.22,2.22,0,0,0,.51,0,2.78,2.78,0,0,0,.55-.14,4.65,4.65,0,0,0,.55-.27,4.5,4.5,0,0,0,.5-.39,6,6,0,0,0,.4-.48,2.35,2.35,0,0,0,.29-.54,2.14,2.14,0,0,0,.15-.55,1.49,1.49,0,0,0,0-.51,1.75,1.75,0,0,0-.18-.75l-.16-.26-.2.22c-.11.13-.28.3-.45.48s-.18.18-.26.28a3.7,3.7,0,0,0-.28.28l-.29.29a1.92,1.92,0,0,1-.28.29,4,4,0,0,1-.29.29,2.65,2.65,0,0,1-.29.29c-.11.08-.19.2-.29.28s-.19.19-.29.26Z" transform="translate(-7.1 -97.62)"/><path class="cls-10" d="M226.72,268.9a1.89,1.89,0,0,0,.68-.63,1.94,1.94,0,0,0,.2-.38,2.07,2.07,0,0,0,.15-.46,4,4,0,0,0,.07-.5c0-.17,0-.35,0-.52s-.08-.35-.13-.51a1.75,1.75,0,0,0-.21-.46,1.62,1.62,0,0,0-.28-.39,1.79,1.79,0,0,0-.32-.3,1.72,1.72,0,0,0-.6-.31l-.26-.06,0,.27c0,.16,0,.38,0,.6s0,.24,0,.35,0,.25,0,.36,0,.25,0,.37,0,.24.06.36.05.24.07.36.06.24.09.36a3.57,3.57,0,0,0,.1.35,3.19,3.19,0,0,0,.11.33C226.56,268.52,226.72,268.9,226.72,268.9Z" transform="translate(-7.1 -97.62)"/><path class="cls-10" d="M234.84,260a1.83,1.83,0,0,0,.07-.75,1.2,1.2,0,0,0-.06-.32,1.76,1.76,0,0,0-.15-.35,3.43,3.43,0,0,0-.24-.33,3.51,3.51,0,0,0-.36-.29,2.57,2.57,0,0,0-.45-.2,1.28,1.28,0,0,0-.47-.05,1.33,1.33,0,0,0-.45.08,1.25,1.25,0,0,0-.36.2.87.87,0,0,0-.35.51,1.47,1.47,0,0,0,0,.24,1,1,0,0,1,.22.06,1.6,1.6,0,0,1,.39.2l.16.14.15.12a.72.72,0,0,0,.15.11l.14.09.18.1a1,1,0,0,1,.22.09,2,2,0,0,0,.26.1l.26.1A3.37,3.37,0,0,0,234.84,260Z" transform="translate(-7.1 -97.62)"/><path class="cls-11" d="M219.65,251.66a3.4,3.4,0,0,0-.17-.41,3.54,3.54,0,0,0-.71-.94,3.62,3.62,0,0,0-.63-.49,3.37,3.37,0,0,0-.8-.42,6.7,6.7,0,0,0-.93-.28,8.74,8.74,0,0,0-1-.07,6.45,6.45,0,0,0-1,.16,3.51,3.51,0,0,0-.92.35,3.64,3.64,0,0,0-.76.48,3.89,3.89,0,0,0-.58.56,3.28,3.28,0,0,0-.61,1c-.09.28-.13.43-.13.43l.4-.19c.24-.12.58-.26,1-.42l.62-.22L214,251l.71-.14a8.45,8.45,0,0,1,2.19,0c.23,0,.47.06.69.12l.64.17c.39.12.74.24,1,.34Z" transform="translate(-7.1 -97.62)"/><path class="cls-12" d="M226.81,258.58a1.76,1.76,0,0,0,.44.3l.23.11a1.84,1.84,0,0,0,.25.09l.27.08.28,0,.29,0h.28l.26,0,.24,0a1.79,1.79,0,0,0,.37-.12l.14-.08-.12-.1a2.54,2.54,0,0,0-.32-.21l-.22-.11a2,2,0,0,0-.26-.09,1.07,1.07,0,0,0-.27-.07l-.28,0-.29,0h-.28a2.06,2.06,0,0,0-.26,0l-.24,0A2.09,2.09,0,0,0,226.81,258.58Z" transform="translate(-7.1 -97.62)"/><path class="cls-12" d="M224.07,260.9a3.9,3.9,0,0,0,.1.58c0,.08.05.16.08.25s.05.18.09.27l.11.28.12.28.14.27a2.15,2.15,0,0,0,.14.26,2.52,2.52,0,0,0,.15.24l.15.22c.1.13.2.24.27.32l.12.12.06-.17a2.11,2.11,0,0,0,.05-.43,1.37,1.37,0,0,0,0-.28,1,1,0,0,0,0-.3,1.17,1.17,0,0,0-.09-.32l-.13-.31-.16-.3-.2-.26a1.55,1.55,0,0,0-.21-.23,1.9,1.9,0,0,0-.21-.19A1.81,1.81,0,0,0,224.07,260.9Z" transform="translate(-7.1 -97.62)"/><path class="cls-12" d="M220.93,259.73l0,.86v.4c0,.13,0,.28,0,.43s0,.3,0,.45a3.57,3.57,0,0,1,0,.46,3.4,3.4,0,0,1-.07.46l-.07.45-.09.42-.09.38-.15.6,0,.24.2-.14a2.57,2.57,0,0,0,.47-.47,2,2,0,0,0,.24-.36,2.58,2.58,0,0,0,.22-.44,2.91,2.91,0,0,0,.16-.5,5.12,5.12,0,0,0,.1-.54,4.87,4.87,0,0,0,0-.54c0-.18,0-.36-.05-.53a3.37,3.37,0,0,0-.12-.48,2.5,2.5,0,0,0-.16-.41A2.46,2.46,0,0,0,220.93,259.73Z" transform="translate(-7.1 -97.62)"/><path class="cls-12" d="M218.91,257.72l-.14.2a4.22,4.22,0,0,1-.39.45,3.38,3.38,0,0,1-.27.26c-.09.09-.22.16-.32.25a2.3,2.3,0,0,1-.37.23,2.87,2.87,0,0,1-.39.2,2.05,2.05,0,0,1-.41.16l-.41.13-.39.08c-.13,0-.26,0-.38,0a4,4,0,0,1-.59,0l-.25,0,.18.18a1.61,1.61,0,0,0,.58.34,1.89,1.89,0,0,0,.44.12,3,3,0,0,0,.52,0,3.35,3.35,0,0,0,.54-.08,4.93,4.93,0,0,0,.54-.19,4,4,0,0,0,.49-.29,4.89,4.89,0,0,0,.41-.37,2.33,2.33,0,0,0,.31-.41,2.2,2.2,0,0,0,.2-.41,1.85,1.85,0,0,0,.12-.66C218.92,257.81,218.91,257.72,218.91,257.72Z" transform="translate(-7.1 -97.62)"/><path class="cls-14" d="M138.42,204.7" transform="translate(-7.1 -97.62)"/><path class="cls-2" d="M133.82,221.05c-8.24-.64-4.18-15.82,4.6-16.35S144.16,221.85,133.82,221.05Z" transform="translate(-7.1 -97.62)"/><path class="cls-2" d="M139.16,264.32c7-8,29.72,10.79,20.15,21.56S132.13,272.29,139.16,264.32Z" transform="translate(-7.1 -97.62)"/><path class="cls-2" d="M219.71,233c-11.3.39-6.58-12.34,1.72-11.09S227,232.75,219.71,233Z" transform="translate(-7.1 -97.62)"/><path class="cls-2" d="M94.15,185.12C87,183,90.53,169.3,98.88,169.47S101.26,187.23,94.15,185.12Z" transform="translate(-7.1 -97.62)"/><path class="cls-2" d="M128.36,257.84c-4,1.23-3.77-6.57-.43-7.25S132.29,256.62,128.36,257.84Z" transform="translate(-7.1 -97.62)"/><path class="cls-2" d="M86.61,290.8c-8.8.37-10.74-20.75,1.8-22.55S95.4,290.42,86.61,290.8Z" transform="translate(-7.1 -97.62)"/><path class="cls-1" d="M199.29,223.5a1.71,1.71,0,0,0-2.87-.55,6.68,6.68,0,0,0-.83,1.28,4.67,4.67,0,0,1-.27.49,2.29,2.29,0,0,0-.27,1.07,1.7,1.7,0,0,0,.53,1.73,1.82,1.82,0,0,0,2,.2,2.23,2.23,0,0,0,1.29-1.08A3.67,3.67,0,0,0,199.29,223.5Z" transform="translate(-7.1 -97.62)"/><path class="cls-1" d="M243.33,250.56a4.43,4.43,0,0,0-1.7-1.71,1.36,1.36,0,0,0-1.64.32,1.4,1.4,0,0,0-.1,1.68l.06.09.13.25q-.06-.09,0,0c.08.21.12.43.18.64s.07.19.11.28,0,.13,0,.1a1.9,1.9,0,0,0,.64,1.21,1.53,1.53,0,0,0,1.81.11,1.91,1.91,0,0,0,.77-1.64A3.18,3.18,0,0,0,243.33,250.56Z" transform="translate(-7.1 -97.62)"/><path class="cls-1" d="M114.11,203.21a4.6,4.6,0,0,0-3.17-1.24c-1.36-.05-1.66,1.75-.86,2.54.18.18.49.55.63.71l.44.47.12.12.07.12a7.9,7.9,0,0,0,.61.79,2.33,2.33,0,0,0,1.46.94,1.36,1.36,0,0,0,1.79-.86C115.89,205.54,115.12,204.14,114.11,203.21Z" transform="translate(-7.1 -97.62)"/><path class="cls-1" d="M111.5,232a11.31,11.31,0,0,0-1.28,1.8l-.22.38,0,.09a1,1,0,0,0-.1.14,2.78,2.78,0,0,0-.38.82.45.45,0,0,1,0,.08l0,.08a1.56,1.56,0,0,0,1.9,2.15l.11,0,.37-.08a2.57,2.57,0,0,0,.75-.35,7.72,7.72,0,0,0,1.07-.9,4.47,4.47,0,0,0,1.26-2.51A2,2,0,0,0,111.5,232Z" transform="translate(-7.1 -97.62)"/><path class="cls-1" d="M115.49,229l-.2.1a.87.87,0,1,0,1.14,1l.07-.21A.77.77,0,0,0,115.49,229Z" transform="translate(-7.1 -97.62)"/><path class="cls-1" d="M149.64,204.45a1.61,1.61,0,0,0-.85-.43,3.52,3.52,0,0,0-.43-.13,1.57,1.57,0,0,0-1.52.51,1.51,1.51,0,0,0-.36,1.2,2.3,2.3,0,0,0,0,.26c0-.05,0-.06,0,0a2.49,2.49,0,0,0,0,.4s0,0,0,.09a2.56,2.56,0,0,0,0,.27,2.89,2.89,0,0,0,.12,1.43,2,2,0,0,0,1,1.09,2.21,2.21,0,0,0,1.5.1,2.52,2.52,0,0,0,1.72-2.61A3.09,3.09,0,0,0,149.64,204.45Z" transform="translate(-7.1 -97.62)"/><path class="cls-1" d="M158.38,188.79a1.7,1.7,0,1,0,1.81,1.58A1.73,1.73,0,0,0,158.38,188.79Z" transform="translate(-7.1 -97.62)"/><path class="cls-1" d="M102.67,153.66a2.83,2.83,0,0,0-1.71-1.39,1.18,1.18,0,0,0-1.37.91,6.1,6.1,0,0,0,.31,3.29,1.69,1.69,0,0,0,3.23-.22A3.47,3.47,0,0,0,102.67,153.66Z" transform="translate(-7.1 -97.62)"/><path class="cls-1" d="M92.2,159.35a2.5,2.5,0,0,0-.27-.6,1.5,1.5,0,0,0-2.58.18,2.23,2.23,0,0,0-.19.62,1.6,1.6,0,0,0,1.65,1.89,1.62,1.62,0,0,0,1.09-.53A1.66,1.66,0,0,0,92.2,159.35Z" transform="translate(-7.1 -97.62)"/><path class="cls-1" d="M171.9,272.78l-.2-.22-.06-.1a1.72,1.72,0,0,0-.25-.35l0-.08a1.85,1.85,0,0,0-1.69-.82,1.89,1.89,0,0,0-1.56,1,.25.25,0,0,0,0,.09l-.17.25-.18.52s0,.05,0,.07a1.69,1.69,0,0,0-.18.79,3.69,3.69,0,0,0,.07,1.1,2.93,2.93,0,0,0,.93,1.64,2.46,2.46,0,0,0,2.73.33,2.53,2.53,0,0,0,1.37-2.36A3.67,3.67,0,0,0,171.9,272.78Z" transform="translate(-7.1 -97.62)"/><path class="cls-1" d="M136.63,284.6a3.85,3.85,0,0,0-.51-1.42,3.17,3.17,0,0,0-1.58-1.17c.29.12.05,0-.1-.06a1.47,1.47,0,0,0-2,1.78v0a1.88,1.88,0,0,0,.09.57c-.07-.52,0,.32.06.36a3.58,3.58,0,0,0,.63,1.56,2,2,0,0,0,1.67.82,1.83,1.83,0,0,0,1.55-1A2.67,2.67,0,0,0,136.63,284.6Z" transform="translate(-7.1 -97.62)"/><path class="cls-1" d="M136.63,288.42l-.13,0a1,1,0,0,0,.13,1.92h.13C138,290.35,137.87,288.26,136.63,288.42Z" transform="translate(-7.1 -97.62)"/><path class="cls-1" d="M103.25,299.73a18.15,18.15,0,0,1-1.11-1.5,6.77,6.77,0,0,0-.67-1.12.88.88,0,0,0-1.49-.3,2.65,2.65,0,0,0-1.07,2.54,3.82,3.82,0,0,0,1.93,3.13C102.48,303.48,104.31,301.2,103.25,299.73Z" transform="translate(-7.1 -97.62)"/><path class="cls-1" d="M66.89,255a6.49,6.49,0,0,0-.78-2.85,1.88,1.88,0,0,0-2-.78c-1.67.79-1.78,2.77-1.88,4.43-.13,2-.45,4,1.51,5.1a2.07,2.07,0,0,0,2.08-.14C67.7,259.61,67.19,256.89,66.89,255Z" transform="translate(-7.1 -97.62)"/><path class="cls-1" d="M64.88,242.2a4.39,4.39,0,0,1-.12-.44v0c-.13-.91-.75-2-1.84-2a2.22,2.22,0,0,0-2,2.3,2.43,2.43,0,0,0,.33,1.67,3,3,0,0,0,.84.74l-.21-.14a1,1,0,0,0,.2.15,1.72,1.72,0,0,0,1.85.23,1.68,1.68,0,0,0,.92-1.58A2.11,2.11,0,0,0,64.88,242.2Z" transform="translate(-7.1 -97.62)"/><path class="cls-1" d="M63.19,233Z" transform="translate(-7.1 -97.62)"/><path class="cls-1" d="M65.8,234.1a2.68,2.68,0,0,0-.4-1,1.41,1.41,0,0,0-2.21-.14l-.2.18-.23.34c-.08.15-.16.31-.23.47a2,2,0,0,0,.17,2.1,1.69,1.69,0,0,0,2.3.44,2,2,0,0,0,.89-1.95Z" transform="translate(-7.1 -97.62)"/><path class="cls-15" d="M133.37,225.62c-6.53-3-12.16-11.06-8.21-15.44s8.07-13.73,17.33-12.92,16.28,12.08,7.39,16.31S143.2,230.18,133.37,225.62Z" transform="translate(-7.1 -97.62)"/><path class="cls-15" d="M137.79,273.27c-9.82-3.84-11.95-13-7.32-17.29s22.87-7,22.37,1.28S143.1,275.35,137.79,273.27Z" transform="translate(-7.1 -97.62)"/><path class="cls-15" d="M206.26,230.44c-3.65-2.5,4.83-17.78,12.07-12.81S216.71,237.61,206.26,230.44Z" transform="translate(-7.1 -97.62)"/><path class="cls-15" d="M105.4,160c-9.73-6.15-18.48-.47-18,5.88s10.69,13.76,15.49,12.49S110.89,163.43,105.4,160Z" transform="translate(-7.1 -97.62)"/><path class="cls-15" d="M81,302.61c-5.17,3.73-15.22-22.2-4.77-24.77S92.34,294.42,81,302.61Z" transform="translate(-7.1 -97.62)"/><path class="cls-15" d="M255.31,260c-7.75.36-3.12-17.42,7.75-15.83S263,259.67,255.31,260Z" transform="translate(-7.1 -97.62)"/><path class="cls-15" d="M71.5,208.27c-6.6,3.54-10.23-13.38-3-17.7S81.6,202.84,71.5,208.27Z" transform="translate(-7.1 -97.62)"/><path class="cls-15" d="M99.19,265.82c-6.31-2.56-.18-11.08,3.83-9.16S105.5,268.38,99.19,265.82Z" transform="translate(-7.1 -97.62)"/><path class="cls-16" d="M99.26,163.36a3.74,3.74,0,0,0-1-1,2.92,2.92,0,0,0-1.13-1,3.2,3.2,0,0,0-3.27.42,4.17,4.17,0,0,0-1.68,4.1,6,6,0,0,0,1.64,2.59,2.9,2.9,0,0,0,3.58.17,3.75,3.75,0,0,0,1.49-1A3.54,3.54,0,0,0,99.26,163.36Z" transform="translate(-7.1 -97.62)"/><path class="cls-16" d="M101.78,171.07a2.06,2.06,0,0,0-1.37-.55,2.45,2.45,0,0,0-1,.14,2.23,2.23,0,0,0-1.31.78c-.35.53-.42.62-.2.28l-.2.3a2.32,2.32,0,0,0-.27,1.24,2.78,2.78,0,0,0,1.82,2.48,2.65,2.65,0,0,0,3.39-1.92A3,3,0,0,0,101.78,171.07Z" transform="translate(-7.1 -97.62)"/><path class="cls-16" d="M145.37,199.87a5,5,0,0,0-3.77-.36,5.74,5.74,0,0,0-4.21.63,5.16,5.16,0,0,0-2.33,5.88,5.08,5.08,0,0,0,.39,1,3.13,3.13,0,0,0-2.67-.38,2.5,2.5,0,0,0-1.67,2.38l-.05.24h0a6.63,6.63,0,0,0-.13,1.48,2.7,2.7,0,0,0,2.85,2.49,3.39,3.39,0,0,0,3.07-3.63c0-.14,0-.28-.06-.42a5.82,5.82,0,0,0,.76.91,5.66,5.66,0,0,0,5.78,1.23,4.25,4.25,0,0,0,3.95-2.47C149.85,206.18,148.6,201.44,145.37,199.87Z" transform="translate(-7.1 -97.62)"/><path class="cls-16" d="M135.42,261.68a2.36,2.36,0,0,0-2.3-1.34l-.13,0a2.61,2.61,0,0,0-2.05,1.36,2.44,2.44,0,0,0,0,2.2,2.46,2.46,0,0,0,4,.53l.09-.12A2.41,2.41,0,0,0,135.42,261.68Z" transform="translate(-7.1 -97.62)"/><path class="cls-16" d="M146.74,256.83a4.88,4.88,0,0,0-4.29-2.37,4.26,4.26,0,0,0-3.19,1.69,4.77,4.77,0,0,0-1.66,2.73c-.65,3.19,2.52,6,5.58,5.57A5.14,5.14,0,0,0,146.74,256.83Z" transform="translate(-7.1 -97.62)"/><path class="cls-16" d="M216,220.12a2.5,2.5,0,0,0-3-.18,2.55,2.55,0,0,0-1,2.78,3.47,3.47,0,0,0-.34,1.87,2.48,2.48,0,0,0,1.34,2,2.52,2.52,0,0,0,2.45-.17,3.9,3.9,0,0,0,1.75-2.72A4,4,0,0,0,216,220.12Z" transform="translate(-7.1 -97.62)"/><path class="cls-16" d="M258.88,253.39a1.93,1.93,0,0,0-2.12-.72,1.84,1.84,0,0,0-1.11.9,2.32,2.32,0,0,0-.47,1.9,2.23,2.23,0,0,0,2.33,1.79,2.31,2.31,0,0,0,2-1.78A2.26,2.26,0,0,0,258.88,253.39Z" transform="translate(-7.1 -97.62)"/><path class="cls-16" d="M72.09,190.77a4.37,4.37,0,0,0-3.33-.11,3.68,3.68,0,0,0-2.3,3.53,2.27,2.27,0,0,0,.77,1.73,4.31,4.31,0,0,0,4.66,3.21A2.8,2.8,0,0,0,74.36,197C74.81,194.62,74.52,191.93,72.09,190.77Z" transform="translate(-7.1 -97.62)"/><path class="cls-16" d="M76.39,283A4.56,4.56,0,0,0,75,288.7a5,5,0,0,0,.68,1c.05.1.1.22.16.32a4.38,4.38,0,0,0,5.77,1.65,5.2,5.2,0,0,0,2.77-4.77A5,5,0,0,0,76.39,283Z" transform="translate(-7.1 -97.62)"/><path class="cls-16" d="M77.4,294.38c-2.53,1.65,0,5.55,2.46,3.85C82.21,296.63,79.82,292.79,77.4,294.38Z" transform="translate(-7.1 -97.62)"/><path class="cls-17" d="M187.68,259.05s3.25,12-4.51,18.14l6.43,2.28s7.46-11.7,3.85-20.42Z" transform="translate(-7.1 -97.62)"/><path class="cls-17" d="M132.32,232.87s-6.78,10.41-16.54,8.72l2.58,6.33s13.7-2.24,17.8-10.74Z" transform="translate(-7.1 -97.62)"/><path class="cls-17" d="M172.45,198s12.41-.38,16.59,8.61l3.72-5.74s-9.65-10-19-8.48Z" transform="translate(-7.1 -97.62)"/><path class="cls-17" d="M83.14,154.63s7-10.24,16.74-8.31l-2.42-6.39s-13.75,1.9-18.06,10.3Z" transform="translate(-7.1 -97.62)"/><path class="cls-17" d="M100.65,310.78S88.43,313,83,304.66l-2.85,6.21s11,8.47,20,5.66Z" transform="translate(-7.1 -97.62)"/></svg>