<svg id="Camada_1" data-name="Camada 1" xmlns="http://www.w3.org/2000/svg" viewBox="0 0 285.88 248.5"><defs><style>.cls-1{fill:#e7bd53;}.cls-2{fill:#edde7e;}.cls-3{fill:#c5521e;}.cls-4{fill:#f4e999;}.cls-5{fill:#d8a538;}.cls-6{fill:#bf912a;}.cls-7{fill:#e6bc56;}.cls-8{fill:#dcc6de;}.cls-9{fill:#f3e5f0;}.cls-10{fill:#6a6549;}.cls-11{fill:#d99a9a;}.cls-12{fill:#f9f4ca;}</style></defs><title>cogumelo</title><path class="cls-1" d="M82.18,330.3s90.8-45.56,130.7-68.45,78.26-49.3,79.54-54.05-113.7-51-122.19-53.12S108.9,131,93.37,124.43,65,116.52,59.63,116.69,23.42,163,29.34,204.46,48.12,323.38,82.18,330.3Z" transform="translate(-6.55 -98.83)"/><path class="cls-2" d="M94.72,318.32s74.69-37.45,110.46-58,71.3-48.46,72.45-52.72S174.56,166.2,166.94,164.27,112,143,98,137.15s-25.47-7.09-30.24-6.94S52,167.48,57.3,204.69,72.07,302,94.72,318.32Z" transform="translate(-6.55 -98.83)"/><path class="cls-3" d="M79.25,326.79c4.83-8,3.38-15.94-.33-23.29-.44-4.66-3.26-9-5.53-13-2.94-5.09-6.33-10.27-7.65-16.07-2.06-9,.24-18.2-1.76-27.11a69.08,69.08,0,0,0-3.76-18.1c-2.61-7.76-2.95-15.42-3.52-23.53-.17-2.38-.33-4.77-.5-7.16,7.18-.52,5.84-10.89,4.4-15.85-2.27-7.77-6.1-14.25-5.79-22.59a1.38,1.38,0,0,0-.5-1.12,29.79,29.79,0,0,1,.82-3.95c1.92-6.61,5.79-12.48,8.88-18.57,2.79-5.49,6.16-12.62,4-18.78-.59-1.65-3-1.31-3.54.14-1.08,2.72-1.41,5.6-2.37,8.38a60,60,0,0,1-3.81,8.56c-2.8,5.3-6,10.42-8.12,16.05-2.34,6.18-2.65,12.38-2.31,18.93.44,8.57,1,17.14,1.53,25.7.49,8.27.53,16.68,1.62,24.9,1,7.46,4.48,14.23,5.74,21.64C59,255.57,53,269.83,58.27,283c5.46,13.69,23.85,24.8,15.85,41.16C72.68,327.08,77.55,329.62,79.25,326.79Z" transform="translate(-6.55 -98.83)"/><path class="cls-3" d="M64.9,201.49a3.23,3.23,0,0,0,.37-3.35,2.85,2.85,0,0,0-3-1.59,3.17,3.17,0,0,0-.44.12,2.24,2.24,0,0,0-1.58.86A1.8,1.8,0,0,0,60,198l.41-.46a3.12,3.12,0,0,0-1,1.94,4.44,4.44,0,0,0,0,1.26,2.71,2.71,0,0,0,2.4,2.23A3.47,3.47,0,0,0,64.9,201.49Z" transform="translate(-6.55 -98.83)"/><path class="cls-3" d="M71.39,256.12a11.67,11.67,0,0,0-.57-9.5c-.71-1.37-2.87-2.3-4.14-1a5.09,5.09,0,0,0-1.33,4.93,8.88,8.88,0,0,0-.12,1.54,9.06,9.06,0,0,0,1.61,4.79C68,258.7,70.73,257.82,71.39,256.12Z" transform="translate(-6.55 -98.83)"/><path class="cls-4" d="M96.18,311.06c-4.76,1-12-22.7-15.63-31.95s-3.43-54.69-7.61-61.62-7-31-5.3-44.42S76.13,142.9,80,141.46s37.93,5.16,50.12,14.11,71,29.38,86.49,35.55,35.59,14.94,37.49,20.37-31.4,27.3-41.3,31-39.35,16.34-49.49,22.62S115,307.16,96.18,311.06Z" transform="translate(-6.55 -98.83)"/><path class="cls-5" d="M53.63,346.55c-5.27-1.42-31-40.14-42.21-102.33S10.13,119.4,23.54,104.52s42.61,3,43.23,12.59-14.94,34.38-15.51,38.83S49,206.41,53.53,218.69s8.08,30,5.85,43.15c-1.49,2.33,12.58,36.44,17.9,46.7s7.91,15.57,7.29,23.1S67.89,350.38,53.63,346.55Z" transform="translate(-6.55 -98.83)"/><path class="cls-6" d="M50.34,155.33s-.41-.21-1.05-.59l-2.61-1.53c-.51-.32-1.11-.61-1.69-1s-1.25-.63-1.86-1-1.3-.71-2-1-1.37-.68-2.06-1-1.38-.68-2.09-.94l-2.06-.89c-.68-.24-1.33-.55-2-.79s-1.23-.49-1.8-.72l-1.57-.6-1.25-.5-1.12-.48,1.16-.41a8.48,8.48,0,0,1,1.36-.33,10.3,10.3,0,0,1,1.79-.22,12.73,12.73,0,0,1,2.14,0,14.55,14.55,0,0,1,2.37.31,16.44,16.44,0,0,1,2.47.66c.83.28,1.63.65,2.45,1s1.56.83,2.29,1.31,1.4,1,2,1.53A17,17,0,0,1,47,149.76a13,13,0,0,1,1.34,1.66,11.23,11.23,0,0,1,1,1.52,9.4,9.4,0,0,1,.61,1.25C50.21,154.91,50.34,155.33,50.34,155.33Z" transform="translate(-6.55 -98.83)"/><path class="cls-6" d="M53.35,214.78s-.35.08-.92.18-1.37.21-2.28.31c-.45,0-.94.13-1.45.16s-1,.15-1.57.14-1.1.08-1.66.16-1.12.07-1.68.12-1.14.05-1.69.11-1.11.08-1.65.09-1.07.06-1.58.07-1,0-1.45,0c-.92,0-1.73,0-2.31,0l-1-.08.61-.75a9.48,9.48,0,0,1,1.87-1.56,8.14,8.14,0,0,1,1.4-.8,9.46,9.46,0,0,1,1.66-.68,12.22,12.22,0,0,1,1.85-.47c.64-.11,1.3-.17,2-.24s1.32,0,2,0,1.28.16,1.89.26a12.48,12.48,0,0,1,1.73.46,10.76,10.76,0,0,1,1.49.61,9.76,9.76,0,0,1,2.06,1.29A9.07,9.07,0,0,1,53.35,214.78Z" transform="translate(-6.55 -98.83)"/><path class="cls-6" d="M56.28,266.71a7.91,7.91,0,0,1-.28,1,12.28,12.28,0,0,1-2.15,3.7,12.1,12.1,0,0,1-1.31,1.39c-.5.43-1,.88-1.58,1.29s-1.19.75-1.8,1.11-1.28.6-1.94.85a11.73,11.73,0,0,1-1.95.58,9.92,9.92,0,0,1-1.9.28,9.07,9.07,0,0,1-1.72,0,9.77,9.77,0,0,1-2.55-.44l-1-.35.85-.54c.53-.31,1.27-.74,2.13-1.19.43-.23.88-.48,1.36-.72s1-.53,1.5-.76,1-.54,1.56-.79,1.07-.54,1.61-.81,1.09-.52,1.6-.83,1.06-.53,1.57-.79,1-.5,1.49-.78,1-.47,1.38-.71c.86-.44,1.62-.81,2.18-1.07S56.28,266.71,56.28,266.71Z" transform="translate(-6.55 -98.83)"/><path class="cls-6" d="M62.65,339.71s.3-.34.84-.85c.27-.24.58-.56.94-.91s.76-.73,1.18-1.15.86-.89,1.35-1.35.91-1,1.43-1.5,1-1.05,1.45-1.64,1-1.13,1.46-1.71,1-1.15,1.38-1.76L74,327.1c.38-.6.83-1.15,1.2-1.7l1.07-1.56,1.67-2.46.7-1,.16,1.19a8.55,8.55,0,0,1,0,1.38,9.69,9.69,0,0,1-.17,1.78,11.33,11.33,0,0,1-.46,2.06,13.87,13.87,0,0,1-.82,2.21,14.15,14.15,0,0,1-1.21,2.22c-.45.74-1,1.42-1.52,2.13s-1.18,1.3-1.82,1.88-1.33,1.08-2,1.57a15.5,15.5,0,0,1-2,1.21,13.15,13.15,0,0,1-1.93.84,10.63,10.63,0,0,1-1.7.51,9.41,9.41,0,0,1-1.36.23A11.27,11.27,0,0,1,62.65,339.71Z" transform="translate(-6.55 -98.83)"/><path class="cls-7" d="M76.93,317.87c-2.52,8.35-9.89,22.51-22.08,18.78s-25.5-36.54-23.79-45.21,18.3-18.08,24.38-13.58S77.88,310.17,75.14,319" transform="translate(-6.55 -98.83)"/><path class="cls-7" d="M57.74,131.14c-4.52,9.93-8.39,13.51-11.83,12.83s-20.49-1.11-20.1-13.27,6.86-26.48,17-26.34,14.39,8.12,16.8,12.33S59.24,127.82,57.74,131.14Z" transform="translate(-6.55 -98.83)"/><path class="cls-7" d="M53.29,254.57c4.35-14.64-10.74-32-15.51-34.21s-10.3-3.79-2.25-7.84c4.09-1.82,6.74-6,8.46-11.27a56.68,56.68,0,0,0,3-19.75c.06-1.14.11-2.27.15-3.4.56-15.82-4.68-25.17-14.42-26.38-4.5-.55-9.24,2.72-12.92,8.31h0c-2,2.35-4,6.12-5.25,12.64A46.88,46.88,0,0,0,13.37,182a177.66,177.66,0,0,0,.23,24.74c2.08,30.47,11,66.25,14.61,68.47S48.94,269.21,53.29,254.57Z" transform="translate(-6.55 -98.83)"/><path class="cls-2" d="M113.23,246.91a13.56,13.56,0,0,0,3.86-9.93,14.78,14.78,0,0,0,4.45-1.23,12.85,12.85,0,0,0,7.15-14.36,20.34,20.34,0,0,0-9.83-13.21,17.1,17.1,0,0,0-5.82-2c-8-4.3-19.32-3.59-24,5.08-3.2,6-1.39,12.55,2.72,17.28-2.94,2.43-4.82,5.91-4,9.95,1,5.12,5.3,9.39,10.09,11.14C103,251.5,109.23,250.72,113.23,246.91ZM104.58,224c-3.2-.55-8.44-5.42-5.07-8.59a6,6,0,0,1,4.13-1.6,2.37,2.37,0,0,0,.46.63c3.75,3.65,9.78,2.33,13.06,7,1.55,2.22,2.11,4.61-.73,5.83a10.47,10.47,0,0,1-4.61.45,5.52,5.52,0,0,0-2.74.05A5.55,5.55,0,0,0,104.58,224Zm-2.49,15.38c-1.32-.33-3.14-1.25-3.59-2.66-.26-.83-1.06.22.68-1.11.49-.37.94-.77,1.39-1.18a17.1,17.1,0,0,0,3,.67,5.94,5.94,0,0,0,2.31-.15C106,237.71,106,240.36,102.09,239.38Z" transform="translate(-6.55 -98.83)"/><path class="cls-8" d="M99.78,227.33s-6.62,2-8.33-7.73,9.29-16.25,23.8-10.26,12.73,26.81-3.91,25.27c0,0,3.19,9.27-5.53,12.8s-16.38-6.65-16.45-8.65S89.06,232.78,99.78,227.33Z" transform="translate(-6.55 -98.83)"/><path class="cls-9" d="M101.91,226.13s-6.89,2.58-8.32-5.53S101.35,207,113.48,212s11.44,22.46-2.47,21.17c0,0,1.87,7.7-5.42,10.65s-12.68-5.26-12.74-6.93S93,230.69,101.91,226.13Z" transform="translate(-6.55 -98.83)"/><path class="cls-10" d="M99.78,227.33l.7-.67a22.2,22.2,0,0,0,1.63-1.76,11.05,11.05,0,0,0,.86-1.22,5.86,5.86,0,0,0,.61-1.36,3.23,3.23,0,0,0,.12-1.37,3,3,0,0,0-.39-1.2,2.13,2.13,0,0,0-.89-.78,5,5,0,0,0-.62-.26c-.24,0-.46-.13-.71-.14a5.86,5.86,0,0,0-.73,0,3.49,3.49,0,0,0-.72.05,5.86,5.86,0,0,0-1.31.36,4.5,4.5,0,0,0-1.73,1.29,3.76,3.76,0,0,0-.37.57l-.13.22,0-.25a4.1,4.1,0,0,1,0-.75,4,4,0,0,1,1.3-2.48A4.86,4.86,0,0,1,99,216.48a4,4,0,0,1,1-.35,4.68,4.68,0,0,1,1.14-.16,8.25,8.25,0,0,1,1.21,0,5.17,5.17,0,0,1,1.25.39,4.92,4.92,0,0,1,2.16,1.8,5.72,5.72,0,0,1,.74,2.63,6,6,0,0,1-.58,2.46,6.09,6.09,0,0,1-1.3,1.74,7.45,7.45,0,0,1-1.45,1.12,8.73,8.73,0,0,1-2.42,1A5.45,5.45,0,0,1,99.78,227.33Z" transform="translate(-6.55 -98.83)"/><path class="cls-10" d="M111.39,234.9s-.15-.26-.36-.7a13.93,13.93,0,0,1-.74-1.87A10.55,10.55,0,0,1,110,231a9.44,9.44,0,0,1-.17-1.57,9.59,9.59,0,0,1,.17-1.8,6.72,6.72,0,0,1,.82-1.88,5,5,0,0,1,1.75-1.44,5.17,5.17,0,0,1,1.91-.48,4.55,4.55,0,0,1,1.81.2,3.54,3.54,0,0,1,1.5.85,2.45,2.45,0,0,1,.7,1.32,2.19,2.19,0,0,1-.08,1,2.94,2.94,0,0,1-.27.56l-.1.17,0-.2a2.8,2.8,0,0,0-.17-.52,1.55,1.55,0,0,0-1-1,3.53,3.53,0,0,0-.89-.07,6,6,0,0,0-1,.19,7.66,7.66,0,0,0-1,.43,2.15,2.15,0,0,0-.66.58,3.55,3.55,0,0,0-.51,1,6.63,6.63,0,0,0-.34,1.22c-.06.44-.18.87-.22,1.3l-.16,1.25c-.1.79-.22,1.48-.33,2S111.39,234.9,111.39,234.9Z" transform="translate(-6.55 -98.83)"/><path class="cls-2" d="M176.53,181.9c-2.69-6.25-8.93-8.94-15.18-8.69-.07-3.81-1.61-7.45-5.25-9.36-4.62-2.43-10.64-1.74-15,.9a16.21,16.21,0,0,0-6.07,6.64c0-.17,0-.34,0-.5-.76-5.55-7.25-7.55-11.4-4.12a11.64,11.64,0,0,0-4,8.43c-.1,4.32,2.1,9.22,7.1,9.05,3.46-.12,5.66-2.66,6.66-5.66l.26-.43a2.81,2.81,0,0,1,0,.29,13.65,13.65,0,0,0,5.34,9.23,14.81,14.81,0,0,0-1.82,4.24,12.85,12.85,0,0,0,6.72,14.55,20.37,20.37,0,0,0,16.47.6,17.55,17.55,0,0,0,5.19-3.31C173.89,200.19,180.4,190.94,176.53,181.9Zm-30.05-7.43c1.07-.82,2.93-1.67,4.31-1.14.81.32.49-1,.44,1.22,0,.62,0,1.22.05,1.83a16.2,16.2,0,0,0-2.38,1.91,5.55,5.55,0,0,0-1.33,1.89C145.3,178.59,143.24,176.92,146.48,174.47Zm18.19,17.16c-5.19.65-7.93,6.18-13.65,5.8-2.71-.18-4.92-1.23-4.09-4.22a10.46,10.46,0,0,1,2.52-3.88,5.5,5.5,0,0,0,1.68-2.16,5.56,5.56,0,0,0,5.78-1.14c2.43-2.15,9.51-3.2,9.88,1.42a6.11,6.11,0,0,1-1.33,4.22A2.64,2.64,0,0,0,164.67,191.63Z" transform="translate(-6.55 -98.83)"/><path class="cls-8" d="M157.32,180.21s2.6-6.41,11.24-1.67,6.87,17.41-6.88,25-28.88-6.84-17.27-18.86c0,0-9.23-3.31-6.53-12.32s15.43-8.63,17-7.43S159.77,168.43,157.32,180.21Z" transform="translate(-6.55 -98.83)"/><path class="cls-9" d="M156.92,182.61s2.3-7,9.52-3,5.75,14.55-5.75,20.88-24.68-5.12-15-15.17c0,0-7.18-3.36-4.92-10.89s12-6.61,13.38-5.61S159,172.77,156.92,182.61Z" transform="translate(-6.55 -98.83)"/><path class="cls-10" d="M157.32,180.21l.08,1a24,24,0,0,0,.35,2.37,12.87,12.87,0,0,0,.42,1.43,6.16,6.16,0,0,0,.68,1.33,3.19,3.19,0,0,0,1,.95,2.91,2.91,0,0,0,1.19.45,2.1,2.1,0,0,0,1.16-.21,5.7,5.7,0,0,0,.59-.32,6.19,6.19,0,0,0,.55-.47,4.2,4.2,0,0,0,.48-.55,3,3,0,0,0,.41-.59,5.63,5.63,0,0,0,.54-1.25,4.43,4.43,0,0,0,.08-2.15,3.83,3.83,0,0,0-.21-.65l-.1-.24.21.14a3.94,3.94,0,0,1,.61.45,4,4,0,0,1,1.12,2.56,4.83,4.83,0,0,1-.18,1.94,4.31,4.31,0,0,1-.37,1,5.56,5.56,0,0,1-.58,1,9.75,9.75,0,0,1-.8.92,5.39,5.39,0,0,1-1.08.73,5,5,0,0,1-2.75.56,5.73,5.73,0,0,1-2.52-1.07,6,6,0,0,1-1.56-2,6.41,6.41,0,0,1-.55-2.11,7.26,7.26,0,0,1,0-1.82,8.94,8.94,0,0,1,.73-2.52A5.48,5.48,0,0,1,157.32,180.21Z" transform="translate(-6.55 -98.83)"/><path class="cls-10" d="M144.15,184.52s.29,0,.77.16a14.46,14.46,0,0,1,1.92.6,7.84,7.84,0,0,1,1.24.56,8.66,8.66,0,0,1,1.34.84,9.51,9.51,0,0,1,1.29,1.26,6.57,6.57,0,0,1,1,1.82,5.09,5.09,0,0,1,0,2.26,5.49,5.49,0,0,1-.82,1.8,4.66,4.66,0,0,1-1.29,1.29,3.5,3.5,0,0,1-1.6.63,2.37,2.37,0,0,1-1.47-.28,2.28,2.28,0,0,1-.76-.7,3.51,3.51,0,0,1-.26-.56l-.07-.19.19.08a2.7,2.7,0,0,0,.51.2,1.57,1.57,0,0,0,1.39-.2,3.47,3.47,0,0,0,.6-.65,5.46,5.46,0,0,0,.51-.93,6,6,0,0,0,.29-1.06,2.21,2.21,0,0,0,0-.87,3.83,3.83,0,0,0-.46-1,6.34,6.34,0,0,0-.74-1c-.3-.31-.57-.68-.88-1l-.87-.91c-.55-.57-1-1.1-1.32-1.48S144.15,184.52,144.15,184.52Z" transform="translate(-6.55 -98.83)"/><path class="cls-2" d="M258.79,213.6a11.19,11.19,0,0,0-5.87-6.5,11.84,11.84,0,0,0,.75-3.72,10.58,10.58,0,0,0-7.9-10.54,16.72,16.72,0,0,0-13.33,2.34,14.4,14.4,0,0,0-3.6,3.55c-6.11,4.3-9.76,12.85-5.1,19.44,3.23,4.56,8.7,5.65,13.68,4.38.71,3,2.56,5.71,5.82,6.62,4.13,1.16,8.85-.42,11.9-3.29C258.37,222.84,260.11,217.94,258.79,213.6Zm-20-2.1c-1.58,2.14-7.09,4.2-8.17.55a5,5,0,0,1,.34-3.62,2.25,2.25,0,0,0,.64-.1c4.06-1.41,5.31-6.33,10-7,2.21-.32,4.16.15,4,2.69a8.52,8.52,0,0,1-1.37,3.55,4.52,4.52,0,0,0-1,2A4.58,4.58,0,0,0,238.79,211.5Zm10.36,7.5c-.72.84-2.07,1.84-3.27,1.65-.7-.12-.23.86-.56-.91-.1-.49-.22-1-.36-1.45a13.42,13.42,0,0,0,1.59-1.95,4.71,4.71,0,0,0,.75-1.75C249.39,215.48,251.33,216.47,249.15,219Z" transform="translate(-6.55 -98.83)"/><path class="cls-8" d="M239.46,216.24s-1,5.59-8.74,3.27-8.5-12.81,1.25-21.25,24.36.55,17.09,12.19c0,0,8,1.08,7.36,8.78S245.5,228.8,244,228.11,239.51,226.13,239.46,216.24Z" transform="translate(-6.55 -98.83)"/><path class="cls-9" d="M239.37,214.24s-.65,6-7.13,4.06-7.11-10.7,1-17.75,20.7-.11,14.63,9.62c0,0,6.33,1.47,5.81,7.9s-8.54,7.37-9.79,6.8S239.41,222.5,239.37,214.24Z" transform="translate(-6.55 -98.83)"/><path class="cls-10" d="M239.46,216.24l-.28-.75c-.18-.47-.44-1.12-.78-1.82-.18-.34-.39-.7-.61-1a4.76,4.76,0,0,0-.77-.88,2.27,2.27,0,0,0-.9-.51,2.12,2.12,0,0,0-.9-.13,1.48,1.48,0,0,0-.76.3c-.14.07-.24.23-.39.32s-.25.26-.35.42a4.75,4.75,0,0,0-.52,1,4.56,4.56,0,0,0-.27,1,3.61,3.61,0,0,0,.2,1.73,3,3,0,0,0,.25.51l.1.19-.2-.07a3.23,3.23,0,0,1-.59-.23,3.31,3.31,0,0,1-1.45-1.88,4,4,0,0,1-.23-1.65,4.49,4.49,0,0,1,.41-1.85,6,6,0,0,1,.5-.92,4.24,4.24,0,0,1,.77-.82,4.3,4.3,0,0,1,2.25-1,4.84,4.84,0,0,1,2.33.45,5,5,0,0,1,1.66,1.41,5.24,5.24,0,0,1,.81,1.67,6.33,6.33,0,0,1,.25,1.52,7,7,0,0,1-.25,2.18A4.43,4.43,0,0,1,239.46,216.24Z" transform="translate(-6.55 -98.83)"/><path class="cls-10" d="M249.3,210.52s-.25,0-.66,0a9.38,9.38,0,0,1-1.69-.06,6.32,6.32,0,0,1-1.12-.2,6.88,6.88,0,0,1-1.25-.43,7.44,7.44,0,0,1-1.31-.8,5.2,5.2,0,0,1-1.13-1.35,4.46,4.46,0,0,1-.44-1.94,4.39,4.39,0,0,1,.38-1.65,3.69,3.69,0,0,1,.88-1.3,3,3,0,0,1,1.27-.81,2,2,0,0,1,1.3,0,2,2,0,0,1,.75.49,5.21,5.21,0,0,1,.29.44l.08.15a2.81,2.81,0,0,0-.64-.05,1.12,1.12,0,0,0-1,.48,3.16,3.16,0,0,0-.29.61,5.42,5.42,0,0,0-.18.79,5.78,5.78,0,0,0,0,.82,1.66,1.66,0,0,0,.15.58,2.85,2.85,0,0,0,.49.67,5.24,5.24,0,0,0,.71.7c.29.2.55.46.84.66s.57.42.83.62a13.18,13.18,0,0,1,1.28,1.05A5.41,5.41,0,0,1,249.3,210.52Z" transform="translate(-6.55 -98.83)"/><path class="cls-2" d="M212.8,249.37a11.35,11.35,0,0,0-2.43-8.57,12.33,12.33,0,0,0,2.36-3.06,10.74,10.74,0,0,0-2.46-13.17,17,17,0,0,0-13.21-3.86,14.5,14.5,0,0,0-4.88,1.61c-7.51,1.17-14.68,7.32-13.4,15.43.88,5.62,5.38,9.07,10.5,10.16-.73,3.1-.24,6.36,2.32,8.66,3.25,2.91,8.26,3.6,12.34,2.35C208.25,257.6,212.05,253.92,212.8,249.37Zm-17.3-10.93c-2.4,1.25-8.35.64-7.7-3.17a5,5,0,0,1,1.95-3.15,2,2,0,0,0,.62.19c4.34.55,7.7-3.37,12.25-1.89,2.15.71,3.73,2,2.44,4.26a8.58,8.58,0,0,1-2.84,2.62,4.58,4.58,0,0,0-1.8,1.41A4.66,4.66,0,0,0,195.5,238.44ZM201.58,250c-1,.44-2.73.75-3.73,0-.59-.42-.59.69-.11-1.08.14-.49.25-1,.34-1.49a13.5,13.5,0,0,0,2.32-1,4.86,4.86,0,0,0,1.47-1.26C203.38,246.85,204.7,248.63,201.58,250Z" transform="translate(-6.55 -98.83)"/><path class="cls-8" d="M194,243.08s-3.42,4.65-9.44-1-2-15.5,10.7-18.81,22,11.47,10.11,18.82c0,0,6.79,4.57,2.75,11.31s-14.26,3.81-15.32,2.52S189.57,252.11,194,243.08Z" transform="translate(-6.55 -98.83)"/><path class="cls-9" d="M194.8,241.21s-3.3,5.19-8.34.49-1.66-13,8.95-15.72,18.93,9.22,9,15.36c0,0,5.12,4.19,1.74,9.83s-11.1,2.87-12,1.78S191.11,248.76,194.8,241.21Z" transform="translate(-6.55 -98.83)"/><path class="cls-10" d="M194,243.08l.09-.82c.05-.5.1-1.21.11-2a8.59,8.59,0,0,0-.09-1.23,4.62,4.62,0,0,0-.3-1.15,2.31,2.31,0,0,0-.59-.88,2.09,2.09,0,0,0-.77-.53,1.6,1.6,0,0,0-.85-.07c-.16,0-.32.1-.5.12s-.35.12-.51.23a3.64,3.64,0,0,0-.48.32,2.63,2.63,0,0,0-.45.36,5.4,5.4,0,0,0-.71.83,3.67,3.67,0,0,0-.59,1.67,2.75,2.75,0,0,0,0,.58v.22l-.15-.15a3.26,3.26,0,0,1-.43-.48,3.35,3.35,0,0,1-.47-2.36,4.14,4.14,0,0,1,.53-1.6,4.36,4.36,0,0,1,.51-.78,3.92,3.92,0,0,1,.7-.71,7,7,0,0,1,.86-.62,4.61,4.61,0,0,1,1.08-.39,4.36,4.36,0,0,1,2.47.12,5,5,0,0,1,1.92,1.46,4.92,4.92,0,0,1,.85,3.9,5.55,5.55,0,0,1-.45,1.49,7,7,0,0,1-1.19,1.88A5.56,5.56,0,0,1,194,243.08Z" transform="translate(-6.55 -98.83)"/><path class="cls-10" d="M205.52,242.29l-.62-.26a9.5,9.5,0,0,1-1.5-.82,6.68,6.68,0,0,1-.92-.69,6.55,6.55,0,0,1-.95-1,8.3,8.3,0,0,1-.83-1.32,5.62,5.62,0,0,1-.42-1.74,4.42,4.42,0,0,1,.47-1.95,4.21,4.21,0,0,1,1.09-1.33,3.82,3.82,0,0,1,1.38-.79,3,3,0,0,1,1.5-.16,2.09,2.09,0,0,1,1.19.58,2,2,0,0,1,.46.78,2.55,2.55,0,0,1,.06.53v.17a2.83,2.83,0,0,0-.55-.34,1.17,1.17,0,0,0-1.12,0,3.78,3.78,0,0,0-.54.42,5.82,5.82,0,0,0-.53.64,5,5,0,0,0-.4.75,1.62,1.62,0,0,0-.13.6,3,3,0,0,0,.14.84,4.86,4.86,0,0,0,.35,1c.17.31.29.67.47,1s.33.64.48.94a14.05,14.05,0,0,1,.7,1.53A5.67,5.67,0,0,1,205.52,242.29Z" transform="translate(-6.55 -98.83)"/><path class="cls-2" d="M79.94,161A8,8,0,0,0,83,155.54a8.37,8.37,0,0,0,2.7-.34,7.56,7.56,0,0,0,5.37-7.75,12,12,0,0,0-4.62-8.52,10.07,10.07,0,0,0-3.22-1.64c-4.31-3.18-10.94-3.72-14.36.94-2.37,3.23-1.87,7.19.12,10.29A6,6,0,0,0,65.83,154a9.28,9.28,0,0,0,4.94,7.33A8.91,8.91,0,0,0,79.94,161Zm-3.11-14.06c-1.81-.59-4.46-3.87-2.23-5.43a3.57,3.57,0,0,1,2.54-.58,1.49,1.49,0,0,0,.22.41c1.87,2.44,5.49,2.17,7,5.18.71,1.43.84,2.86-.92,3.34a6.09,6.09,0,0,1-2.72-.13,3.26,3.26,0,0,0-1.6-.2A3.26,3.26,0,0,0,76.83,146.94Zm-2.74,8.74c-.74-.3-1.73-1-1.87-1.85-.08-.5-.63,0,.49-.59a9.3,9.3,0,0,0,.91-.57,9.23,9.23,0,0,0,1.68.64,3.42,3.42,0,0,0,1.36.11C76.53,155,76.3,156.59,74.09,155.68Z" transform="translate(-6.55 -98.83)"/><path class="cls-8" d="M73.76,148.47s-4,.6-4.2-5.2,6.77-8.68,14.72-4,5.15,16.68-4.41,14.38c0,0,1.08,5.67-4.29,7s-9-5.25-8.85-6.42S67.06,150.74,73.76,148.47Z" transform="translate(-6.55 -98.83)"/><path class="cls-9" d="M75.1,148s-4.23.92-4.38-3.93,5.66-7.25,12.3-3.32,4.77,14-3.22,12.12c0,0,.44,4.64-4,5.74s-6.94-4.13-6.83-5.11S69.5,149.85,75.1,148Z" transform="translate(-6.55 -98.83)"/><path class="cls-10" d="M73.76,148.47s.67-.66,1.38-1.5a6.41,6.41,0,0,0,.48-.68,3,3,0,0,0,.32-.68A1.08,1.08,0,0,0,76,145a.94.94,0,0,0-.1-.43c-.06-.08-.07-.2-.22-.28a2,2,0,0,0-.51-.31,3.67,3.67,0,0,0-.69-.18,3.29,3.29,0,0,0-.7,0,2.56,2.56,0,0,0-1.17.35,2.86,2.86,0,0,0-.47.36,3.14,3.14,0,0,1,0-.65,2.45,2.45,0,0,1,.92-1.59,2.9,2.9,0,0,1,1.12-.62,3.32,3.32,0,0,1,1.46-.2,3.46,3.46,0,0,1,3,2,3.82,3.82,0,0,1,.24,1.89,4,4,0,0,1-.67,1.59,3.82,3.82,0,0,1-1.06,1,3.75,3.75,0,0,1-1,.48,4.63,4.63,0,0,1-1.63.21A2.69,2.69,0,0,1,73.76,148.47Z" transform="translate(-6.55 -98.83)"/><path class="cls-10" d="M79.88,153.85s-.11-.16-.27-.43a5.63,5.63,0,0,1-.49-1.17,4.61,4.61,0,0,1-.19-.83,4.56,4.56,0,0,1,0-1,6.08,6.08,0,0,1,.23-1.16,4.45,4.45,0,0,1,.73-1.19,3.55,3.55,0,0,1,1.39-.84,3.21,3.21,0,0,1,1.33-.1,2.86,2.86,0,0,1,1.19.37,2.32,2.32,0,0,1,.9.8,1.59,1.59,0,0,1,.28,1,1.31,1.31,0,0,1-.24.67,2,2,0,0,1-.4.38,1.56,1.56,0,0,0-.19-.46.63.63,0,0,0-.63-.37l-.41.07-.48.12c-.17,0-.31.15-.44.18a.53.53,0,0,0-.18.14,1.23,1.23,0,0,0-.29.36,2.94,2.94,0,0,0-.32.56c-.08.22-.22.44-.31.67s-.21.47-.3.69a8.67,8.67,0,0,1-.58,1.09A3.48,3.48,0,0,1,79.88,153.85Z" transform="translate(-6.55 -98.83)"/><path class="cls-2" d="M122.81,262.45a11.4,11.4,0,0,0,.81,8.87,12,12,0,0,0-2.88,2.57,10.73,10.73,0,0,0,0,13.39A17,17,0,0,0,133,293.52a14.43,14.43,0,0,0,5.09-.68c7.61.23,15.79-4.49,16-12.7.16-5.68-3.62-9.91-8.45-11.92,1.29-2.91,1.41-6.21-.68-8.94-2.65-3.46-7.46-5.06-11.69-4.58C128.8,255.19,124.39,258.11,122.81,262.45Zm15,13.93c2.59-.78,8.33.92,7,4.54a5.06,5.06,0,0,1-2.49,2.73,2.66,2.66,0,0,0-.58-.3c-4.17-1.34-8.19,1.89-12.39-.4-2-1.09-3.29-2.67-1.61-4.64a8.7,8.7,0,0,1,3.27-2.05,4.58,4.58,0,0,0,2-1.05A4.66,4.66,0,0,0,137.8,276.38ZM134,264c1.11-.25,2.82-.23,3.67.65.5.53.71-.56-.09,1.08-.23.47-.42.93-.61,1.4a13.93,13.93,0,0,0-2.47.61,5,5,0,0,0-1.68,1C131.61,266.66,130.64,264.67,134,264Z" transform="translate(-6.55 -98.83)"/><path class="cls-8" d="M140.15,272.11s4.22-3.94,9.1,2.69-.91,15.6-14,16.51S115.78,276,128.8,271c0,0-5.83-5.75-.62-11.63s14.73-1.11,15.52.36S146.15,264,140.15,272.11Z" transform="translate(-6.55 -98.83)"/><path class="cls-9" d="M139,273.79s4.2-4.49,8.28,1-.76,13.05-11.69,13.81-16.91-12.56-6-16.76c0,0-4.26-5.07.1-10s11.45-.78,12.11.45S144,267.05,139,273.79Z" transform="translate(-6.55 -98.83)"/><path class="cls-10" d="M140.15,272.11l-.24.78c-.14.49-.33,1.17-.48,1.95a12,12,0,0,0-.14,1.22,4.64,4.64,0,0,0,.09,1.19,2.36,2.36,0,0,0,.41,1,2.18,2.18,0,0,0,.66.66,1.58,1.58,0,0,0,.83.23,4.77,4.77,0,0,0,.51,0,3.84,3.84,0,0,0,.54-.13,3.11,3.11,0,0,0,.53-.22,3.5,3.5,0,0,0,.51-.27,5,5,0,0,0,.85-.69,3.72,3.72,0,0,0,.89-1.53,3.66,3.66,0,0,0,.11-.57l0-.22.12.17a4.66,4.66,0,0,1,.34.56,3.41,3.41,0,0,1,0,2.41,4.32,4.32,0,0,1-.82,1.47,3.73,3.73,0,0,1-.65.67,3.93,3.93,0,0,1-.81.57,6,6,0,0,1-1,.44,4.69,4.69,0,0,1-1.13.2,4.48,4.48,0,0,1-2.41-.58,4.88,4.88,0,0,1-1.61-1.79,5.13,5.13,0,0,1-.49-2.15,5.24,5.24,0,0,1,.36-1.84,6.15,6.15,0,0,1,.72-1.38,7,7,0,0,1,1.52-1.63A4.53,4.53,0,0,1,140.15,272.11Z" transform="translate(-6.55 -98.83)"/><path class="cls-10" d="M128.66,270.75l.56.37a10.18,10.18,0,0,1,1.33,1.08,8.29,8.29,0,0,1,.78.85,6.32,6.32,0,0,1,.75,1.11,6.85,6.85,0,0,1,.57,1.45,5.49,5.49,0,0,1,.1,1.78,4.35,4.35,0,0,1-.83,1.83,4.15,4.15,0,0,1-1.31,1.11,4,4,0,0,1-1.5.53,3.07,3.07,0,0,1-1.51-.12,2.12,2.12,0,0,1-1.06-.8,1.93,1.93,0,0,1-.31-.85,3.07,3.07,0,0,1,0-.53l0-.17a3.13,3.13,0,0,0,.48.43,1.19,1.19,0,0,0,1.1.23,5.2,5.2,0,0,0,.61-.32,7.47,7.47,0,0,0,.64-.53,7.66,7.66,0,0,0,.53-.66,1.53,1.53,0,0,0,.23-.57,2.66,2.66,0,0,0,0-.85,5.29,5.29,0,0,0-.16-1c-.12-.34-.17-.71-.29-1.05s-.2-.69-.29-1a13.3,13.3,0,0,1-.41-1.63A5.06,5.06,0,0,1,128.66,270.75Z" transform="translate(-6.55 -98.83)"/><path class="cls-2" d="M163.25,219.32q.09-.31.21-.63a5.27,5.27,0,0,0,.29-2.49c0-.16,0-.32-.05-.48a4.2,4.2,0,0,0-2.73-3.29,4.15,4.15,0,0,0-4.14.73,12.85,12.85,0,0,0-1.11,1.22,4.88,4.88,0,0,0-.8,2.26,2,2,0,0,0,0,.34,9.2,9.2,0,0,0,.23,2.35,4.09,4.09,0,0,0,.89,2,4.14,4.14,0,0,0,1.76,1.24,4.09,4.09,0,0,0,5.46-3.21Z" transform="translate(-6.55 -98.83)"/><path class="cls-2" d="M209,200.31c2.41-5.19,1.08-14.11-6.22-13.85-5.93.21-10.36,8.45-7.77,13.73a9.43,9.43,0,0,0,.17,1.85,6.1,6.1,0,0,0,8.17,4.56C206,205.59,207.91,202.73,209,200.31Z" transform="translate(-6.55 -98.83)"/><path class="cls-2" d="M175.43,252.66a15,15,0,0,0,.07-2c.33-4.26-2.25-8.26-6.57-8.73a6.64,6.64,0,0,0-2.52.11c-7.35,1.36-10.93,10.09-8.56,16.69,1.84,5.11,8.08,7.5,12.47,3.84A15.14,15.14,0,0,0,175.43,252.66Z" transform="translate(-6.55 -98.83)"/><path class="cls-2" d="M104.56,272.14a13.69,13.69,0,0,0,2.39-9.62,6.13,6.13,0,0,0-4-4.79,6.39,6.39,0,0,0-6,1.06,9.27,9.27,0,0,0-3.1,4,8,8,0,0,0-.59,1.26,8.72,8.72,0,0,0,1.65,8.5,6.14,6.14,0,0,0,4.89,2.14A6,6,0,0,0,104.56,272.14Z" transform="translate(-6.55 -98.83)"/><path class="cls-2" d="M86.39,168.8a5.13,5.13,0,0,0-.86-5.05,4.58,4.58,0,0,0-7.48.63l0,0a5.3,5.3,0,0,0-1.93,3.48l0,1.15a3.33,3.33,0,0,0,.66,1.61A4.07,4.07,0,0,0,79,172.51a5.82,5.82,0,0,0,5.68-1.18A6.19,6.19,0,0,0,86.39,168.8Z" transform="translate(-6.55 -98.83)"/><path class="cls-2" d="M105.08,160c1.63-4.68.53-13.07-6-13.12a6.48,6.48,0,0,0-6,3.83,15.06,15.06,0,0,0-3,4.31,18.26,18.26,0,0,0-1.46,9.12c.19,2.93,3.83,5.45,6.63,4.74A13.72,13.72,0,0,0,105.08,160Z" transform="translate(-6.55 -98.83)"/><path class="cls-2" d="M135.93,234.74a4.18,4.18,0,0,0,.56-1.31l.19-.37a3.32,3.32,0,0,0-.34-3,3.46,3.46,0,0,0-5.09-.84A4.33,4.33,0,0,0,129.8,232a4,4,0,0,0,.39,2.25,3.48,3.48,0,0,0,1.89,1.75,3.39,3.39,0,0,0,2.09,0A3.09,3.09,0,0,0,135.93,234.74Z" transform="translate(-6.55 -98.83)"/><path class="cls-1" d="M207.24,194.74a3.45,3.45,0,0,0-.64-3,3.08,3.08,0,0,0-1.61-1.12,3.19,3.19,0,0,0-1.59-.15,2.4,2.4,0,0,0-1.14.46,3.09,3.09,0,0,0-1.4,2l.08-.36a3.33,3.33,0,0,0-.21,1.46,3,3,0,0,0,.67,2.5,3.53,3.53,0,0,0,1.34.95,3.11,3.11,0,0,0,2.36-.09A4,4,0,0,0,207.24,194.74Z" transform="translate(-6.55 -98.83)"/><path class="cls-1" d="M224,210.89a6.11,6.11,0,0,0-.05-1,.2.2,0,0,1,0-.07l0,0v0h0v-.08c0-.17,0-.23.06-.21s0-.18.05-.24,0,0,0-.06a3.52,3.52,0,0,0,.16-.39c.82-1.59-.75-3.46-2.3-3.62a4.85,4.85,0,0,0-4.47,2.15,5.1,5.1,0,0,0-.42,5.53,3.89,3.89,0,0,0,2.09,1.94,3.8,3.8,0,0,0,2.31,0A3.68,3.68,0,0,0,224,210.89Z" transform="translate(-6.55 -98.83)"/><path class="cls-1" d="M223.9,209.86c.08-.17.08-.29,0-.31a1.22,1.22,0,0,1-.06.26Z" transform="translate(-6.55 -98.83)"/><path class="cls-1" d="M263.17,215.51a3.26,3.26,0,0,0-.08-2.07,3.34,3.34,0,0,0-1.23-1.5,2.47,2.47,0,0,0-.65-.38,2,2,0,0,0-2.15-.28,2.18,2.18,0,0,0-1.23,1.94,2.25,2.25,0,0,0-.08.69,3.9,3.9,0,0,0,0,1,4.17,4.17,0,0,0,.69,1.44,2.68,2.68,0,0,0,1.85,1,2.9,2.9,0,0,0,1.7-.42A2.69,2.69,0,0,0,263.17,215.51Z" transform="translate(-6.55 -98.83)"/><path class="cls-1" d="M97.86,157.68a4.85,4.85,0,0,0,.76-2.1c0-.27,0-.54,0-.81a7.15,7.15,0,0,0-.1-2.12,3.09,3.09,0,0,0-1.91-2.3,3,3,0,0,0-2.9.5,7,7,0,0,0-1.32,1.64,5.81,5.81,0,0,0-1.15,2.77A3.73,3.73,0,0,0,93.63,159a4.41,4.41,0,0,0,1.84.17A3.66,3.66,0,0,0,97.86,157.68Z" transform="translate(-6.55 -98.83)"/><path class="cls-1" d="M133.9,176.8a3.75,3.75,0,0,0,.68-2.31c0-.19,0-.38,0-.57,0-.44,0-.88,0-1.32l0,.87q0-.66,0-1.32l0,.81c0-.12,0-.24,0-.36a3,3,0,0,0-1.24-2.67,3,3,0,0,0-2.88-.27,4.94,4.94,0,0,0-2.35,2c-1,1.53-1.17,4,.13,5.4a3.59,3.59,0,0,0,2.88,1.26A3.44,3.44,0,0,0,133.9,176.8Z" transform="translate(-6.55 -98.83)"/><path class="cls-1" d="M82.5,227.05a7.67,7.67,0,0,0,.29-3.09,6.3,6.3,0,0,0-1.18-3,4.19,4.19,0,0,0-4-1.47l-.15,0a3.92,3.92,0,0,0-2.93,2.17,3.66,3.66,0,0,0-.37,1,5.94,5.94,0,0,0-.44,1.45c-.12.71-.09,1.43-.19,2.15a4.08,4.08,0,0,0,3.66,4.4A5.15,5.15,0,0,0,82.5,227.05Z" transform="translate(-6.55 -98.83)"/><path class="cls-1" d="M83.12,202.39a4.06,4.06,0,0,0,1.26-2.09,4.16,4.16,0,0,0,0-1.65,3.6,3.6,0,0,0-3.19-3A3.65,3.65,0,0,0,77.54,198a4.34,4.34,0,0,0-.28,1.63,4.14,4.14,0,0,0,.87,2.28,3.51,3.51,0,0,0,2.4,1.27A3.45,3.45,0,0,0,83.12,202.39Z" transform="translate(-6.55 -98.83)"/><path class="cls-1" d="M171.85,262.89a14.82,14.82,0,0,0,3-12.48,4.58,4.58,0,0,0-5.72-3.48,4.8,4.8,0,0,0-3.57.06c-5.49,2.32-4.46,10.86-2.2,15.12C165.24,265.58,169.39,265.79,171.85,262.89Z" transform="translate(-6.55 -98.83)"/><path class="cls-1" d="M180.32,273.36a4.19,4.19,0,0,0-1.46-4.78,4.26,4.26,0,0,0-5.08.17,4.14,4.14,0,1,0,6.54,4.61Z" transform="translate(-6.55 -98.83)"/><path class="cls-11" d="M115.1,159.82s5,15.38-15,19.4L96,174.3s8.78.38,12.15-3.83c5.15-6.41.42-14.16.42-14.16Z" transform="translate(-6.55 -98.83)"/><path class="cls-11" d="M133,244.39a11.72,11.72,0,0,1,13.63-4.9l1.6,3.09s-6.26-1.56-8.76.55-2.87,6-2.87,6Z" transform="translate(-6.55 -98.83)"/><path class="cls-11" d="M131.35,201.78s18.3,6.6,11.82,18.94l-4.8,1.16s4-5.67,1-10.49a13,13,0,0,0-8.52-5.54Z" transform="translate(-6.55 -98.83)"/><path class="cls-11" d="M186.48,200.83s-3.46,7.22,7,12.31l-3.86,3.2s-9.24-6.73-7.34-14.72Z" transform="translate(-6.55 -98.83)"/><path class="cls-11" d="M211.85,217.2s3.51,10.29,19.72,10.45l-.19-4.69S221,227,213.94,215.46Z" transform="translate(-6.55 -98.83)"/><path class="cls-11" d="M97.27,261.83l-4.45,2.69s-.41,17.37,20.53,23l3.38-6.14s-9.13,3.61-15.25-4A19.25,19.25,0,0,1,97.27,261.83Z" transform="translate(-6.55 -98.83)"/><path class="cls-11" d="M212.28,176.49s-11.1,1.92-14.47,10.25l3.37,1.89a21.4,21.4,0,0,1,14.19-10.19Z" transform="translate(-6.55 -98.83)"/><path class="cls-11" d="M106.39,301s-11.1,1.92-14.47,10.25l3.37,1.89A21.37,21.37,0,0,1,109.48,303Z" transform="translate(-6.55 -98.83)"/><path class="cls-11" d="M81.66,178.67s-13-3.2-19,8.22l2.52,3.48s2.86-6.93,6.33-8.05a17.9,17.9,0,0,1,11.72.32Z" transform="translate(-6.55 -98.83)"/><path class="cls-11" d="M170.4,282.36s2.51-12-10.66-14.78l.36,3.47s7.87.06,8.28,12Z" transform="translate(-6.55 -98.83)"/><path class="cls-12" d="M116.38,186a8.82,8.82,0,0,0-6.49-3.46c-3.72-.18-6.56,2.15-8.11,5.34a11.53,11.53,0,0,0,2.92,13.54,5.41,5.41,0,0,0,3.88,1,8.44,8.44,0,0,0,4.88-.62C118.93,199.3,119.82,190.38,116.38,186Z" transform="translate(-6.55 -98.83)"/><path class="cls-12" d="M168.4,233.26a5.27,5.27,0,0,0,.86-3.8v-.07a5.26,5.26,0,0,0-3.38-4.07,5.76,5.76,0,0,0-2.76-.25,5.12,5.12,0,0,0-4,3.29,5.27,5.27,0,0,0,.15,4l.75,1.19a4,4,0,0,0,1.64,1.27,4.91,4.91,0,0,0,3.25.56l.08,0a3.86,3.86,0,0,0,1.87-.76A3.9,3.9,0,0,0,168.4,233.26Z" transform="translate(-6.55 -98.83)"/><path class="cls-12" d="M195.58,185.25a6.54,6.54,0,0,0-5.7-5.94,6.62,6.62,0,0,0-5.53,2.15,11.92,11.92,0,0,0-2.38,1.45,10,10,0,0,0-3.68,5.45,6.75,6.75,0,0,0,2.06,6.71,7.45,7.45,0,0,0,7.8,1C192.26,194.44,196,189.82,195.58,185.25Z" transform="translate(-6.55 -98.83)"/><path class="cls-12" d="M208,217.62a4.5,4.5,0,0,0,.69-3.1v-.13a3.88,3.88,0,0,0-2.57-3.09l-.13,0a4.33,4.33,0,0,0-2.64,0,4.21,4.21,0,0,0-2.25,1.59,4.12,4.12,0,0,0-.71,2.55,4,4,0,0,0,.93,2.54,4.26,4.26,0,0,0,4.44,1.3A4.19,4.19,0,0,0,208,217.62Z" transform="translate(-6.55 -98.83)"/><path class="cls-12" d="M95.22,290.61A21,21,0,0,0,90,280.78c-1.57-1.64-4.66-2.49-6.47-.6a7.17,7.17,0,0,0-2.28,6.35,9.41,9.41,0,0,0,2.6,5c.15.16.32.3.48.44a18,18,0,0,0,2,2.67,5.18,5.18,0,0,0,6,1.38C94.22,295.08,95.74,292.84,95.22,290.61Z" transform="translate(-6.55 -98.83)"/><path class="cls-12" d="M222.86,232.92a3.56,3.56,0,0,0-.81-2.58,3.51,3.51,0,0,0-2.39-1.26,3.44,3.44,0,0,0-2.58.8l-.2.19a3.76,3.76,0,0,0-1.25,2.38,3.53,3.53,0,0,0,3.17,3.82,4,4,0,0,0,2.57-.8l.22-.16A3.54,3.54,0,0,0,222.86,232.92Z" transform="translate(-6.55 -98.83)"/><path class="cls-12" d="M72.53,211.71a5.13,5.13,0,0,0-.22-6.27,4.45,4.45,0,0,0-.59-.56,3.08,3.08,0,0,0-4.08-1.8,6.61,6.61,0,0,0-3,2.27,8.69,8.69,0,0,0-1.33,3.91,4.44,4.44,0,0,0,.7,2.8A4.16,4.16,0,0,0,66.23,214a5.43,5.43,0,0,0,2.59.22,6.78,6.78,0,0,0,1.4-.47A6,6,0,0,0,72.53,211.71Z" transform="translate(-6.55 -98.83)"/></svg>