<svg id="Camada_1" data-name="Camada 1" xmlns="http://www.w3.org/2000/svg" viewBox="0 0 261.36 230.22"><defs><style>.cls-1{fill:#e7bd53;}.cls-2{fill:#edde7e;}.cls-3{fill:#c5521e;}.cls-4{fill:#f4e999;}.cls-5{fill:#d8a538;}.cls-6{fill:#bf912a;}.cls-7{fill:#e6bc56;}.cls-8{fill:#c95628;}.cls-9{fill:#ce6e3b;}.cls-10{fill:#e1ac8c;}.cls-11{fill:#e8c3ad;}.cls-12{fill:#da9343;}.cls-13{fill:#91ac3a;}.cls-14{fill:#6f8231;}.cls-15{fill:#f7f6c2;}</style></defs><title>margarita</title><path class="cls-1" d="M69.78,306.45S159.35,278.78,199.15,264s78.73-33,80.61-37.12S184,163.23,176.61,160s-52.22-30.9-65.37-39.21-24.66-11.52-29.53-12.17-40,36.6-40.91,75.29S39.83,295,69.78,306.45Z" transform="translate(-18.43 -88.63)"/><path class="cls-2" d="M83,297.46s73.67-22.75,109.35-36,72.26-33.28,73.95-37-87.52-53.36-94.16-56.28-46.81-27.71-58.6-35.15-22.11-10.33-26.48-10.92-20,31.53-20.86,66.21S64.89,279.12,83,297.46Z" transform="translate(-18.43 -88.63)"/><path class="cls-3" d="M74.3,299.05A49.58,49.58,0,0,0,71,265.16c-2.9-6-7.07-11.33-7.58-18.18-.44-5.9.93-11.76,1.56-17.6.73-6.64,0-13.3.36-20,.39-7.26,1.57-14.46,2.55-21.65,1-7.43,2-14.85,3-22.29.88-6.77.57-13.43,1.08-20.2,1-13.5,16.72-20.53,16.61-34.63,0-3.11-4.51-3.13-4.79-.08-1,11-12.06,17.82-16.12,27.74a2.67,2.67,0,0,0-3.17,2.22c-5.41,26.22-7.15,53-9.33,79.67a123.65,123.65,0,0,0-.52,19A110,110,0,0,0,58,257.58q5,20.69,10.1,41.36C68.86,302,73.51,302.19,74.3,299.05Z" transform="translate(-18.43 -88.63)"/><path class="cls-3" d="M75.77,145.38a2.66,2.66,0,0,0,2-.2,4.21,4.21,0,0,0,2-3,5.86,5.86,0,0,0-.42-3.55c-.69-1.68-3.2-1.87-4.39-.71a5,5,0,0,0-.7,6.72A2,2,0,0,0,75.77,145.38Z" transform="translate(-18.43 -88.63)"/><path class="cls-4" d="M85.52,291c-4.48.17-7.44-22.49-9.37-31.46s5.18-50.3,2.43-57.25S76.9,173,80.51,161.09s12.31-26.18,16.07-26.9,33.75,10.46,43.49,20.46,60.13,37.53,73.32,45.49,30.13,19,31,24.24-32.73,20.09-42.3,22-38.3,8.89-48.49,13.07S103.24,290.33,85.52,291Z" transform="translate(-18.43 -88.63)"/><path class="cls-5" d="M41.33,316.91c-4.58-2.09-22.09-41.25-22.87-99.56S36.24,103.53,50.71,92s38.32,9.23,37.44,18-18.83,29-20,33-9.73,45.6-7.47,57.47,2.8,28.55-1.23,40.16c-1.71,1.9,5.91,35.09,9.2,45.23s4.83,15.37,3.13,22.13S53.73,322.56,41.33,316.91Z" transform="translate(-18.43 -88.63)"/><path class="cls-6" d="M67.38,142.35s-.35-.24-.9-.68l-2.18-1.75c-.43-.36-.93-.71-1.41-1.11s-1-.75-1.55-1.2-1.07-.83-1.66-1.21-1.14-.83-1.72-1.23-1.14-.83-1.75-1.18-1.16-.74-1.72-1.12-1.11-.71-1.65-1-1-.65-1.52-1L50,130.06c-.4-.25-.75-.49-1-.67l-.94-.64,1.12-.24a10.73,10.73,0,0,1,1.3-.12,9.73,9.73,0,0,1,1.68.05,11,11,0,0,1,2,.3,12.75,12.75,0,0,1,2.13.62,13.47,13.47,0,0,1,2.17,1c.71.38,1.4.84,2.09,1.28s1.3,1,1.9,1.55,1.11,1.16,1.63,1.73a14.68,14.68,0,0,1,1.29,1.8,10.74,10.74,0,0,1,1,1.74,12.33,12.33,0,0,1,1,2.8C67.34,141.94,67.38,142.35,67.38,142.35Z" transform="translate(-18.43 -88.63)"/><path class="cls-6" d="M61.09,196.92a28.51,28.51,0,0,1-3,.05c-.42,0-.88,0-1.34-.05s-1,0-1.46-.08-1-.09-1.52-.09-1-.1-1.54-.15-1-.12-1.55-.15-1-.11-1.5-.18-1-.13-1.44-.2-.91-.14-1.33-.23c-.83-.14-1.57-.33-2.1-.46l-.85-.26.66-.62A8.32,8.32,0,0,1,46,193.3a7.7,7.7,0,0,1,1.4-.55,8.92,8.92,0,0,1,1.62-.38,9.32,9.32,0,0,1,1.77-.16c.6,0,1.21,0,1.83.07s1.21.19,1.8.32,1.15.36,1.69.54a10.41,10.41,0,0,1,1.5.72,8.26,8.26,0,0,1,1.26.81,8.51,8.51,0,0,1,1.66,1.54A6.5,6.5,0,0,1,61.09,196.92Z" transform="translate(-18.43 -88.63)"/><path class="cls-6" d="M55.87,244.63a7,7,0,0,1-.38.86,9.28,9.28,0,0,1-1.35,2A10.87,10.87,0,0,1,53,248.61a13.45,13.45,0,0,1-1.41,1.09c-.52.31-1.06.65-1.64,1s-1.2.5-1.81.75-1.27.35-1.91.47a10.16,10.16,0,0,1-1.88.23,9.49,9.49,0,0,1-1.78-.06,7.78,7.78,0,0,1-1.58-.27,8.77,8.77,0,0,1-2.26-.84l-.81-.5.85-.4c.54-.22,1.27-.53,2.12-.82.42-.16.87-.33,1.34-.48s1-.35,1.46-.48,1-.35,1.54-.5,1-.32,1.57-.49,1.06-.31,1.57-.5,1-.31,1.55-.47,1-.28,1.48-.45.94-.27,1.36-.41c.87-.26,1.63-.46,2.19-.6S55.87,244.63,55.87,244.63Z" transform="translate(-18.43 -88.63)"/><path class="cls-6" d="M50.58,312.05s.32-.27.88-.67l2.22-1.62c.46-.3.91-.7,1.41-1s1-.81,1.51-1.17,1-.81,1.55-1.28,1.05-.87,1.57-1.32,1.05-.89,1.52-1.38l1.46-1.37c.44-.48.93-.91,1.36-1.34s.85-.85,1.24-1.24l1.07-1.09c.33-.32.63-.61.87-.86l.81-.77V298a7.11,7.11,0,0,1-.14,1.28,9.44,9.44,0,0,1-.4,1.61,10.43,10.43,0,0,1-.71,1.83,12.13,12.13,0,0,1-1.07,1.91,13.24,13.24,0,0,1-1.44,1.86c-.53.6-1.13,1.15-1.72,1.71s-1.28,1-2,1.44-1.39.78-2.06,1.13a14.78,14.78,0,0,1-2.05.78,12.08,12.08,0,0,1-1.9.45,10.27,10.27,0,0,1-1.65.17,7.44,7.44,0,0,1-1.27,0A9.78,9.78,0,0,1,50.58,312.05Z" transform="translate(-18.43 -88.63)"/><path class="cls-7" d="M66.89,294.34c-3.56,7.22-12.42,19-22.94,13.75s-17.67-37.15-14.79-44.78,19.4-13.68,24.25-8.65,15.52,32.81,11.68,40.47" transform="translate(-18.43 -88.63)"/><path class="cls-7" d="M61,162.6c-2.64,13-6.79,27.22-15.82,29.55S27.35,183.36,29,165.38s14.19-31.56,22.88-29S64,148.28,61,162.6Z" transform="translate(-18.43 -88.63)"/><path class="cls-7" d="M77.79,121.45c-5.62,8.35-9.68,11-12.71,9.89S46.59,127.21,48.8,116.2,59.07,93.14,68.29,94.82s11.86,9.57,13.42,13.77S79.67,118.66,77.79,121.45Z" transform="translate(-18.43 -88.63)"/><path class="cls-1" d="M207.73,252.05c5.56.89,12.5.8,16.83-3.31,5-1,10.25-7.38,12.59-11.5A22.72,22.72,0,0,0,239.61,222c-1.88-10.94-11-18.79-21.81-20.34a29.45,29.45,0,0,0-28.24,12.37c-6.71,9.55-6.5,22,2.19,30.22A30.16,30.16,0,0,0,207.73,252.05Zm-13.27-14.17c-8-9.74-.42-23.28,9.56-28,9.81-4.66,23.22-1.49,27.92,8.86a17.81,17.81,0,0,1-.08,15.31c-2,3.91-7,7-8.78,11.14-5.13.09-9.92,1.58-15.11.54A23.42,23.42,0,0,1,194.46,237.88Z" transform="translate(-18.43 -88.63)"/><path class="cls-1" d="M83.53,273.3a1.75,1.75,0,0,0,1.73-2.86c-3.33-4.07-7-7.32-8.14-12.76a17.54,17.54,0,0,1,4-14.73c6.84-8,21.38-9.82,30.7-5.86,8.66,3.68,15.32,12.11,16,21.62.67,9.9-4.46,18.24-11.55,24.68-1.9,1.72.36,4.61,2.56,3.54,18.12-8.81,19-35.12,5.68-48.3a32.29,32.29,0,0,0-26.82-9.16c-10.62,1.28-21.08,6.06-25.1,16.59C69,255.29,72.37,270.83,83.53,273.3Z" transform="translate(-18.43 -88.63)"/><path class="cls-1" d="M161.2,186.81c3.83-10.2.81-23.61-4.33-32.84-1.17-2.12-4.7-.88-4,1.55,2.53,9.09,6.22,19.76,2.79,29.08-3.53,9.59-13.36,15.16-23.36,14.13s-18.27-8.55-20.91-18a23.35,23.35,0,0,1,.21-13.65c1.74-5.23,5.71-8.24,9.15-12.24.83-1,.49-3-1.11-2.87-9.27.75-14.6,11.55-15.34,19.8a31.31,31.31,0,0,0,10.4,25.62C129.51,210.55,154,205.94,161.2,186.81Z" transform="translate(-18.43 -88.63)"/><path class="cls-1" d="M174.51,204.18c1.08.43,2-.61,2.07-1.54.38-2.85-.41-5.89-.31-8.79.1-3.14.45-6.41-.39-9.49a8.94,8.94,0,0,0-4.42-5.76c-1.58-.78-4.27-1.29-5.33.59a1.88,1.88,0,0,0,.61,2.5c2.37,1.82,3.84,2,4,5.47.13,2.35-.16,4.75-.23,7.1C170.44,198,170.46,202.57,174.51,204.18Z" transform="translate(-18.43 -88.63)"/><path class="cls-1" d="M196.37,254.25c1.47-1.24.72-3.3-.29-4.54s-2.2-2-3-3.5a2.17,2.17,0,0,0-4,1,5.94,5.94,0,0,0,2.54,4.29,29,29,0,0,0,3.27,2.92A1.27,1.27,0,0,0,196.37,254.25Z" transform="translate(-18.43 -88.63)"/><path class="cls-1" d="M165.41,236.34a1.17,1.17,0,0,0,1.64.73c3.49-1.4,3.43-6.78.85-8.92a19.89,19.89,0,0,0-2.56-1.4,4,4,0,0,1-1.64-2.27c-.78-1.88-1.61-3.55-3.86-3.64a2.2,2.2,0,0,0-2.2,2.12c-.06,1.41.72,2.5,1.28,3.74a9.83,9.83,0,0,0,2.15,3.54c1,.94,3.16,1.13,3.92,2.12S165,235.17,165.41,236.34Z" transform="translate(-18.43 -88.63)"/><path class="cls-1" d="M179,223.34a1.8,1.8,0,0,0,2.17-1.21c.39-.92,0-2.45-.1-3.28,0-.25,0-.88,0-1.28a5.76,5.76,0,0,0-.41-2.28c-.66-1.71-3.46-1.65-4.25-.11a6.28,6.28,0,0,0-.08,4.65C176.63,221.21,177.47,222.9,179,223.34Z" transform="translate(-18.43 -88.63)"/><path class="cls-8" d="M159.89,170.16c6.12,38.93-51.22,44.49-57.26,6.24C97.17,141.83,153.2,127.67,159.89,170.16Z" transform="translate(-18.43 -88.63)"/><path class="cls-9" d="M157.85,170.38c5.68,36.1-47.49,41.25-53.09,5.79C99.69,144.1,151.64,131,157.85,170.38Z" transform="translate(-18.43 -88.63)"/><path class="cls-10" d="M147.13,181.05s2.89.56,1.62,4.29-4.41,5.13-6.74,4.15-19.13,7.85-25.74-2.65c0,0-4.37-1.32-3.12-8.27S109.62,159,122,155.28c0,0,6.8-6.75,12.11-1.64,0,0,8.59-2.47,13.29,7.26S147.13,181.05,147.13,181.05Z" transform="translate(-18.43 -88.63)"/><path class="cls-11" d="M143.75,179.07c1.38,2.49-1.69,7.67-4.59,6.13s-4,6-9,5.64-11.54-2-11.43-5.18-2.33-1.26-2.36-6.93-5-12.4.26-17.66,10-2,10-2,5.14-.69,7.23,0,2.23-6.63,7.81-3.57,7.88,8.6,7.6,11.74S143.75,179.07,143.75,179.07Z" transform="translate(-18.43 -88.63)"/><path class="cls-8" d="M133.23,174s9.29,9.1,14.08,7.49,8.28-10.5,5-19.52-15.92-13.69-19.06-8.62-1.72,11.2-1.72,11.2,7.18-10.75,13.33-4.15S145.73,178.5,133.23,174Z" transform="translate(-18.43 -88.63)"/><path class="cls-8" d="M132.46,178.48s13,8,12,12.42-9.6,8.43-18.82,6.35-11.47-8.9-10.46-11.51,9.26-6.11,9.26-6.11-8.47,7.76,1.72,9.55S136.12,182.94,132.46,178.48Z" transform="translate(-18.43 -88.63)"/><path class="cls-8" d="M129.73,167.4c.38,1,.09-11.53-5.65-14.13s-19.16,13.66-14,23.06,14.52-.46,14.52-.46-11.32,3.4-7.75-8.51S128.13,163,129.73,167.4Z" transform="translate(-18.43 -88.63)"/><path class="cls-12" d="M150.18,165.3A1.28,1.28,0,0,0,148,164,1.28,1.28,0,0,0,150.18,165.3Z" transform="translate(-18.43 -88.63)"/><path class="cls-12" d="M151.92,167.9a.92.92,0,0,0-1.57-1A.92.92,0,0,0,151.92,167.9Z" transform="translate(-18.43 -88.63)"/><path class="cls-12" d="M148.81,168.72a.38.38,0,0,0-.65-.39A.38.38,0,0,0,148.81,168.72Z" transform="translate(-18.43 -88.63)"/><path class="cls-12" d="M151.48,171.45a.82.82,0,0,0-1.4-.85A.82.82,0,0,0,151.48,171.45Z" transform="translate(-18.43 -88.63)"/><path class="cls-12" d="M148,172.71a.89.89,0,0,0-1.52-.92A.89.89,0,0,0,148,172.71Z" transform="translate(-18.43 -88.63)"/><path class="cls-12" d="M150.38,173.71a1.18,1.18,0,0,0-2-1.22A1.18,1.18,0,0,0,150.38,173.71Z" transform="translate(-18.43 -88.63)"/><path class="cls-12" d="M148.47,159.06a1,1,0,0,0-1.66-1A1,1,0,0,0,148.47,159.06Z" transform="translate(-18.43 -88.63)"/><path class="cls-12" d="M144.71,157a1.13,1.13,0,0,0-1.93-1.17A1.13,1.13,0,0,0,144.71,157Z" transform="translate(-18.43 -88.63)"/><path class="cls-12" d="M142.34,153.87a.68.68,0,0,0-1.16-.71A.68.68,0,0,0,142.34,153.87Z" transform="translate(-18.43 -88.63)"/><path class="cls-12" d="M139.53,155.9a1,1,0,0,0-1.76-1.07A1,1,0,0,0,139.53,155.9Z" transform="translate(-18.43 -88.63)"/><path class="cls-12" d="M149.56,161.26s0-.08-.06,0S149.54,161.3,149.56,161.26Z" transform="translate(-18.43 -88.63)"/><path class="cls-12" d="M136.26,189.61a1.19,1.19,0,0,0,1.42-.8l0,0a1.16,1.16,0,0,0-.8-1.43,1.18,1.18,0,0,0-1.42.79l0,.05A1.17,1.17,0,0,0,136.26,189.61Z" transform="translate(-18.43 -88.63)"/><path class="cls-12" d="M134.41,192a.92.92,0,0,0-1.58-1A.92.92,0,0,0,134.41,192Z" transform="translate(-18.43 -88.63)"/><path class="cls-12" d="M138.5,191.94a.61.61,0,0,0-1-.63A.61.61,0,0,0,138.5,191.94Z" transform="translate(-18.43 -88.63)"/><path class="cls-12" d="M140.11,187.13a.93.93,0,0,0-1.59-1A.93.93,0,0,0,140.11,187.13Z" transform="translate(-18.43 -88.63)"/><path class="cls-12" d="M135.79,194.48A.49.49,0,0,0,135,194,.49.49,0,0,0,135.79,194.48Z" transform="translate(-18.43 -88.63)"/><path class="cls-12" d="M141,192a.25.25,0,0,0-.42-.26C140.4,192,140.82,192.26,141,192Z" transform="translate(-18.43 -88.63)"/><path class="cls-12" d="M129.62,193.06l.08-.06a1,1,0,1,0-1.66-1v.09A1,1,0,0,0,129.62,193.06Z" transform="translate(-18.43 -88.63)"/><path class="cls-12" d="M130.88,195.24a.89.89,0,0,0-1.52-.92A.89.89,0,0,0,130.88,195.24Z" transform="translate(-18.43 -88.63)"/><path class="cls-12" d="M125.26,193a1,1,0,0,0-1.71-1A1,1,0,0,0,125.26,193Z" transform="translate(-18.43 -88.63)"/><path class="cls-12" d="M121.6,188.94a.59.59,0,0,0-1-.61A.59.59,0,0,0,121.6,188.94Z" transform="translate(-18.43 -88.63)"/><path class="cls-12" d="M120,191.39a1,1,0,0,0-1.63-1A1,1,0,0,0,120,191.39Z" transform="translate(-18.43 -88.63)"/><path class="cls-12" d="M119.18,186.08a.92.92,0,0,0-1.58-1A.92.92,0,0,0,119.18,186.08Z" transform="translate(-18.43 -88.63)"/><path class="cls-12" d="M127,160a.61.61,0,0,0-1-.63A.61.61,0,0,0,127,160Z" transform="translate(-18.43 -88.63)"/><path class="cls-12" d="M123.05,159.61a.34.34,0,0,0-.58-.35A.34.34,0,0,0,123.05,159.61Z" transform="translate(-18.43 -88.63)"/><path class="cls-12" d="M125.24,157.06a1.21,1.21,0,0,0-.4-1.65,1.2,1.2,0,1,0,.4,1.65Z" transform="translate(-18.43 -88.63)"/><path class="cls-12" d="M121,158a1,1,0,0,0-1.67-1A1,1,0,0,0,121,158Z" transform="translate(-18.43 -88.63)"/><path class="cls-12" d="M119.53,160.7a.84.84,0,0,0-1.44-.87A.84.84,0,0,0,119.53,160.7Z" transform="translate(-18.43 -88.63)"/><circle class="cls-12" cx="97.67" cy="71.01" r="1.09"/><circle class="cls-12" cx="95.98" cy="74.9" r="1.08"/><path class="cls-12" d="M115.89,168a1,1,0,0,0-1.66-1A1,1,0,0,0,115.89,168Z" transform="translate(-18.43 -88.63)"/><path class="cls-12" d="M112.89,169.5a.92.92,0,0,0-1.58-1A.92.92,0,0,0,112.89,169.5Z" transform="translate(-18.43 -88.63)"/><path class="cls-12" d="M114.92,173.52a1.23,1.23,0,0,0-2.11-1.28A1.23,1.23,0,0,0,114.92,173.52Z" transform="translate(-18.43 -88.63)"/><path class="cls-12" d="M111.89,171.83a.65.65,0,0,0-1.11-.68A.65.65,0,0,0,111.89,171.83Z" transform="translate(-18.43 -88.63)"/><path class="cls-12" d="M116.77,177.21a.72.72,0,0,0-1.23-.74A.72.72,0,0,0,116.77,177.21Z" transform="translate(-18.43 -88.63)"/><path class="cls-12" d="M115.29,178.59a.42.42,0,0,0-.71-.43A.42.42,0,0,0,115.29,178.59Z" transform="translate(-18.43 -88.63)"/><path class="cls-12" d="M112.63,175.45a1,1,0,0,0-1.66-1A1,1,0,0,0,112.63,175.45Z" transform="translate(-18.43 -88.63)"/><path class="cls-12" d="M113,166.5a.79.79,0,0,0-1.34-.82A.79.79,0,0,0,113,166.5Z" transform="translate(-18.43 -88.63)"/><path class="cls-8" d="M128.66,259.18c6.13,38.93-51.21,44.49-57.25,6.24C66,230.85,122,216.69,128.66,259.18Z" transform="translate(-18.43 -88.63)"/><path class="cls-9" d="M126.62,259.4c5.69,36.09-47.49,41.25-53.09,5.78C68.47,233.12,120.42,220,126.62,259.4Z" transform="translate(-18.43 -88.63)"/><path class="cls-10" d="M115.9,270.07s2.9.56,1.62,4.29-4.41,5.13-6.74,4.15S91.65,286.36,85,275.86c0,0-4.36-1.33-3.12-8.27S78.39,248,90.78,244.3c0,0,6.81-6.76,12.11-1.64,0,0,8.59-2.48,13.29,7.26S115.9,270.07,115.9,270.07Z" transform="translate(-18.43 -88.63)"/><path class="cls-11" d="M112.53,268.09c1.37,2.49-1.7,7.67-4.6,6.12s-4,6-9,5.65-11.54-2-11.43-5.18-2.33-1.26-2.36-6.93-5-12.4.27-17.66,10-2,10-2,5.15-.69,7.23.05,2.24-6.63,7.82-3.57,7.87,8.6,7.59,11.74S112.53,268.09,112.53,268.09Z" transform="translate(-18.43 -88.63)"/><path class="cls-8" d="M102,263s9.29,9.1,14.08,7.49,8.29-10.5,5-19.52-15.92-13.69-19.05-8.62-1.73,11.2-1.73,11.2,7.19-10.75,13.34-4.15S114.5,267.52,102,263Z" transform="translate(-18.43 -88.63)"/><path class="cls-8" d="M101.23,267.5s13,8,12,12.42-9.6,8.43-18.82,6.35S83,277.37,84,274.76s9.26-6.11,9.26-6.11-8.47,7.76,1.72,9.55S104.9,272,101.23,267.5Z" transform="translate(-18.43 -88.63)"/><path class="cls-8" d="M98.51,256.42c.37,1,.08-11.53-5.66-14.13s-19.16,13.66-14,23.06,14.51-.46,14.51-.46-11.31,3.4-7.74-8.51S96.9,252.06,98.51,256.42Z" transform="translate(-18.43 -88.63)"/><path class="cls-12" d="M119,254.32a1.28,1.28,0,0,0-2.18-1.33A1.28,1.28,0,0,0,119,254.32Z" transform="translate(-18.43 -88.63)"/><path class="cls-12" d="M120.69,256.92a.92.92,0,0,0-1.57-1A.92.92,0,0,0,120.69,256.92Z" transform="translate(-18.43 -88.63)"/><path class="cls-12" d="M117.58,257.74a.38.38,0,0,0-.65-.39A.38.38,0,0,0,117.58,257.74Z" transform="translate(-18.43 -88.63)"/><path class="cls-12" d="M120.26,260.47a.82.82,0,0,0-1.4-.86A.82.82,0,0,0,120.26,260.47Z" transform="translate(-18.43 -88.63)"/><path class="cls-12" d="M116.78,261.73a.89.89,0,0,0-1.52-.92A.89.89,0,0,0,116.78,261.73Z" transform="translate(-18.43 -88.63)"/><path class="cls-12" d="M119.15,262.73a1.17,1.17,0,0,0-2-1.22A1.17,1.17,0,0,0,119.15,262.73Z" transform="translate(-18.43 -88.63)"/><path class="cls-12" d="M117.25,248.08a1,1,0,0,0-1.66-1A1,1,0,0,0,117.25,248.08Z" transform="translate(-18.43 -88.63)"/><path class="cls-12" d="M113.48,246a1.13,1.13,0,0,0-1.93-1.17A1.13,1.13,0,0,0,113.48,246Z" transform="translate(-18.43 -88.63)"/><path class="cls-12" d="M111.11,242.89a.68.68,0,0,0-1.16-.71A.68.68,0,0,0,111.11,242.89Z" transform="translate(-18.43 -88.63)"/><path class="cls-12" d="M108.31,244.92a1,1,0,0,0-1.77-1.07A1,1,0,0,0,108.31,244.92Z" transform="translate(-18.43 -88.63)"/><path class="cls-12" d="M118.34,250.28a0,0,0,0,0-.07,0A0,0,0,0,0,118.34,250.28Z" transform="translate(-18.43 -88.63)"/><path class="cls-12" d="M105,278.62a1.18,1.18,0,0,0,1.43-.79l0-.05a1.16,1.16,0,0,0-.8-1.42,1.19,1.19,0,0,0-1.43.79l0,.05A1.16,1.16,0,0,0,105,278.62Z" transform="translate(-18.43 -88.63)"/><path class="cls-12" d="M103.19,281.05a.92.92,0,0,0-1.58-1A.92.92,0,0,0,103.19,281.05Z" transform="translate(-18.43 -88.63)"/><path class="cls-12" d="M107.27,281a.61.61,0,0,0-1-.63A.61.61,0,0,0,107.27,281Z" transform="translate(-18.43 -88.63)"/><path class="cls-12" d="M108.88,276.15a.92.92,0,0,0-1.58-1A.92.92,0,0,0,108.88,276.15Z" transform="translate(-18.43 -88.63)"/><path class="cls-12" d="M104.57,283.5a.49.49,0,0,0-.84-.51A.49.49,0,0,0,104.57,283.5Z" transform="translate(-18.43 -88.63)"/><path class="cls-12" d="M109.76,281a.25.25,0,0,0-.43-.25A.25.25,0,0,0,109.76,281Z" transform="translate(-18.43 -88.63)"/><path class="cls-12" d="M98.4,282.07l.07-.05a1,1,0,1,0-1.65-1l0,.09A1,1,0,0,0,98.4,282.07Z" transform="translate(-18.43 -88.63)"/><path class="cls-12" d="M99.66,284.26a.89.89,0,0,0-1.52-.92A.89.89,0,0,0,99.66,284.26Z" transform="translate(-18.43 -88.63)"/><path class="cls-12" d="M94,282a1,1,0,0,0-1.7-1A1,1,0,0,0,94,282Z" transform="translate(-18.43 -88.63)"/><path class="cls-12" d="M90.37,278a.59.59,0,0,0-1-.61A.59.59,0,0,0,90.37,278Z" transform="translate(-18.43 -88.63)"/><path class="cls-12" d="M88.72,280.41a1,1,0,0,0-1.62-1A.95.95,0,0,0,88.72,280.41Z" transform="translate(-18.43 -88.63)"/><path class="cls-12" d="M88,275.1a.92.92,0,0,0-1.58-1A.92.92,0,0,0,88,275.1Z" transform="translate(-18.43 -88.63)"/><path class="cls-12" d="M95.72,249a.61.61,0,0,0-1-.64A.61.61,0,0,0,95.72,249Z" transform="translate(-18.43 -88.63)"/><path class="cls-12" d="M91.83,248.63a.34.34,0,0,0-.59-.35A.34.34,0,0,0,91.83,248.63Z" transform="translate(-18.43 -88.63)"/><path class="cls-12" d="M94,246.07a1.2,1.2,0,1,0-1.65.41A1.21,1.21,0,0,0,94,246.07Z" transform="translate(-18.43 -88.63)"/><path class="cls-12" d="M89.75,247a1,1,0,0,0-1.68-1A1,1,0,0,0,89.75,247Z" transform="translate(-18.43 -88.63)"/><path class="cls-12" d="M88.31,249.72a.85.85,0,0,0-1.45-.88A.85.85,0,0,0,88.31,249.72Z" transform="translate(-18.43 -88.63)"/><circle class="cls-12" cx="66.45" cy="160.03" r="1.09"/><circle class="cls-12" cx="64.75" cy="163.92" r="1.08"/><path class="cls-12" d="M84.67,257.05A1,1,0,0,0,83,256,1,1,0,0,0,84.67,257.05Z" transform="translate(-18.43 -88.63)"/><path class="cls-12" d="M81.67,258.52a.93.93,0,0,0-1.59-1A.93.93,0,0,0,81.67,258.52Z" transform="translate(-18.43 -88.63)"/><path class="cls-12" d="M83.69,262.54a1.23,1.23,0,0,0-2.11-1.28A1.23,1.23,0,0,0,83.69,262.54Z" transform="translate(-18.43 -88.63)"/><path class="cls-12" d="M80.67,260.85a.66.66,0,0,0-1.12-.68A.66.66,0,0,0,80.67,260.85Z" transform="translate(-18.43 -88.63)"/><path class="cls-12" d="M85.54,266.23a.71.71,0,0,0-1.22-.74A.71.71,0,0,0,85.54,266.23Z" transform="translate(-18.43 -88.63)"/><path class="cls-12" d="M84.06,267.6a.42.42,0,0,0-.71-.43A.42.42,0,0,0,84.06,267.6Z" transform="translate(-18.43 -88.63)"/><path class="cls-12" d="M81.41,264.47a1,1,0,0,0-1.66-1A1,1,0,0,0,81.41,264.47Z" transform="translate(-18.43 -88.63)"/><path class="cls-12" d="M81.79,255.52a.79.79,0,0,0-1.35-.82A.79.79,0,0,0,81.79,255.52Z" transform="translate(-18.43 -88.63)"/><path class="cls-8" d="M225.08,207.84c28,17.51,0,56.91-27.51,39.72C172.65,232,194.47,188.73,225.08,207.84Z" transform="translate(-18.43 -88.63)"/><path class="cls-9" d="M224.09,209.25c26,16.24,0,52.78-25.51,36.83C175.48,231.67,195.71,191.53,224.09,209.25Z" transform="translate(-18.43 -88.63)"/><path class="cls-10" d="M225,221.91s1.94-1.53,3.61,1.33.82,5.62-1.08,6.56-5.53,16.44-15.82,14.86c0,0-3.24,2-7-2.57s-14.33-8.51-9.89-18.42c0,0-.54-8,5.61-8.58,0,0,3.15-6.8,11.91-4.43S225,221.91,225,221.91Z" transform="translate(-18.43 -88.63)"/><path class="cls-11" d="M221.86,223c2.33.49,3.93,5.28,1.35,6.27s1.6,5.87-1.37,8.81-7.62,6.21-9.56,4.4-2.08.78-5.69-2.32-10.62-3.63-11.05-9.87,4.25-7.41,4.25-7.41,2.4-3.64,4-4.56-3-5.06,2-6.91,9.78-.27,11.62,1.64S221.86,223,221.86,223Z" transform="translate(-18.43 -88.63)"/><path class="cls-8" d="M212.83,226.82s10.88-.88,12.49-4.8-2.1-11-9.65-13.87-17.43,2.56-15.94,7.34,6.16,7.25,6.16,7.25S203,212.27,210.58,212,222.58,221.4,212.83,226.82Z" transform="translate(-18.43 -88.63)"/><path class="cls-8" d="M215.28,229.8s12.19-3.83,14.49-.81.07,10.71-6.32,15.42-11.94,2.37-13,.3,1.22-9.23,1.22-9.23.27,9.64,7,4.16S220.12,229.93,215.28,229.8Z" transform="translate(-18.43 -88.63)"/><path class="cls-8" d="M206.76,225.44c.84.31-7.26-6.39-12.07-4.19s-1.87,19.65,6.92,21.56,7.69-9.46,7.69-9.46-4.07,9-9.66.23S203.11,224.06,206.76,225.44Z" transform="translate(-18.43 -88.63)"/><path class="cls-12" d="M216.66,211.32a1.07,1.07,0,0,0-2,.66A1.07,1.07,0,0,0,216.66,211.32Z" transform="translate(-18.43 -88.63)"/><path class="cls-12" d="M219.26,211.65a.77.77,0,0,0-1.46.47A.77.77,0,0,0,219.26,211.65Z" transform="translate(-18.43 -88.63)"/><path class="cls-12" d="M218.08,214.07a.32.32,0,0,0-.61.2A.32.32,0,0,0,218.08,214.07Z" transform="translate(-18.43 -88.63)"/><path class="cls-12" d="M221.27,213.87a.69.69,0,0,0-1.31.43A.69.69,0,0,0,221.27,213.87Z" transform="translate(-18.43 -88.63)"/><path class="cls-12" d="M220.17,216.77a.75.75,0,0,0-1.43.46A.75.75,0,0,0,220.17,216.77Z" transform="translate(-18.43 -88.63)"/><path class="cls-12" d="M222.1,215.82a1,1,0,0,0-1.88.6A1,1,0,0,0,222.1,215.82Z" transform="translate(-18.43 -88.63)"/><path class="cls-12" d="M211.77,209a.81.81,0,0,0-1.55.5A.81.81,0,0,0,211.77,209Z" transform="translate(-18.43 -88.63)"/><path class="cls-12" d="M208.39,210.23a1,1,0,0,0-1.81.57A.95.95,0,0,0,208.39,210.23Z" transform="translate(-18.43 -88.63)"/><path class="cls-12" d="M205.1,210a.57.57,0,0,0-1.08.35A.57.57,0,0,0,205.1,210Z" transform="translate(-18.43 -88.63)"/><path class="cls-12" d="M204.85,212.91a.86.86,0,0,0-1.64.53A.86.86,0,0,0,204.85,212.91Z" transform="translate(-18.43 -88.63)"/><path class="cls-12" d="M213.76,209.49s-.07,0-.06,0S213.78,209.53,213.76,209.49Z" transform="translate(-18.43 -88.63)"/><path class="cls-12" d="M224.41,233.51a1,1,0,0,0,.28-1.35v0a1,1,0,0,0-1.63,1.06l0,0A1,1,0,0,0,224.41,233.51Z" transform="translate(-18.43 -88.63)"/><path class="cls-12" d="M224.94,236a.78.78,0,0,0-1.48.47A.78.78,0,0,0,224.94,236Z" transform="translate(-18.43 -88.63)"/><path class="cls-12" d="M227.13,233.37a.51.51,0,0,0-1,.31A.51.51,0,0,0,227.13,233.37Z" transform="translate(-18.43 -88.63)"/><path class="cls-12" d="M225,229.7a.78.78,0,0,0-1.48.48A.78.78,0,0,0,225,229.7Z" transform="translate(-18.43 -88.63)"/><path class="cls-12" d="M227.25,236.48a.41.41,0,0,0-.79.25A.41.41,0,0,0,227.25,236.48Z" transform="translate(-18.43 -88.63)"/><path class="cls-12" d="M228.52,231.82a.2.2,0,0,0-.39.12A.2.2,0,0,0,228.52,231.82Z" transform="translate(-18.43 -88.63)"/><path class="cls-12" d="M223,239.6v-.07a.85.85,0,0,0-1.1-.77.86.86,0,0,0-.45,1.27l.05.05A.83.83,0,0,0,223,239.6Z" transform="translate(-18.43 -88.63)"/><path class="cls-12" d="M225,240a.75.75,0,0,0-1.42.45A.75.75,0,0,0,225,240Z" transform="translate(-18.43 -88.63)"/><path class="cls-12" d="M220.52,242.34a.84.84,0,0,0-1.59.51A.84.84,0,0,0,220.52,242.34Z" transform="translate(-18.43 -88.63)"/><path class="cls-12" d="M215.94,242.43a.5.5,0,0,0-.94.31A.5.5,0,0,0,215.94,242.43Z" transform="translate(-18.43 -88.63)"/><path class="cls-12" d="M216.58,244.82a.8.8,0,0,0-1.52.49A.8.8,0,0,0,216.58,244.82Z" transform="translate(-18.43 -88.63)"/><path class="cls-12" d="M212.8,242.39a.78.78,0,0,0-1.48.48A.78.78,0,0,0,212.8,242.39Z" transform="translate(-18.43 -88.63)"/><path class="cls-12" d="M200.53,223.13a.51.51,0,0,0-1,.32A.51.51,0,0,0,200.53,223.13Z" transform="translate(-18.43 -88.63)"/><path class="cls-12" d="M198.15,225.39a.29.29,0,0,0-.55.18A.29.29,0,0,0,198.15,225.39Z" transform="translate(-18.43 -88.63)"/><path class="cls-12" d="M197.73,222.6a1,1,0,1,0-.65,1.26A1,1,0,0,0,197.73,222.6Z" transform="translate(-18.43 -88.63)"/><path class="cls-12" d="M196,225.81a.82.82,0,0,0-1.56.51A.82.82,0,0,0,196,225.81Z" transform="translate(-18.43 -88.63)"/><path class="cls-12" d="M196.91,228.22a.71.71,0,0,0-1.36.43A.71.71,0,0,0,196.91,228.22Z" transform="translate(-18.43 -88.63)"/><circle class="cls-12" cx="175.92" cy="141.18" r="0.92"/><circle class="cls-12" cx="177.45" cy="144.39" r="0.9"/><path class="cls-12" d="M199.55,234.55a.81.81,0,0,0-1.55.5A.81.81,0,0,0,199.55,234.55Z" transform="translate(-18.43 -88.63)"/><path class="cls-12" d="M198.83,237.27a.78.78,0,0,0-1.48.47A.78.78,0,0,0,198.83,237.27Z" transform="translate(-18.43 -88.63)"/><path class="cls-12" d="M202.49,238.19a1,1,0,0,0-2,.63A1,1,0,0,0,202.49,238.19Z" transform="translate(-18.43 -88.63)"/><path class="cls-12" d="M199.76,239.18a.55.55,0,0,0-1,.33A.55.55,0,0,0,199.76,239.18Z" transform="translate(-18.43 -88.63)"/><path class="cls-12" d="M205.85,239.05a.6.6,0,0,0-1.15.36A.6.6,0,0,0,205.85,239.05Z" transform="translate(-18.43 -88.63)"/><path class="cls-12" d="M205.9,240.74a.35.35,0,0,0-.66.21A.35.35,0,0,0,205.9,240.74Z" transform="translate(-18.43 -88.63)"/><path class="cls-12" d="M202.46,240.7a.81.81,0,0,0-1.55.5A.81.81,0,0,0,202.46,240.7Z" transform="translate(-18.43 -88.63)"/><path class="cls-12" d="M197,235.54a.66.66,0,0,0-1.25.4A.66.66,0,0,0,197,235.54Z" transform="translate(-18.43 -88.63)"/><path class="cls-13" d="M166.69,178.89c4.87-1.27,7.81,4.1,7.21,8.67-.85,6.38,1.7,14.75,5.6,17.5s-2.69,2.5-4,2.19-11-7.92-10.3-12.5,2.89-6.7,1.8-10.1C166.08,181.72,164.65,179.42,166.69,178.89Z" transform="translate(-18.43 -88.63)"/><path class="cls-13" d="M160.77,261s-3-5.73-7.29-6.35-11.64.49-15.33-1-7.38-8.38-7.38-8.38-3,11.2.77,14.6,13.85-3.65,18-2.06S159.06,265.68,160.77,261Z" transform="translate(-18.43 -88.63)"/><path class="cls-13" d="M117.83,138s-3-5.73-7.29-6.34-11.64.48-15.33-1-7.38-8.39-7.38-8.39-3,11.21.77,14.6,13.85-3.64,18-2.06S116.12,142.68,117.83,138Z" transform="translate(-18.43 -88.63)"/><path class="cls-13" d="M86.24,194.4c1.37,0,8.72,5,10.16,10.83s7.88,13.09,11,13.75,1.37,3.78-4,2.56S90.55,215,89.6,210.66s.23-10-3.21-12.11S81.05,194.25,86.24,194.4Z" transform="translate(-18.43 -88.63)"/><path class="cls-13" d="M255.18,228.59c-1.1-4.6-6.4-9.52-9.8-14.58s-2.39-9.95-6.15-10.37-4.7,10.64-1.41,14.59,9,3.16,11.69,6.92S256.15,232.64,255.18,228.59Z" transform="translate(-18.43 -88.63)"/><path class="cls-13" d="M165.21,240.13c1.93-1.5,2-4,2.1-6.29.09-1.77-.2-3.43-1.88-4.35-.89-.49-1.82-.35-2.39-1.15s-.61-2-1-2.84c-.87-1.78-2.35-3.3-4.43-3.17a1,1,0,0,0-1,1.24c.44,1.74,1.65,3.18,2.27,4.88a6.7,6.7,0,0,0,2.11,3.46c.31.24,1.56.65,1.78.88.53.57.23,1.37.16,2.11-.19,2.06-.4,3.54,1,5.19A.92.92,0,0,0,165.21,240.13Z" transform="translate(-18.43 -88.63)"/><path class="cls-13" d="M194.8,255.12a1,1,0,0,0,1.66-.64c.28-2.51-2.21-3.07-3.61-4.56-1.07-1.14-1.25-4.65-3.54-3.9s-1.08,4-.14,5.36C190.61,253.47,193,253.62,194.8,255.12Z" transform="translate(-18.43 -88.63)"/><path class="cls-14" d="M133.33,259.24c1.92.81,4.26.28,6.24,0,3.25-.46,6.52-1,9.74-1.64a.32.32,0,0,0-.07-.62c-3.68.1-7.47.7-11.15.56-2.92-.11-4.39-.8-5-3.58a38.41,38.41,0,0,0-1.15-4.46c-.21-.6-1.24-.81-1.38,0C129.91,252.78,129.49,257.62,133.33,259.24Z" transform="translate(-18.43 -88.63)"/><path class="cls-14" d="M165,238.87c-.9-2.74,1.44-6.38-1.44-8.51-.38-.28-.83-.4-1.23-.64-1.31-.79-1.4-1.67-1.83-3a4.27,4.27,0,0,0-1.71-2.56.7.7,0,0,0-1,.76c.28,2.07.86,5.17,2.71,6.44.69.48,1.63.53,2.15,1.28s.43,2,.52,2.91a8.25,8.25,0,0,0,.86,3.67C164.28,239.76,165.19,239.49,165,238.87Z" transform="translate(-18.43 -88.63)"/><path class="cls-14" d="M174.11,203.44c1.1.46,2.09-1.23,1.22-2-1.86-1.66-4-3-5.55-5-2-2.45-1.57-4.23-1.27-7s.25-7-1.81-9.29a.54.54,0,0,0-.93.36c-.12,2.43.75,4.81.59,7.3-.13,2.11-1,4.36-.71,6.5C166.23,198.3,170.6,202,174.11,203.44Z" transform="translate(-18.43 -88.63)"/><path class="cls-14" d="M102.62,220.19c1,.36,1.71-1,1-1.72-2-2.21-4.67-3.66-7-5.46-3.6-2.75-4.67-5.07-5.47-9.33-.65-3.45-2.5-8.36-6.78-8.11a.67.67,0,0,0-.36,1.24c5.32,3.36,3.35,9.26,6.17,14,1.17,2,3.09,3.34,4.9,4.7C97.46,217.33,99.81,219.22,102.62,220.19Z" transform="translate(-18.43 -88.63)"/><path class="cls-14" d="M92.22,137c2.36.48,5.13-.68,7.4-1.21,4.47-1,8.18-1.55,12.23,1.06.66.42,1.64-.41,1.16-1.11-2.55-3.7-7-3.65-11.08-3.08-1.19.16-2.37.34-3.54.59s-3.35,1.3-4.53,1.12c-4.61-.71-3.58-6.32-4.77-9.6a.68.68,0,0,0-1.31,0C86.72,128.46,87.58,136.08,92.22,137Z" transform="translate(-18.43 -88.63)"/><path class="cls-14" d="M192.47,252.5c-.54-1-1.3-1.74-1.79-2.73s-.57-2.08-1.1-3a.65.65,0,0,0-1.18.13c-.81,2.08,1,5.71,2.79,6.8A.92.92,0,0,0,192.47,252.5Z" transform="translate(-18.43 -88.63)"/><path class="cls-14" d="M248.08,223c.54-.06.93-.82.33-1.13-3.14-1.65-6.3-2.71-8.61-5.58-3-3.74-2.35-7-1-11.19a.53.53,0,0,0-.86-.52C231,211.29,239.37,223.89,248.08,223Z" transform="translate(-18.43 -88.63)"/><circle class="cls-15" cx="107.1" cy="129.32" r="7.14"/><circle class="cls-15" cx="151.81" cy="165.53" r="7.14"/><circle class="cls-15" cx="170.63" cy="103" r="7.14"/><circle class="cls-15" cx="74.71" cy="76.13" r="7.14"/><circle class="cls-15" cx="60.64" cy="137.37" r="7.14"/><path class="cls-1" d="M144.19,240.63a1.42,1.42,0,0,0,.9-1.27,1.31,1.31,0,0,0,0-.59c0-.1,0-.1,0,0v-.15a4.58,4.58,0,0,0-.1-.63c0-.08-.06-.41,0-.09,0-.2,0-.4-.08-.61l0-.23c0-.1,0-.1,0,0s0,.13,0-.4l-.18-.47a2.17,2.17,0,0,0-.81-.81,1.89,1.89,0,0,0-2.77,1.09,2.32,2.32,0,0,0-.07.87,1.42,1.42,0,0,0,.2.72l.3.41v0l0,0c.11.16.22.35.34.5,0,0,0,0,.07.08s.18.29.28.43l.18.23a2.88,2.88,0,0,0,.4.52A1.43,1.43,0,0,0,144.19,240.63Z" transform="translate(-18.43 -88.63)"/><path class="cls-1" d="M141.75,239l.06.07Z" transform="translate(-18.43 -88.63)"/><path class="cls-1" d="M133.29,210.36a1.79,1.79,0,0,0,2-1.25,1.15,1.15,0,0,1,.06-.17l.15-.18a1.89,1.89,0,0,0,.24-.65,4,4,0,0,0,.16-.8.53.53,0,0,0,0-.13s0,0,.06-.12a1.73,1.73,0,0,0-2.86-1.73,5.19,5.19,0,0,0-1,1.28,3,3,0,0,0-.29.82,1,1,0,0,0,0,.51c0,.29,0,.34,0,.15s0-.14,0,0v.16l0,.38A1.79,1.79,0,0,0,133.29,210.36Z" transform="translate(-18.43 -88.63)"/><path class="cls-1" d="M73.54,181.12a2,2,0,0,0,1.73-1.45c.06-.27.18-.51.25-.77.07-.43.1-.64.1-.63l0-.23c0-.12.07-.25.11-.37l0-.08.18-.41,0-.05A2,2,0,0,0,73.78,174c-2.23,1-3.69,3.82-2.26,6.07A2.08,2.08,0,0,0,73.54,181.12Z" transform="translate(-18.43 -88.63)"/><path class="cls-1" d="M71.35,209.94a2.56,2.56,0,0,0,2.86-1.83c.09-.5.2-1,.25-1.51,0-.19,0-.38.05-.57s0-.38,0-.19a7.43,7.43,0,0,0,0-2.78,1.93,1.93,0,0,0-2.77-1.22c-1.85,1.08-2.66,3.47-2.61,5.53A2.59,2.59,0,0,0,71.35,209.94Z" transform="translate(-18.43 -88.63)"/><path class="cls-1" d="M99.33,179.2a2,2,0,0,0,1.74-1.46,5.84,5.84,0,0,0,.22-2.12,8.61,8.61,0,0,0-.4-1.57,4.09,4.09,0,0,0-1.11-2,2.11,2.11,0,0,0-2.24-.33c-1.19.58-1.36,2-1.25,3.17a12.25,12.25,0,0,0,.19,1.6,4.7,4.7,0,0,0,.83,1.62A2.08,2.08,0,0,0,99.33,179.2Z" transform="translate(-18.43 -88.63)"/><path class="cls-1" d="M99.34,187a1.35,1.35,0,0,0,1-1.25,3,3,0,0,0-.34-1.38,3.92,3.92,0,0,0-.77-1,1.45,1.45,0,0,0-2-.06,1.43,1.43,0,0,0-.06,2l.25.27,0,0,0,.07a5.65,5.65,0,0,0,.34.51l0,0,0,.07A1.34,1.34,0,0,0,99.34,187Z" transform="translate(-18.43 -88.63)"/><path class="cls-1" d="M151.26,273.44a2.18,2.18,0,0,0,1-2.29,5.49,5.49,0,0,0-.79-2.21c-.16-.26-.31-.52-.47-.77a4.34,4.34,0,0,0-1.18-1.16A1.77,1.77,0,0,0,148,267a1.89,1.89,0,0,0-.94,1.55c0-.38-.06.41-.06.41a2.64,2.64,0,0,0,.14.84c.09.32.19.64.29,1a6,6,0,0,0,1.32,2.32A2.08,2.08,0,0,0,151.26,273.44Z" transform="translate(-18.43 -88.63)"/><path class="cls-2" d="M147.61,229.39c8.28,0,10.79-23.37-1.77-21.2S138.4,229.41,147.61,229.39Z" transform="translate(-18.43 -88.63)"/><path class="cls-2" d="M153.66,238.8c-6.94-.7-4,15,1.51,14.38S162.44,239.68,153.66,238.8Z" transform="translate(-18.43 -88.63)"/><path class="cls-2" d="M84.3,170.82C74.7,167.5,71.6,182.45,83,186.7S93.91,174.15,84.3,170.82Z" transform="translate(-18.43 -88.63)"/><path class="cls-2" d="M103.85,138.62c-6.08-6-17.43,7.77-7.76,12.79S109.32,144,103.85,138.62Z" transform="translate(-18.43 -88.63)"/><path class="cls-2" d="M208.2,190.41c-6.52-3.33-14.57,9.52-6.49,12S214.81,193.77,208.2,190.41Z" transform="translate(-18.43 -88.63)"/><path class="cls-2" d="M178,232.85c-5.23-.68-7.26,13.53,1.58,13.8S188.88,234.27,178,232.85Z" transform="translate(-18.43 -88.63)"/><path class="cls-2" d="M127.34,230.28c-3.45,0-3.4,5.19.91,5.93S133.6,230.3,127.34,230.28Z" transform="translate(-18.43 -88.63)"/><path class="cls-7" d="M60.73,118.72c9.82,8,5.71,12.16-3.2,10s-14.16-.1-5.61,7.65-26.15,55.53-21.23,20.54S42.2,114.71,54,103.31,60.73,118.72,60.73,118.72Z" transform="translate(-18.43 -88.63)"/></svg>